<svg width="198" height="189" viewBox="0 0 198 189" fill="none" xmlns="http://www.w3.org/2000/svg">
<rect width="198" height="270" rx="13.3063" fill="#F7F7F7"/>
<path d="M9.3985 16.8597C9.3985 15.745 9.69737 14.886 10.2951 14.2825C10.8149 13.7569 11.4762 13.4941 12.2789 13.4941C13.3531 13.4941 14.1386 13.8464 14.6352 14.551C14.9096 14.9466 15.0568 15.3437 15.0771 15.7422H13.743C13.6563 15.4361 13.5452 15.2051 13.4094 15.0491C13.1669 14.7719 12.8074 14.6333 12.3309 14.6333C11.8458 14.6333 11.4632 14.8297 11.1831 15.2224C10.903 15.6122 10.7629 16.1652 10.7629 16.8813C10.7629 17.5975 10.9102 18.1346 11.2047 18.4926C11.5021 18.8478 11.879 19.0254 12.3352 19.0254C12.803 19.0254 13.1597 18.8724 13.4051 18.5663C13.5408 18.4017 13.6534 18.1548 13.743 17.8256H15.0641C14.9486 18.5215 14.6526 19.0875 14.1761 19.5235C13.7025 19.9596 13.0947 20.1776 12.3526 20.1776C11.4343 20.1776 10.7124 19.8831 10.1868 19.294C9.66127 18.702 9.3985 17.8906 9.3985 16.8597ZM18.1048 19.1294C18.4657 19.1294 18.7429 19.0009 18.9364 18.7439C19.1299 18.4869 19.2266 18.1216 19.2266 17.648C19.2266 17.1744 19.1299 16.8106 18.9364 16.5565C18.7429 16.2995 18.4657 16.171 18.1048 16.171C17.7438 16.171 17.4651 16.2995 17.2688 16.5565C17.0753 16.8106 16.9786 17.1744 16.9786 17.648C16.9786 18.1216 17.0753 18.4869 17.2688 18.7439C17.4651 19.0009 17.7438 19.1294 18.1048 19.1294ZM20.5217 17.648C20.5217 18.341 20.3225 18.9345 19.924 19.4282C19.5255 19.9191 18.9205 20.1646 18.1091 20.1646C17.2977 20.1646 16.6927 19.9191 16.2942 19.4282C15.8957 18.9345 15.6965 18.341 15.6965 17.648C15.6965 16.9665 15.8957 16.376 16.2942 15.8764C16.6927 15.3769 17.2977 15.1271 18.1091 15.1271C18.9205 15.1271 19.5255 15.3769 19.924 15.8764C20.3225 16.376 20.5217 16.9665 20.5217 17.648ZM24.0259 15.1661C24.5139 15.1661 24.9124 15.2946 25.2214 15.5516C25.5332 15.8057 25.6892 16.2287 25.6892 16.8207V20H24.4244V17.1282C24.4244 16.8799 24.3912 16.6893 24.3248 16.5565C24.2035 16.3139 23.9725 16.1926 23.6317 16.1926C23.213 16.1926 22.9257 16.3702 22.7698 16.7254C22.6889 16.9131 22.6485 17.1528 22.6485 17.4444V20H21.4183V15.2874H22.6095V15.9761C22.7683 15.7335 22.9185 15.5588 23.06 15.452C23.3141 15.2614 23.6361 15.1661 24.0259 15.1661ZM27.7943 18.4926C27.8203 18.7121 27.8766 18.868 27.9632 18.9604C28.1162 19.125 28.3992 19.2073 28.8122 19.2073C29.0547 19.2073 29.2468 19.1712 29.3883 19.0991C29.5326 19.0269 29.6048 18.9186 29.6048 18.7742C29.6048 18.6356 29.5471 18.5302 29.4316 18.458C29.3161 18.3858 28.8872 18.2616 28.1451 18.0855C27.6109 17.9527 27.2341 17.7866 27.0146 17.5874C26.7951 17.391 26.6854 17.108 26.6854 16.7384C26.6854 16.3024 26.8558 15.9284 27.1965 15.6165C27.5402 15.3018 28.0224 15.1444 28.6432 15.1444C29.2323 15.1444 29.7117 15.2628 30.0813 15.4996C30.4538 15.7335 30.6675 16.1392 30.7223 16.7167H29.4879C29.4705 16.5579 29.4258 16.4323 29.3536 16.3399C29.2179 16.1724 28.9869 16.0887 28.6606 16.0887C28.392 16.0887 28.2 16.1305 28.0845 16.2143C27.9719 16.298 27.9156 16.3962 27.9156 16.5088C27.9156 16.6503 27.9762 16.7528 28.0975 16.8164C28.2188 16.8828 28.6476 16.9968 29.3839 17.1586C29.8748 17.2741 30.243 17.4488 30.4884 17.6827C30.731 17.9194 30.8523 18.2154 30.8523 18.5706C30.8523 19.0384 30.6776 19.421 30.3282 19.7185C29.9817 20.013 29.4446 20.1603 28.7169 20.1603C27.9747 20.1603 27.4261 20.0043 27.0709 19.6925C26.7186 19.3777 26.5425 18.9778 26.5425 18.4926H27.7943ZM33.0007 15.2787V18.1245C33.0007 18.393 33.0325 18.5952 33.096 18.7309C33.2086 18.9706 33.4295 19.0904 33.7587 19.0904C34.1803 19.0904 34.4691 18.92 34.625 18.5793C34.7059 18.3945 34.7463 18.1505 34.7463 17.8473V15.2787H35.9981V20H34.7983V19.333C34.7867 19.3474 34.7578 19.3907 34.7116 19.4629C34.6654 19.5351 34.6106 19.5986 34.547 19.6535C34.3536 19.8267 34.1659 19.9451 33.9839 20.0087C33.8049 20.0722 33.5941 20.104 33.3515 20.104C32.6527 20.104 32.1821 19.8527 31.9395 19.3503C31.8038 19.0731 31.7359 18.6645 31.7359 18.1245V15.2787H33.0007ZM42.4693 15.1747C42.6772 15.1747 42.8822 15.2152 43.0844 15.296C43.2865 15.3769 43.4699 15.5184 43.6345 15.7205C43.7673 15.8851 43.8568 16.0872 43.903 16.3269C43.9319 16.4857 43.9463 16.7182 43.9463 17.0243L43.9377 20H42.6729V16.994C42.6729 16.8149 42.644 16.6677 42.5863 16.5521C42.4765 16.3327 42.2744 16.223 41.9798 16.223C41.6391 16.223 41.4038 16.3644 41.2738 16.6474C41.2074 16.7976 41.1742 16.9781 41.1742 17.1889V20H39.9311V17.1889C39.9311 16.9088 39.9022 16.7052 39.8444 16.5781C39.7405 16.35 39.5369 16.2359 39.2337 16.2359C38.8814 16.2359 38.6446 16.35 38.5233 16.5781C38.4569 16.7081 38.4237 16.9016 38.4237 17.1586V20H37.1719V15.2874H38.3717V15.9761C38.5248 15.7306 38.6692 15.5559 38.8049 15.452C39.0446 15.2671 39.355 15.1747 39.7361 15.1747C40.0971 15.1747 40.3888 15.2541 40.6111 15.413C40.7901 15.5602 40.9259 15.7494 41.0183 15.9804C41.18 15.7032 41.3807 15.4996 41.6203 15.3697C41.8744 15.2397 42.1574 15.1747 42.4693 15.1747ZM47.2036 19.1294C47.5646 19.1294 47.8418 19.0009 48.0353 18.7439C48.2287 18.4869 48.3255 18.1216 48.3255 17.648C48.3255 17.1744 48.2287 16.8106 48.0353 16.5565C47.8418 16.2995 47.5646 16.171 47.2036 16.171C46.8427 16.171 46.564 16.2995 46.3676 16.5565C46.1742 16.8106 46.0774 17.1744 46.0774 17.648C46.0774 18.1216 46.1742 18.4869 46.3676 18.7439C46.564 19.0009 46.8427 19.1294 47.2036 19.1294ZM49.6206 17.648C49.6206 18.341 49.4213 18.9345 49.0228 19.4282C48.6243 19.9191 48.0194 20.1646 47.2079 20.1646C46.3965 20.1646 45.7915 19.9191 45.3931 19.4282C44.9946 18.9345 44.7953 18.341 44.7953 17.648C44.7953 16.9665 44.9946 16.376 45.3931 15.8764C45.7915 15.3769 46.3965 15.1271 47.2079 15.1271C48.0194 15.1271 48.6243 15.3769 49.0228 15.8764C49.4213 16.376 49.6206 16.9665 49.6206 17.648ZM55.0046 18.9864C55.2934 18.9864 55.5374 18.8781 55.7366 18.6616C55.9359 18.4421 56.0355 18.0942 56.0355 17.6177C56.0355 17.1701 55.9402 16.8294 55.7496 16.5955C55.5619 16.3616 55.3092 16.2446 54.9916 16.2446C54.5584 16.2446 54.2596 16.4482 54.095 16.8553C54.0084 17.0719 53.965 17.339 53.965 17.6567C53.965 17.931 54.0112 18.175 54.1036 18.3887C54.2711 18.7872 54.5714 18.9864 55.0046 18.9864ZM54.6971 15.1661C54.9338 15.1661 55.1403 15.2022 55.3165 15.2744C55.6168 15.3985 55.8593 15.6267 56.0441 15.9587V15.2787H57.244V19.7574C57.244 20.3667 57.1415 20.8259 56.9364 21.1348C56.5841 21.6662 55.9084 21.9318 54.9093 21.9318C54.3058 21.9318 53.8134 21.8134 53.4323 21.5767C53.0511 21.3399 52.8403 20.9861 52.7999 20.5154H54.1426C54.1773 20.6598 54.2336 20.7638 54.3116 20.8273C54.4444 20.9399 54.6682 20.9962 54.9829 20.9962C55.4276 20.9962 55.7251 20.8475 55.8752 20.5501C55.9734 20.3595 56.0225 20.039 56.0225 19.5885V19.2853C55.9041 19.4874 55.777 19.639 55.6413 19.7401C55.3959 19.9278 55.0768 20.0217 54.6841 20.0217C54.0777 20.0217 53.5925 19.8094 53.2287 19.3849C52.8677 18.9576 52.6873 18.38 52.6873 17.6523C52.6873 16.9506 52.862 16.3616 53.2114 15.8851C53.5608 15.4057 54.056 15.1661 54.6971 15.1661ZM59.6696 14.7156H58.4178V13.5764H59.6696V14.7156ZM58.4178 15.2787H59.6696V20H58.4178V15.2787ZM62.9875 19.1294C63.3485 19.1294 63.6257 19.0009 63.8191 18.7439C64.0126 18.4869 64.1093 18.1216 64.1093 17.648C64.1093 17.1744 64.0126 16.8106 63.8191 16.5565C63.6257 16.2995 63.3485 16.171 62.9875 16.171C62.6265 16.171 62.3479 16.2995 62.1515 16.5565C61.958 16.8106 61.8613 17.1744 61.8613 17.648C61.8613 18.1216 61.958 18.4869 62.1515 18.7439C62.3479 19.0009 62.6265 19.1294 62.9875 19.1294ZM65.4045 17.648C65.4045 18.341 65.2052 18.9345 64.8067 19.4282C64.4082 19.9191 63.8033 20.1646 62.9918 20.1646C62.1804 20.1646 61.5754 19.9191 61.1769 19.4282C60.7784 18.9345 60.5792 18.341 60.5792 17.648C60.5792 16.9665 60.7784 16.376 61.1769 15.8764C61.5754 15.3769 62.1804 15.1271 62.9918 15.1271C63.8033 15.1271 64.4082 15.3769 64.8067 15.8764C65.2052 16.376 65.4045 16.9665 65.4045 17.648ZM68.8566 15.1661C68.8797 15.1661 68.8985 15.1675 68.913 15.1704C68.9303 15.1704 68.9664 15.1718 69.0212 15.1747V16.4395C68.9433 16.4309 68.874 16.4251 68.8133 16.4222C68.7527 16.4193 68.7036 16.4179 68.6661 16.4179C68.1694 16.4179 67.8359 16.5796 67.6655 16.903C67.5702 17.0849 67.5226 17.365 67.5226 17.7433V20H66.2794V15.2787H67.4576V16.1017C67.6482 15.7869 67.8142 15.5718 67.9557 15.4563C68.1867 15.2628 68.487 15.1661 68.8566 15.1661ZM72.3651 15.1661C72.8532 15.1661 73.2516 15.2946 73.5606 15.5516C73.8725 15.8057 74.0284 16.2287 74.0284 16.8207V20H72.7636V17.1282C72.7636 16.8799 72.7304 16.6893 72.664 16.5565C72.5427 16.3139 72.3117 16.1926 71.971 16.1926C71.5523 16.1926 71.2649 16.3702 71.109 16.7254C71.0282 16.9131 70.9877 17.1528 70.9877 17.4444V20H69.7576V15.2874H70.9487V15.9761C71.1076 15.7335 71.2577 15.5588 71.3992 15.452C71.6533 15.2614 71.9753 15.1661 72.3651 15.1661ZM77.7752 17.7043C77.6972 17.7534 77.6178 17.7938 77.5369 17.8256C77.459 17.8545 77.3507 17.8819 77.2121 17.9079L76.9348 17.9599C76.675 18.0061 76.4887 18.0624 76.3761 18.1288C76.1855 18.2414 76.0902 18.4161 76.0902 18.6529C76.0902 18.8637 76.148 19.0168 76.2635 19.112C76.3819 19.2045 76.5248 19.2507 76.6923 19.2507C76.9579 19.2507 77.202 19.1727 77.4243 19.0168C77.6495 18.8608 77.7665 18.5764 77.7752 18.1635V17.7043ZM77.0258 17.1282C77.2539 17.0994 77.4171 17.0633 77.5153 17.0199C77.6914 16.9449 77.7795 16.8279 77.7795 16.6691C77.7795 16.4756 77.7116 16.3428 77.5759 16.2706C77.4431 16.1955 77.2467 16.158 76.9868 16.158C76.6952 16.158 76.4887 16.2302 76.3674 16.3746C76.2808 16.4814 76.223 16.6258 76.1942 16.8077H75.003C75.029 16.3948 75.1445 16.0555 75.3495 15.7898C75.6758 15.374 76.236 15.1661 77.0301 15.1661C77.547 15.1661 78.0062 15.2686 78.4075 15.4736C78.8089 15.6786 79.0096 16.0656 79.0096 16.6344V18.8002C79.0096 18.9503 79.0125 19.1323 79.0183 19.3459C79.0269 19.5077 79.0515 19.6174 79.0919 19.6751C79.1323 19.7329 79.193 19.7805 79.2738 19.8181V20H77.9311C77.8935 19.9047 77.8676 19.8152 77.8531 19.7314C77.8387 19.6477 77.8271 19.5524 77.8185 19.4456C77.6481 19.6304 77.4517 19.7878 77.2294 19.9177C76.9637 20.0707 76.6634 20.1473 76.3284 20.1473C75.9011 20.1473 75.5473 20.026 75.2672 19.7834C74.99 19.538 74.8514 19.1915 74.8514 18.7439C74.8514 18.1635 75.0752 17.7433 75.5228 17.4834C75.7682 17.3419 76.1292 17.2409 76.6057 17.1802L77.0258 17.1282ZM81.3703 20H80.1358V13.6154H81.3703V20ZM83.8479 14.7156H82.5961V13.5764H83.8479V14.7156ZM82.5961 15.2787H83.8479V20H82.5961V15.2787ZM86.9102 16.171C86.6244 16.171 86.402 16.2605 86.2432 16.4395C86.0873 16.6186 85.9891 16.8611 85.9486 17.1672H87.8675C87.8473 16.8409 87.7476 16.594 87.5686 16.4265C87.3925 16.2562 87.173 16.171 86.9102 16.171ZM86.9102 15.1531C87.303 15.1531 87.6567 15.2267 87.9714 15.374C88.2862 15.5213 88.5461 15.7537 88.7511 16.0714C88.9359 16.3515 89.0558 16.6763 89.1106 17.0459C89.1424 17.2625 89.1554 17.5744 89.1496 17.9815H85.9183C85.9356 18.4551 86.0844 18.7872 86.3645 18.9778C86.5348 19.0962 86.7399 19.1554 86.9795 19.1554C87.2336 19.1554 87.4401 19.0832 87.5989 18.9388C87.6856 18.8608 87.7621 18.7525 87.8285 18.6139H89.089C89.0572 18.894 88.9114 19.1785 88.6515 19.4672C88.2472 19.9264 87.6812 20.1559 86.9535 20.1559C86.3529 20.1559 85.823 19.9625 85.3639 19.5755C84.9048 19.1886 84.6752 18.5591 84.6752 17.687C84.6752 16.8698 84.8817 16.2432 85.2946 15.8071C85.7104 15.3711 86.249 15.1531 86.9102 15.1531ZM92.5498 15.1661C92.5729 15.1661 92.5917 15.1675 92.6061 15.1704C92.6234 15.1704 92.6595 15.1718 92.7144 15.1747V16.4395C92.6364 16.4309 92.5671 16.4251 92.5065 16.4222C92.4459 16.4193 92.3968 16.4179 92.3592 16.4179C91.8626 16.4179 91.529 16.5796 91.3587 16.903C91.2634 17.0849 91.2157 17.365 91.2157 17.7433V20H89.9726V15.2787H91.1507V16.1017C91.3413 15.7869 91.5074 15.5718 91.6489 15.4563C91.8799 15.2628 92.1802 15.1661 92.5498 15.1661ZM95.5602 19.1294C95.9211 19.1294 96.1984 19.0009 96.3918 18.7439C96.5853 18.4869 96.682 18.1216 96.682 17.648C96.682 17.1744 96.5853 16.8106 96.3918 16.5565C96.1984 16.2995 95.9211 16.171 95.5602 16.171C95.1992 16.171 94.9206 16.2995 94.7242 16.5565C94.5307 16.8106 94.434 17.1744 94.434 17.648C94.434 18.1216 94.5307 18.4869 94.7242 18.7439C94.9206 19.0009 95.1992 19.1294 95.5602 19.1294ZM97.9772 17.648C97.9772 18.341 97.7779 18.9345 97.3794 19.4282C96.9809 19.9191 96.376 20.1646 95.5645 20.1646C94.7531 20.1646 94.1481 19.9191 93.7496 19.4282C93.3511 18.9345 93.1519 18.341 93.1519 17.648C93.1519 16.9665 93.3511 16.376 93.7496 15.8764C94.1481 15.3769 94.7531 15.1271 95.5645 15.1271C96.376 15.1271 96.9809 15.3769 97.3794 15.8764C97.7779 16.376 97.9772 16.9665 97.9772 17.648ZM101.65 15.2267C101.878 14.6954 102.212 14.1236 102.651 13.5115H103.582L103.318 13.9966C102.954 14.6636 102.701 15.3624 102.56 16.093C102.467 16.5724 102.421 17.095 102.421 17.661C102.421 18.5446 102.55 19.3575 102.807 20.0996C102.957 20.5385 103.223 21.1016 103.604 21.7889H102.69L102.382 21.3687C102.183 21.1146 101.971 20.7364 101.746 20.2339C101.344 19.3358 101.143 18.4522 101.143 17.583C101.143 16.7918 101.312 16.0064 101.65 15.2267ZM109.564 15.1747C109.772 15.1747 109.977 15.2152 110.179 15.296C110.381 15.3769 110.564 15.5184 110.729 15.7205C110.862 15.8851 110.951 16.0872 110.998 16.3269C111.026 16.4857 111.041 16.7182 111.041 17.0243L111.032 20H109.767V16.994C109.767 16.8149 109.739 16.6677 109.681 16.5521C109.571 16.3327 109.369 16.223 109.074 16.223C108.734 16.223 108.498 16.3644 108.368 16.6474C108.302 16.7976 108.269 16.9781 108.269 17.1889V20H107.026V17.1889C107.026 16.9088 106.997 16.7052 106.939 16.5781C106.835 16.35 106.631 16.2359 106.328 16.2359C105.976 16.2359 105.739 16.35 105.618 16.5781C105.551 16.7081 105.518 16.9016 105.518 17.1586V20H104.266V15.2874H105.466V15.9761C105.619 15.7306 105.764 15.5559 105.899 15.452C106.139 15.2671 106.45 15.1747 106.831 15.1747C107.192 15.1747 107.483 15.2541 107.706 15.413C107.885 15.5602 108.02 15.7494 108.113 15.9804C108.275 15.7032 108.475 15.4996 108.715 15.3697C108.969 15.2397 109.252 15.1747 109.564 15.1747ZM115 16.9723C114.977 16.7962 114.918 16.6373 114.822 16.4958C114.684 16.3053 114.469 16.21 114.177 16.21C113.761 16.21 113.477 16.4164 113.324 16.8294C113.243 17.0488 113.202 17.3405 113.202 17.7043C113.202 18.0508 113.243 18.3295 113.324 18.5403C113.471 18.933 113.748 19.1294 114.155 19.1294C114.444 19.1294 114.649 19.0514 114.77 18.8955C114.892 18.7395 114.965 18.5374 114.991 18.2891H116.252C116.223 18.6645 116.087 19.0196 115.844 19.3546C115.458 19.8946 114.884 20.1646 114.125 20.1646C113.365 20.1646 112.807 19.9394 112.449 19.4889C112.091 19.0384 111.912 18.4537 111.912 17.7346C111.912 16.9232 112.109 16.2923 112.505 15.8418C112.901 15.3913 113.446 15.1661 114.142 15.1661C114.734 15.1661 115.218 15.2989 115.593 15.5646C115.972 15.8302 116.195 16.2995 116.265 16.9723H115ZM118.53 13.4205H119.557L117.075 20H116.057L118.53 13.4205ZM121.614 18.9864C121.903 18.9864 122.147 18.8781 122.346 18.6616C122.545 18.4421 122.645 18.0942 122.645 17.6177C122.645 17.1701 122.55 16.8294 122.359 16.5955C122.171 16.3616 121.919 16.2446 121.601 16.2446C121.168 16.2446 120.869 16.4482 120.704 16.8553C120.618 17.0719 120.574 17.339 120.574 17.6567C120.574 17.931 120.621 18.175 120.713 18.3887C120.881 18.7872 121.181 18.9864 121.614 18.9864ZM121.306 15.1661C121.543 15.1661 121.75 15.2022 121.926 15.2744C122.226 15.3985 122.469 15.6267 122.654 15.9587V15.2787H123.853V19.7574C123.853 20.3667 123.751 20.8259 123.546 21.1348C123.194 21.6662 122.518 21.9318 121.519 21.9318C120.915 21.9318 120.423 21.8134 120.042 21.5767C119.661 21.3399 119.45 20.9861 119.409 20.5154H120.752C120.787 20.6598 120.843 20.7638 120.921 20.8273C121.054 20.9399 121.278 20.9962 121.592 20.9962C122.037 20.9962 122.334 20.8475 122.485 20.5501C122.583 20.3595 122.632 20.039 122.632 19.5885V19.2853C122.514 19.4874 122.386 19.639 122.251 19.7401C122.005 19.9278 121.686 20.0217 121.293 20.0217C120.687 20.0217 120.202 19.8094 119.838 19.3849C119.477 18.9576 119.297 18.38 119.297 17.6523C119.297 16.9506 119.471 16.3616 119.821 15.8851C120.17 15.4057 120.665 15.1661 121.306 15.1661ZM125.478 13.5115C125.917 14.1236 126.25 14.6954 126.478 15.2267C126.816 16.0064 126.985 16.7918 126.985 17.583C126.985 18.4522 126.784 19.3358 126.383 20.2339C126.158 20.7364 125.945 21.1146 125.746 21.3687L125.439 21.7889H124.525C124.906 21.1016 125.172 20.5385 125.322 20.0996C125.579 19.3575 125.707 18.5446 125.707 17.661C125.707 17.095 125.661 16.5724 125.569 16.093C125.427 15.3624 125.174 14.6636 124.811 13.9966L124.546 13.5115H125.478Z" fill="#333333"/>
<rect opacity="0.8" x="9.1444" y="64.2162" width="180.189" height="20.5139" rx="10.2569" fill="white" fill-opacity="0.8" stroke="#E3E1E1" stroke-width="0.554429"/>
<path d="M20.4671 76.3933C20.7223 76.3933 20.932 76.3668 21.0963 76.3137C21.3894 76.2152 21.6294 76.0257 21.8164 75.7452C21.9654 75.5203 22.0728 75.2323 22.1385 74.8811C22.1764 74.6713 22.1954 74.4768 22.1954 74.2974C22.1954 73.6076 22.0577 73.072 21.7823 72.6904C21.5094 72.3089 21.0685 72.1181 20.4595 72.1181H19.1216V76.3933H20.4671ZM18.3636 71.47H20.6187C21.3843 71.47 21.9781 71.7416 22.4 72.2849C22.7765 72.7751 22.9647 73.4029 22.9647 74.1685C22.9647 74.7598 22.8536 75.2942 22.6312 75.7717C22.2396 76.6156 21.5662 77.0376 20.6111 77.0376H18.3636V71.47ZM24.3709 75.9574C24.3709 76.1545 24.4429 76.3099 24.5869 76.4236C24.7309 76.5373 24.9015 76.5942 25.0985 76.5942C25.3386 76.5942 25.571 76.5386 25.7959 76.4274C26.1749 76.243 26.3644 75.941 26.3644 75.5216V74.972C26.281 75.0251 26.1736 75.0693 26.0423 75.1047C25.9109 75.1401 25.782 75.1653 25.6557 75.1805L25.2426 75.2335C24.9949 75.2664 24.8092 75.3182 24.6854 75.3889C24.4757 75.5077 24.3709 75.6972 24.3709 75.9574ZM26.0233 74.5779C26.18 74.5576 26.2848 74.492 26.3379 74.3808C26.3682 74.3201 26.3834 74.233 26.3834 74.1193C26.3834 73.8868 26.3 73.7188 26.1332 73.6152C25.969 73.5091 25.7327 73.456 25.4245 73.456C25.0682 73.456 24.8155 73.552 24.6665 73.7441C24.5831 73.8502 24.5288 74.0081 24.5035 74.2178H23.8668C23.8794 73.7175 24.0411 73.3701 24.3519 73.1755C24.6652 72.9785 25.0278 72.8799 25.4396 72.8799C25.9172 72.8799 26.305 72.9709 26.6032 73.1528C26.8988 73.3347 27.0466 73.6177 27.0466 74.0018V76.3402C27.0466 76.411 27.0605 76.4678 27.0883 76.5108C27.1186 76.5537 27.1805 76.5752 27.274 76.5752C27.3043 76.5752 27.3385 76.5739 27.3764 76.5714C27.4143 76.5664 27.4547 76.5601 27.4976 76.5525V77.0565C27.3915 77.0869 27.3107 77.1058 27.2551 77.1134C27.1995 77.121 27.1237 77.1248 27.0277 77.1248C26.7927 77.1248 26.6221 77.0414 26.516 76.8746C26.4604 76.7862 26.4213 76.6611 26.3985 76.4994C26.2596 76.6813 26.0599 76.8393 25.7997 76.9732C25.5394 77.1071 25.2527 77.174 24.9394 77.174C24.5629 77.174 24.2546 77.0603 24.0146 76.8329C23.7771 76.603 23.6583 76.3162 23.6583 75.9726C23.6583 75.5961 23.7758 75.3043 24.0108 75.0971C24.2458 74.8899 24.554 74.7623 24.9356 74.7143L26.0233 74.5779ZM28.3049 71.8452H28.9947V72.9785H29.6428V73.5356H28.9947V76.1848C28.9947 76.3263 29.0427 76.4211 29.1387 76.4691C29.1918 76.4969 29.2802 76.5108 29.404 76.5108C29.4369 76.5108 29.4722 76.5108 29.5101 76.5108C29.548 76.5083 29.5923 76.5045 29.6428 76.4994V77.0376C29.5645 77.0603 29.4824 77.0768 29.3964 77.0869C29.3131 77.097 29.2221 77.102 29.1236 77.102C28.8052 77.102 28.5892 77.0212 28.4755 76.8595C28.3618 76.6952 28.3049 76.483 28.3049 76.2227V73.5356H27.7554V72.9785H28.3049V71.8452ZM30.8518 75.9574C30.8518 76.1545 30.9238 76.3099 31.0679 76.4236C31.2119 76.5373 31.3824 76.5942 31.5795 76.5942C31.8195 76.5942 32.052 76.5386 32.2769 76.4274C32.6559 76.243 32.8454 75.941 32.8454 75.5216V74.972C32.762 75.0251 32.6546 75.0693 32.5232 75.1047C32.3918 75.1401 32.263 75.1653 32.1366 75.1805L31.7235 75.2335C31.4759 75.2664 31.2902 75.3182 31.1664 75.3889C30.9567 75.5077 30.8518 75.6972 30.8518 75.9574ZM32.5043 74.5779C32.6609 74.5576 32.7658 74.492 32.8189 74.3808C32.8492 74.3201 32.8643 74.233 32.8643 74.1193C32.8643 73.8868 32.781 73.7188 32.6142 73.6152C32.45 73.5091 32.2137 73.456 31.9055 73.456C31.5492 73.456 31.2965 73.552 31.1474 73.7441C31.0641 73.8502 31.0097 74.0081 30.9845 74.2178H30.3477C30.3604 73.7175 30.5221 73.3701 30.8329 73.1755C31.1462 72.9785 31.5088 72.8799 31.9206 72.8799C32.3982 72.8799 32.786 72.9709 33.0842 73.1528C33.3798 73.3347 33.5276 73.6177 33.5276 74.0018V76.3402C33.5276 76.411 33.5415 76.4678 33.5693 76.5108C33.5996 76.5537 33.6615 76.5752 33.755 76.5752C33.7853 76.5752 33.8194 76.5739 33.8573 76.5714C33.8952 76.5664 33.9356 76.5601 33.9786 76.5525V77.0565C33.8725 77.0869 33.7916 77.1058 33.736 77.1134C33.6805 77.121 33.6047 77.1248 33.5086 77.1248C33.2737 77.1248 33.1031 77.0414 32.997 76.8746C32.9414 76.7862 32.9022 76.6611 32.8795 76.4994C32.7405 76.6813 32.5409 76.8393 32.2807 76.9732C32.0204 77.1071 31.7336 77.174 31.4203 77.174C31.0438 77.174 30.7356 77.0603 30.4956 76.8329C30.258 76.603 30.1393 76.3162 30.1393 75.9726C30.1393 75.5961 30.2568 75.3043 30.4918 75.0971C30.7267 74.8899 31.035 74.7623 31.4165 74.7143L32.5043 74.5779ZM36.9727 71.47H40.8348V72.1522H37.727V73.8426H40.4596V74.5059H37.727V77.0376H36.9727V71.47ZM41.5549 72.9974H42.2485V77.0376H41.5549V72.9974ZM41.5549 71.47H42.2485V72.2432H41.5549V71.47ZM43.2832 72.9785H43.9312V73.5546C44.1233 73.317 44.3267 73.1465 44.5414 73.0429C44.7562 72.9393 44.995 72.8875 45.2578 72.8875C45.8338 72.8875 46.223 73.0884 46.4251 73.4901C46.5363 73.7099 46.5919 74.0245 46.5919 74.4338V77.0376H45.8983V74.4793C45.8983 74.2317 45.8616 74.0321 45.7884 73.8805C45.6671 73.6278 45.4473 73.5015 45.1289 73.5015C44.9672 73.5015 44.8345 73.5179 44.7309 73.5508C44.544 73.6063 44.3797 73.7175 44.2382 73.8843C44.1245 74.0182 44.05 74.1572 44.0146 74.3012C43.9818 74.4427 43.9654 74.6461 43.9654 74.9114V77.0376H43.2832V72.9785ZM49.2942 72.8875C49.5822 72.8875 49.8614 72.9557 50.1318 73.0922C50.4021 73.2261 50.608 73.4004 50.7495 73.6152C50.886 73.8199 50.9769 74.0586 51.0224 74.3315C51.0628 74.5185 51.0831 74.8166 51.0831 75.226H48.1079C48.1205 75.6378 48.2178 75.9688 48.3997 76.2189C48.5816 76.4666 48.8634 76.5904 49.2449 76.5904C49.6011 76.5904 49.8854 76.4729 50.0976 76.2379C50.2189 76.1015 50.3048 75.9435 50.3554 75.7641H51.0262C51.0085 75.9132 50.9491 76.08 50.8481 76.2644C50.7495 76.4464 50.6384 76.5954 50.5145 76.7117C50.3074 76.9138 50.0509 77.0502 49.7452 77.121C49.5809 77.1614 49.3952 77.1816 49.188 77.1816C48.6827 77.1816 48.2544 76.9984 47.9032 76.6321C47.552 76.2632 47.3764 75.7477 47.3764 75.0857C47.3764 74.4338 47.5533 73.9045 47.907 73.4977C48.2607 73.0909 48.7231 72.8875 49.2942 72.8875ZM50.3819 74.684C50.3541 74.3884 50.2897 74.1521 50.1886 73.9752C50.0016 73.6468 49.6896 73.4825 49.2525 73.4825C48.9392 73.4825 48.6764 73.5962 48.4641 73.8236C48.2519 74.0485 48.1395 74.3353 48.1268 74.684H50.3819Z" fill="#9C9C9C"/>
<g clip-path="url(#clip0_1_5408)">
<path d="M179.969 70.625H179.25V70.25C179.25 70.1119 179.138 70 179 70C178.862 70 178.75 70.1119 178.75 70.25V70.625H175.25V70.25C175.25 70.1119 175.138 70 175 70C174.862 70 174.75 70.1119 174.75 70.25V70.625H174.031C173.463 70.625 173 71.0876 173 71.6562V76.9688C173 77.5374 173.463 78 174.031 78H179.969C180.537 78 181 77.5374 181 76.9688V71.6562C181 71.0876 180.537 70.625 179.969 70.625ZM174.031 71.125H174.75V71.375C174.75 71.5131 174.862 71.625 175 71.625C175.138 71.625 175.25 71.5131 175.25 71.375V71.125H178.75V71.375C178.75 71.5131 178.862 71.625 179 71.625C179.138 71.625 179.25 71.5131 179.25 71.375V71.125H179.969C180.262 71.125 180.5 71.3633 180.5 71.6562V72.25H173.5V71.6562C173.5 71.3633 173.738 71.125 174.031 71.125ZM179.969 77.5H174.031C173.738 77.5 173.5 77.2617 173.5 76.9688V72.75H180.5V76.9688C180.5 77.2617 180.262 77.5 179.969 77.5Z" fill="#9C9C9C"/>
</g>
<rect opacity="0.8" x="9.1444" y="34.2772" width="180.189" height="20.5139" rx="10.2569" fill="white" fill-opacity="0.8" stroke="#E3E1E1" stroke-width="0.554429"/>
<path d="M20.4671 46.4543C20.7223 46.4543 20.932 46.4278 21.0963 46.3747C21.3894 46.2762 21.6294 46.0867 21.8164 45.8062C21.9654 45.5814 22.0728 45.2933 22.1385 44.9421C22.1764 44.7324 22.1954 44.5378 22.1954 44.3584C22.1954 43.6686 22.0577 43.133 21.7823 42.7515C21.5094 42.3699 21.0685 42.1792 20.4595 42.1792H19.1216V46.4543H20.4671ZM18.3636 41.5311H20.6187C21.3843 41.5311 21.9781 41.8027 22.4 42.3459C22.7765 42.8361 22.9647 43.464 22.9647 44.2296C22.9647 44.8208 22.8536 45.3552 22.6312 45.8328C22.2396 46.6767 21.5662 47.0986 20.6111 47.0986H18.3636V41.5311ZM24.3709 46.0185C24.3709 46.2156 24.4429 46.3709 24.5869 46.4846C24.7309 46.5983 24.9015 46.6552 25.0985 46.6552C25.3386 46.6552 25.571 46.5996 25.7959 46.4884C26.1749 46.304 26.3644 46.002 26.3644 45.5826V45.0331C26.281 45.0861 26.1736 45.1303 26.0423 45.1657C25.9109 45.2011 25.782 45.2264 25.6557 45.2415L25.2426 45.2946C24.9949 45.3274 24.8092 45.3792 24.6854 45.45C24.4757 45.5687 24.3709 45.7582 24.3709 46.0185ZM26.0233 44.6389C26.18 44.6187 26.2848 44.553 26.3379 44.4418C26.3682 44.3812 26.3834 44.294 26.3834 44.1803C26.3834 43.9478 26.3 43.7798 26.1332 43.6762C25.969 43.5701 25.7327 43.517 25.4245 43.517C25.0682 43.517 24.8155 43.6131 24.6665 43.8051C24.5831 43.9112 24.5288 44.0691 24.5035 44.2788H23.8668C23.8794 43.7786 24.0411 43.4311 24.3519 43.2366C24.6652 43.0395 25.0278 42.941 25.4396 42.941C25.9172 42.941 26.305 43.0319 26.6032 43.2138C26.8988 43.3958 27.0466 43.6788 27.0466 44.0628V46.4013C27.0466 46.472 27.0605 46.5289 27.0883 46.5718C27.1186 46.6148 27.1805 46.6362 27.274 46.6362C27.3043 46.6362 27.3385 46.635 27.3764 46.6325C27.4143 46.6274 27.4547 46.6211 27.4976 46.6135V47.1176C27.3915 47.1479 27.3107 47.1669 27.2551 47.1744C27.1995 47.182 27.1237 47.1858 27.0277 47.1858C26.7927 47.1858 26.6221 47.1024 26.516 46.9357C26.4604 46.8472 26.4213 46.7222 26.3985 46.5604C26.2596 46.7424 26.0599 46.9003 25.7997 47.0342C25.5394 47.1681 25.2527 47.2351 24.9394 47.2351C24.5629 47.2351 24.2546 47.1214 24.0146 46.894C23.7771 46.664 23.6583 46.3773 23.6583 46.0336C23.6583 45.6572 23.7758 45.3653 24.0108 45.1581C24.2458 44.9509 24.554 44.8233 24.9356 44.7753L26.0233 44.6389ZM28.3049 41.9063H28.9947V43.0395H29.6428V43.5966H28.9947V46.2459C28.9947 46.3874 29.0427 46.4821 29.1387 46.5301C29.1918 46.5579 29.2802 46.5718 29.404 46.5718C29.4369 46.5718 29.4722 46.5718 29.5101 46.5718C29.548 46.5693 29.5923 46.5655 29.6428 46.5604V47.0986C29.5645 47.1214 29.4824 47.1378 29.3964 47.1479C29.3131 47.158 29.2221 47.1631 29.1236 47.1631C28.8052 47.1631 28.5892 47.0822 28.4755 46.9205C28.3618 46.7563 28.3049 46.544 28.3049 46.2838V43.5966H27.7554V43.0395H28.3049V41.9063ZM30.8518 46.0185C30.8518 46.2156 30.9238 46.3709 31.0679 46.4846C31.2119 46.5983 31.3824 46.6552 31.5795 46.6552C31.8195 46.6552 32.052 46.5996 32.2769 46.4884C32.6559 46.304 32.8454 46.002 32.8454 45.5826V45.0331C32.762 45.0861 32.6546 45.1303 32.5232 45.1657C32.3918 45.2011 32.263 45.2264 32.1366 45.2415L31.7235 45.2946C31.4759 45.3274 31.2902 45.3792 31.1664 45.45C30.9567 45.5687 30.8518 45.7582 30.8518 46.0185ZM32.5043 44.6389C32.6609 44.6187 32.7658 44.553 32.8189 44.4418C32.8492 44.3812 32.8643 44.294 32.8643 44.1803C32.8643 43.9478 32.781 43.7798 32.6142 43.6762C32.45 43.5701 32.2137 43.517 31.9055 43.517C31.5492 43.517 31.2965 43.6131 31.1474 43.8051C31.0641 43.9112 31.0097 44.0691 30.9845 44.2788H30.3477C30.3604 43.7786 30.5221 43.4311 30.8329 43.2366C31.1462 43.0395 31.5088 42.941 31.9206 42.941C32.3982 42.941 32.786 43.0319 33.0842 43.2138C33.3798 43.3958 33.5276 43.6788 33.5276 44.0628V46.4013C33.5276 46.472 33.5415 46.5289 33.5693 46.5718C33.5996 46.6148 33.6615 46.6362 33.755 46.6362C33.7853 46.6362 33.8194 46.635 33.8573 46.6325C33.8952 46.6274 33.9356 46.6211 33.9786 46.6135V47.1176C33.8725 47.1479 33.7916 47.1669 33.736 47.1744C33.6805 47.182 33.6047 47.1858 33.5086 47.1858C33.2737 47.1858 33.1031 47.1024 32.997 46.9357C32.9414 46.8472 32.9022 46.7222 32.8795 46.5604C32.7405 46.7424 32.5409 46.9003 32.2807 47.0342C32.0204 47.1681 31.7336 47.2351 31.4203 47.2351C31.0438 47.2351 30.7356 47.1214 30.4956 46.894C30.258 46.664 30.1393 46.3773 30.1393 46.0336C30.1393 45.6572 30.2568 45.3653 30.4918 45.1581C30.7267 44.9509 31.035 44.8233 31.4165 44.7753L32.5043 44.6389ZM37.0713 41.5311H37.8331V47.0986H37.0713V41.5311ZM38.9701 43.0395H39.6182V43.6156C39.8102 43.3781 40.0136 43.2075 40.2284 43.1039C40.4431 43.0003 40.6819 42.9485 40.9447 42.9485C41.5208 42.9485 41.9099 43.1494 42.112 43.5512C42.2232 43.771 42.2788 44.0856 42.2788 44.4949V47.0986H41.5852V44.5404C41.5852 44.2927 41.5486 44.0931 41.4753 43.9415C41.354 43.6889 41.1342 43.5625 40.8158 43.5625C40.6541 43.5625 40.5215 43.5789 40.4179 43.6118C40.2309 43.6674 40.0667 43.7786 39.9252 43.9453C39.8115 44.0792 39.7369 44.2182 39.7016 44.3622C39.6687 44.5037 39.6523 44.7071 39.6523 44.9724V47.0986H38.9701V43.0395ZM43.2907 43.0585H43.9843V47.0986H43.2907V43.0585ZM43.2907 41.5311H43.9843V42.3042H43.2907V41.5311ZM44.7158 46.5604L47.1225 43.6497H44.8939V43.0395H48.0397V43.5966L45.6481 46.4884H48.1117V47.0986H44.7158V46.5604ZM48.9 43.0585H49.5936V47.0986H48.9V43.0585ZM48.9 41.5311H49.5936V42.3042H48.9V41.5311ZM52.239 46.659C52.6913 46.659 53.0008 46.4884 53.1676 46.1473C53.3369 45.8037 53.4215 45.4222 53.4215 45.0027C53.4215 44.6237 53.3609 44.3155 53.2396 44.078C53.0476 43.704 52.7166 43.517 52.2466 43.517C51.8297 43.517 51.5265 43.6762 51.337 43.9946C51.1475 44.313 51.0527 44.697 51.0527 45.1468C51.0527 45.5788 51.1475 45.9389 51.337 46.2269C51.5265 46.515 51.8272 46.659 52.239 46.659ZM52.2655 42.922C52.7886 42.922 53.2307 43.0964 53.5921 43.445C53.9534 43.7937 54.134 44.3066 54.134 44.9838C54.134 45.6382 53.9749 46.1789 53.6565 46.6059C53.3381 47.0329 52.8442 47.2464 52.1746 47.2464C51.6162 47.2464 51.1728 47.0582 50.8443 46.6817C50.5158 46.3027 50.3516 45.7949 50.3516 45.1581C50.3516 44.4759 50.5247 43.9327 50.8708 43.5284C51.217 43.1241 51.6819 42.922 52.2655 42.922Z" fill="#9C9C9C"/>
<g clip-path="url(#clip1_1_5408)">
<path d="M179.969 40.686H179.25V40.311C179.25 40.173 179.138 40.061 179 40.061C178.862 40.061 178.75 40.173 178.75 40.311V40.686H175.25V40.311C175.25 40.173 175.138 40.061 175 40.061C174.862 40.061 174.75 40.173 174.75 40.311V40.686H174.031C173.463 40.686 173 41.1486 173 41.7173V47.0298C173 47.5984 173.463 48.061 174.031 48.061H179.969C180.537 48.061 181 47.5984 181 47.0298V41.7173C181 41.1486 180.537 40.686 179.969 40.686ZM174.031 41.186H174.75V41.436C174.75 41.5741 174.862 41.686 175 41.686C175.138 41.686 175.25 41.5741 175.25 41.436V41.186H178.75V41.436C178.75 41.5741 178.862 41.686 179 41.686C179.138 41.686 179.25 41.5741 179.25 41.436V41.186H179.969C180.262 41.186 180.5 41.4243 180.5 41.7173V42.311H173.5V41.7173C173.5 41.4243 173.738 41.186 174.031 41.186ZM179.969 47.561H174.031C173.738 47.561 173.5 47.3227 173.5 47.0298V42.811H180.5V47.0298C180.5 47.3227 180.262 47.561 179.969 47.561Z" fill="#9C9C9C"/>
</g>
<path d="M8.63673 106.696V106.248C9.05905 106.206 9.35359 106.138 9.52035 106.043C9.68711 105.945 9.81164 105.717 9.89394 105.357H10.3552V109.99H9.73151V106.696H8.63673ZM12.2557 110.669C12.4051 110.643 12.5101 110.538 12.5708 110.354C12.6033 110.256 12.6195 110.162 12.6195 110.071C12.6195 110.056 12.6184 110.042 12.6163 110.029C12.6163 110.018 12.6141 110.005 12.6098 109.99H12.2557V109.282H12.9509V109.938C12.9509 110.196 12.8989 110.422 12.7949 110.617C12.691 110.812 12.5112 110.932 12.2557 110.978V110.669ZM15.3548 105.338C15.9569 105.338 16.3922 105.586 16.6608 106.082C16.8687 106.465 16.9726 106.99 16.9726 107.657C16.9726 108.29 16.8784 108.813 16.69 109.227C16.4171 109.82 15.971 110.117 15.3516 110.117C14.7928 110.117 14.377 109.874 14.1041 109.389C13.8767 108.984 13.763 108.44 13.763 107.758C13.763 107.23 13.8312 106.776 13.9677 106.397C14.2232 105.691 14.6856 105.338 15.3548 105.338ZM15.3483 109.584C15.6515 109.584 15.893 109.45 16.0728 109.181C16.2525 108.912 16.3424 108.412 16.3424 107.68C16.3424 107.152 16.2774 106.718 16.1475 106.377C16.0176 106.035 15.7653 105.864 15.3906 105.864C15.0462 105.864 14.7939 106.027 14.6337 106.351C14.4756 106.674 14.3965 107.151 14.3965 107.781C14.3965 108.255 14.4474 108.636 14.5492 108.924C14.7051 109.364 14.9715 109.584 15.3483 109.584ZM19.0583 105.338C19.6603 105.338 20.0956 105.586 20.3642 106.082C20.5721 106.465 20.6761 106.99 20.6761 107.657C20.6761 108.29 20.5818 108.813 20.3934 109.227C20.1205 109.82 19.6744 110.117 19.055 110.117C18.4962 110.117 18.0804 109.874 17.8075 109.389C17.5801 108.984 17.4664 108.44 17.4664 107.758C17.4664 107.23 17.5347 106.776 17.6711 106.397C17.9267 105.691 18.389 105.338 19.0583 105.338ZM19.0518 109.584C19.355 109.584 19.5964 109.45 19.7762 109.181C19.956 108.912 20.0458 108.412 20.0458 107.68C20.0458 107.152 19.9809 106.718 19.8509 106.377C19.721 106.035 19.4687 105.864 19.094 105.864C18.7496 105.864 18.4973 106.027 18.3371 106.351C18.179 106.674 18.0999 107.151 18.0999 107.781C18.0999 108.255 18.1508 108.636 18.2526 108.924C18.4085 109.364 18.6749 109.584 19.0518 109.584Z" fill="#333333"/>
<path d="M9.79973 130.842C10.4018 130.842 10.8371 131.09 11.1057 131.586C11.3136 131.969 11.4175 132.494 11.4175 133.161C11.4175 133.794 11.3233 134.317 11.1349 134.73C10.862 135.324 10.4159 135.62 9.79648 135.62C9.23772 135.62 8.8219 135.378 8.54901 134.893C8.32161 134.488 8.20791 133.944 8.20791 133.262C8.20791 132.733 8.27613 132.28 8.41257 131.901C8.66813 131.195 9.13051 130.842 9.79973 130.842ZM9.79323 135.088C10.0964 135.088 10.3379 134.953 10.5177 134.685C10.6974 134.416 10.7873 133.916 10.7873 133.184C10.7873 132.655 10.7223 132.221 10.5924 131.881C10.4624 131.539 10.2101 131.368 9.83546 131.368C9.49111 131.368 9.2388 131.53 9.07854 131.855C8.92044 132.178 8.84139 132.654 8.84139 133.285C8.84139 133.759 8.89228 134.14 8.99407 134.428C9.15001 134.868 9.41639 135.088 9.79323 135.088ZM12.2557 136.173C12.4051 136.147 12.5101 136.042 12.5708 135.857C12.6033 135.76 12.6195 135.666 12.6195 135.575C12.6195 135.56 12.6184 135.546 12.6163 135.533C12.6163 135.522 12.6141 135.509 12.6098 135.494H12.2557V134.785H12.9509V135.442C12.9509 135.699 12.8989 135.926 12.7949 136.121C12.691 136.316 12.5112 136.436 12.2557 136.481V136.173ZM17.0344 130.92V131.43C16.8849 131.575 16.6857 131.827 16.4366 132.187C16.1897 132.546 15.971 132.934 15.7804 133.35C15.592 133.755 15.4491 134.124 15.3516 134.457C15.2888 134.672 15.2076 135.017 15.1079 135.494H14.4615C14.6087 134.606 14.9336 133.722 15.4361 132.843C15.7328 132.327 16.0446 131.882 16.3717 131.508H13.7988V130.92H17.0344ZM18.0804 134.308C18.1194 134.641 18.2743 134.872 18.545 135C18.6836 135.065 18.8438 135.097 19.0258 135.097C19.3723 135.097 19.6289 134.987 19.7957 134.766C19.9624 134.545 20.0458 134.3 20.0458 134.032C20.0458 133.707 19.9462 133.456 19.747 133.278C19.5499 133.101 19.3127 133.012 19.0355 133.012C18.8341 133.012 18.6608 133.051 18.5157 133.129C18.3728 133.207 18.2504 133.315 18.1486 133.454L17.6419 133.424L17.996 130.92H20.4129V131.485H18.4345L18.2364 132.778C18.3446 132.696 18.4475 132.634 18.545 132.593C18.7182 132.521 18.9186 132.485 19.146 132.485C19.5726 132.485 19.9343 132.623 20.231 132.898C20.5277 133.173 20.6761 133.522 20.6761 133.944C20.6761 134.384 20.5396 134.771 20.2667 135.107C19.996 135.443 19.5629 135.611 18.9673 135.611C18.5883 135.611 18.2526 135.504 17.9602 135.292C17.67 135.078 17.5076 134.75 17.4729 134.308H18.0804Z" fill="#333333"/>
<path d="M9.79973 156.345C10.4018 156.345 10.8371 156.593 11.1057 157.089C11.3136 157.473 11.4175 157.998 11.4175 158.665C11.4175 159.297 11.3233 159.82 11.1349 160.234C10.862 160.827 10.4159 161.124 9.79648 161.124C9.23772 161.124 8.8219 160.881 8.54901 160.396C8.32161 159.991 8.20791 159.448 8.20791 158.766C8.20791 158.237 8.27613 157.783 8.41257 157.404C8.66813 156.698 9.13051 156.345 9.79973 156.345ZM9.79323 160.591C10.0964 160.591 10.3379 160.457 10.5177 160.188C10.6974 159.92 10.7873 159.42 10.7873 158.688C10.7873 158.159 10.7223 157.725 10.5924 157.385C10.4624 157.043 10.2101 156.872 9.83546 156.872C9.49111 156.872 9.2388 157.034 9.07854 157.359C8.92044 157.682 8.84139 158.158 8.84139 158.788C8.84139 159.263 8.89228 159.644 8.99407 159.932C9.15001 160.371 9.41639 160.591 9.79323 160.591ZM12.2557 161.676C12.4051 161.65 12.5101 161.545 12.5708 161.361C12.6033 161.264 12.6195 161.17 12.6195 161.079C12.6195 161.063 12.6184 161.049 12.6163 161.036C12.6163 161.025 12.6141 161.013 12.6098 160.997H12.2557V160.289H12.9509V160.945C12.9509 161.203 12.8989 161.429 12.7949 161.624C12.691 161.819 12.5112 161.939 12.2557 161.985V161.676ZM14.377 159.812C14.416 160.145 14.5708 160.376 14.8416 160.504C14.9802 160.569 15.1404 160.601 15.3224 160.601C15.6689 160.601 15.9255 160.491 16.0923 160.27C16.259 160.049 16.3424 159.804 16.3424 159.535C16.3424 159.211 16.2428 158.959 16.0435 158.782C15.8465 158.604 15.6093 158.515 15.3321 158.515C15.1307 158.515 14.9574 158.554 14.8123 158.632C14.6694 158.71 14.547 158.819 14.4452 158.957L13.9385 158.928L14.2925 156.423H16.7095V156.989H14.7311L14.5329 158.282C14.6412 158.199 14.7441 158.137 14.8416 158.096C15.0148 158.025 15.2152 157.989 15.4426 157.989C15.8692 157.989 16.2309 158.127 16.5276 158.402C16.8243 158.677 16.9726 159.025 16.9726 159.448C16.9726 159.887 16.8362 160.275 16.5633 160.611C16.2926 160.946 15.8595 161.114 15.2639 161.114C14.8849 161.114 14.5492 161.008 14.2568 160.796C13.9666 160.582 13.8042 160.253 13.7695 159.812H14.377ZM19.0583 156.345C19.6603 156.345 20.0956 156.593 20.3642 157.089C20.5721 157.473 20.6761 157.998 20.6761 158.665C20.6761 159.297 20.5818 159.82 20.3934 160.234C20.1205 160.827 19.6744 161.124 19.055 161.124C18.4962 161.124 18.0804 160.881 17.8075 160.396C17.5801 159.991 17.4664 159.448 17.4664 158.766C17.4664 158.237 17.5347 157.783 17.6711 157.404C17.9267 156.698 18.389 156.345 19.0583 156.345ZM19.0518 160.591C19.355 160.591 19.5964 160.457 19.7762 160.188C19.956 159.92 20.0458 159.42 20.0458 158.688C20.0458 158.159 19.9809 157.725 19.8509 157.385C19.721 157.043 19.4687 156.872 19.094 156.872C18.7496 156.872 18.4973 157.034 18.3371 157.359C18.179 157.682 18.0999 158.158 18.0999 158.788C18.0999 159.263 18.1508 159.644 18.2526 159.932C18.4085 160.371 18.6749 160.591 19.0518 160.591Z" fill="#333333"/>
<path d="M9.79973 181.849C10.4018 181.849 10.8371 182.097 11.1057 182.593C11.3136 182.976 11.4175 183.501 11.4175 184.169C11.4175 184.801 11.3233 185.324 11.1349 185.738C10.862 186.331 10.4159 186.628 9.79648 186.628C9.23772 186.628 8.8219 186.385 8.54901 185.9C8.32161 185.495 8.20791 184.951 8.20791 184.269C8.20791 183.741 8.27613 183.287 8.41257 182.908C8.66813 182.202 9.13051 181.849 9.79973 181.849ZM9.79323 186.095C10.0964 186.095 10.3379 185.961 10.5177 185.692C10.6974 185.424 10.7873 184.923 10.7873 184.191C10.7873 183.663 10.7223 183.229 10.5924 182.889C10.4624 182.546 10.2101 182.375 9.83546 182.375C9.49111 182.375 9.2388 182.538 9.07854 182.863C8.92044 183.185 8.84139 183.662 8.84139 184.292C8.84139 184.766 8.89228 185.147 8.99407 185.435C9.15001 185.875 9.41639 186.095 9.79323 186.095ZM12.2557 187.18C12.4051 187.154 12.5101 187.049 12.5708 186.865C12.6033 186.767 12.6195 186.673 12.6195 186.582C12.6195 186.567 12.6184 186.553 12.6163 186.54C12.6163 186.529 12.6141 186.516 12.6098 186.501H12.2557V185.793H12.9509V186.449C12.9509 186.707 12.8989 186.933 12.7949 187.128C12.691 187.323 12.5112 187.443 12.2557 187.489V187.18ZM13.763 186.501C13.7847 186.1 13.867 185.752 14.0099 185.455C14.155 185.158 14.4366 184.889 14.8546 184.646L15.4783 184.285C15.7577 184.123 15.9537 183.984 16.0663 183.87C16.2439 183.69 16.3327 183.484 16.3327 183.252C16.3327 182.982 16.2515 182.767 16.089 182.609C15.9266 182.449 15.71 182.369 15.4393 182.369C15.0386 182.369 14.7614 182.52 14.6077 182.824C14.5254 182.986 14.4799 183.211 14.4712 183.499H13.8767C13.8832 183.094 13.9579 182.764 14.1009 182.509C14.3543 182.058 14.8015 181.833 15.4426 181.833C15.9753 181.833 16.3641 181.977 16.6088 182.265C16.8557 182.553 16.9791 182.873 16.9791 183.226C16.9791 183.599 16.8481 183.917 16.5861 184.182C16.4345 184.335 16.1627 184.522 15.7707 184.74L15.3256 184.987C15.1134 185.104 14.9466 185.216 14.8253 185.322C14.6087 185.51 14.4723 185.719 14.416 185.949H16.9564V186.501H13.763ZM18.0804 185.315C18.1194 185.649 18.2743 185.879 18.545 186.007C18.6836 186.072 18.8438 186.105 19.0258 186.105C19.3723 186.105 19.6289 185.994 19.7957 185.773C19.9624 185.552 20.0458 185.308 20.0458 185.039C20.0458 184.714 19.9462 184.463 19.747 184.285C19.5499 184.108 19.3127 184.019 19.0355 184.019C18.8341 184.019 18.6608 184.058 18.5157 184.136C18.3728 184.214 18.2504 184.322 18.1486 184.461L17.6419 184.432L17.996 181.927H20.4129V182.492H18.4345L18.2364 183.785C18.3446 183.703 18.4475 183.641 18.545 183.6C18.7182 183.529 18.9186 183.493 19.146 183.493C19.5726 183.493 19.9343 183.63 20.231 183.905C20.5277 184.18 20.6761 184.529 20.6761 184.951C20.6761 185.391 20.5396 185.779 20.2667 186.114C19.996 186.45 19.5629 186.618 18.9673 186.618C18.5883 186.618 18.2526 186.512 17.9602 186.3C17.67 186.085 17.5076 185.757 17.4729 185.315H18.0804Z" fill="#333333"/>
<path d="M32.3926 107.871H189.296" stroke="#E7E7E7" stroke-width="0.554429"/>
<path d="M32.3926 133.375H189.296" stroke="#E7E7E7" stroke-width="0.554429"/>
<path d="M32.3926 158.878H189.296" stroke="#E7E7E7" stroke-width="0.554429"/>
<path d="M32.3926 184.382H189.296" stroke="#E7E7E7" stroke-width="0.554429"/>
<path d="M40.7129 99L40.7129 209.886" stroke="#E7E7E7" stroke-width="0.554429"/>
<path d="M62.3359 99L62.3359 209.886" stroke="#E7E7E7" stroke-width="0.554429"/>
<path d="M83.4023 99L83.4023 209.886" stroke="#E7E7E7" stroke-width="0.554429"/>
<path d="M104.471 99L104.471 209.886" stroke="#E7E7E7" stroke-width="0.554429"/>
<path d="M125.539 99L125.539 209.886" stroke="#E7E7E7" stroke-width="0.554429"/>
<path d="M146.605 99L146.605 209.886" stroke="#E7E7E7" stroke-width="0.554429"/>
<path d="M168.229 99L168.229 209.886" stroke="#E7E7E7" stroke-width="0.554429"/>
<path d="M189.299 99L189.299 209.886" stroke="#E7E7E7" stroke-width="0.554429"/>
<defs>
<clipPath id="clip0_1_5408">
<rect width="8" height="8" fill="white" transform="translate(173 70)"/>
</clipPath>
<clipPath id="clip1_1_5408">
<rect width="8" height="8" fill="white" transform="translate(173 40.061)"/>
</clipPath>
</defs>
</svg>
