<svg width="217" height="442" viewBox="0 0 217 442" fill="none" xmlns="http://www.w3.org/2000/svg">
<g clip-path="url(#clip0_1_5328)">
<rect width="216.227" height="674.74" rx="20" fill="white"/>
<path d="M217 0L217 43.476C217 52.0497 210.05 59 201.476 59L15.524 59C6.95033 59 -2.27516e-06 52.0497 -1.9004e-06 43.476L0 -9.48537e-06L217 0Z" fill="#417BC3"/>
<g clip-path="url(#clip1_1_5328)">
<path d="M16.2399 33.97C15.4028 35.3975 13.4984 35.3771 12.473 34.0108L10.2128 30.6869C10.8406 29.9731 12.4102 29.3818 13.038 30.1975C14.1053 31.6249 14.21 31.6657 14.4193 31.4006C15.068 30.3606 17.4537 26.0986 17.4747 26.0578H10.4012C9.66869 26.0578 8.85251 26.8123 8.87344 27.6892V34.5206C8.87344 35.2344 9.58498 36.152 10.443 36.152H18.0816C18.9396 36.152 19.6302 35.4179 19.6093 34.6226L19.6302 27.8319C18.1862 30.3402 16.2399 33.97 16.2399 33.97ZM27.9803 33.3175C28.1268 31.3394 23.0833 32.0939 23.1879 28.9739C23.3344 24.7935 29.1313 26.2821 29.801 26.7104C29.801 26.7104 29.0895 28.3418 29.0686 28.301C29.0686 28.301 25.5318 27.2814 25.4899 28.7904C25.4272 30.7481 30.3661 29.7692 30.2824 33.2971C30.1777 37.9262 23.3344 35.6014 23.0205 35.4383C23.0205 35.4383 23.7739 33.7661 23.8157 33.7457C23.8367 33.7457 27.8548 35.0304 27.9803 33.3175ZM57.8021 26.2617L58.8485 26.0986V28.872H61.3807V30.6665H58.8485V33.0932C58.8276 34.9897 61.4226 33.97 61.4226 33.9497L61.9458 35.7238C61.6947 35.8258 60.1251 36.1112 59.6647 36.152C56.8813 36.4783 56.7348 34.0516 56.7139 33.1136L56.693 27.4445C56.7557 26.8531 57.1952 26.3637 57.8021 26.2617ZM39.909 24.8751L40.9554 24.7119L40.9763 36.2132H38.8627L38.8417 26.0578C38.8417 25.4664 39.2812 24.977 39.909 24.8751ZM67.4079 30.85C67.2195 30.8092 66.1941 30.483 65.1477 30.7481L65.1686 36.2132H63.1596L63.1387 29.4225C65.1686 28.5457 67.6381 29.1167 67.7427 29.1574L67.4079 30.85ZM72.4724 34.6226V33.134C72.3886 33.1136 70.4633 32.9504 70.4215 33.8681C70.3587 34.9489 72.3677 34.643 72.4724 34.6226ZM71.3841 28.9331C74.5023 28.7292 74.2931 31.3394 74.2931 31.7677V35.8665C74.021 35.9277 72.0957 36.2132 71.405 36.2132C70.9656 36.2132 68.6426 36.3152 68.6008 33.9293C68.6008 33.5214 68.7263 31.1355 72.4724 31.8696C72.4724 31.8696 72.6398 30.5237 71.1539 30.5849C70.6098 30.6053 69.4797 30.8296 69.1239 30.8704L68.8937 29.3002C69.0193 29.239 70.6517 28.9739 71.3841 28.9331ZM49.7241 32.5834C49.7241 30.0139 52.1517 27.9339 55.7303 29.4429L55.2908 30.952C52.2145 29.9935 51.9215 32.0124 51.9215 32.5834C51.9215 33.1747 52.1307 35.214 55.5629 34.2148L55.8559 35.7646C51.6913 37.1309 49.745 35.0508 49.7241 32.5834ZM46.7105 31.89C46.5431 30.6053 45.6432 30.5441 45.413 30.5441C44.1992 30.5441 44.0736 31.7269 44.0318 31.89H46.7105ZM41.9599 32.6445C41.939 32.0328 42.1901 28.872 45.3921 28.9127C48.7823 28.9535 48.6986 32.563 48.6358 33.2359H44.0318C44.0318 34.9285 47.15 34.3983 47.9662 34.2148L48.2382 35.8258C47.2546 36.0705 42.1483 37.396 41.9599 32.6445ZM35.9119 31.89C35.7445 30.6053 34.8446 30.5441 34.6144 30.5441C33.4006 30.5441 33.275 31.7269 33.2331 31.89H35.9119ZM31.1613 32.6445C31.1404 32.0328 31.3915 28.872 34.5934 28.9127C37.9837 28.9535 37.9 32.563 37.8372 33.2359H33.2541C33.2541 34.9285 36.3723 34.3983 37.1885 34.2148L37.4605 35.8258C36.456 36.0705 31.3497 37.396 31.1613 32.6445Z" fill="white"/>
</g>
<path d="M142.439 27.0347H146.788V27.7657H143.227V29.5768H146.52V30.2671H143.227V32.2894H146.849V33H142.439V27.0347ZM147.812 28.6509H148.506V29.2682C148.712 29.0137 148.93 28.831 149.16 28.72C149.39 28.609 149.646 28.5535 149.927 28.5535C150.544 28.5535 150.961 28.7687 151.178 29.1991C151.297 29.4347 151.357 29.7717 151.357 30.2103V33H150.613V30.259C150.613 29.9937 150.574 29.7798 150.496 29.6174C150.366 29.3467 150.13 29.2113 149.789 29.2113C149.616 29.2113 149.474 29.2289 149.363 29.2641C149.162 29.3237 148.986 29.4428 148.835 29.6214C148.713 29.7649 148.633 29.9138 148.595 30.0681C148.56 30.2197 148.542 30.4377 148.542 30.7219V33H147.812V28.6509ZM152.587 27.4368H153.326V28.6509H154.02V29.2479H153.326V32.0863C153.326 32.2379 153.377 32.3395 153.48 32.3909C153.537 32.4207 153.632 32.4356 153.765 32.4356C153.8 32.4356 153.838 32.4356 153.878 32.4356C153.919 32.4328 153.966 32.4288 154.02 32.4234V33C153.937 33.0244 153.849 33.042 153.756 33.0528C153.667 33.0636 153.57 33.069 153.464 33.069C153.123 33.069 152.892 32.9824 152.77 32.8091C152.648 32.6332 152.587 32.4058 152.587 32.1269V29.2479H151.998V28.6509H152.587V27.4368ZM154.776 28.6509H155.47V29.4022C155.527 29.256 155.666 29.0787 155.888 28.8702C156.11 28.6591 156.366 28.5535 156.656 28.5535C156.669 28.5535 156.692 28.5548 156.725 28.5575C156.757 28.5602 156.813 28.5657 156.891 28.5738V29.3453C156.848 29.3372 156.807 29.3318 156.77 29.3291C156.734 29.3264 156.695 29.325 156.652 29.325C156.284 29.325 156.001 29.4441 155.803 29.6824C155.605 29.9179 155.507 30.19 155.507 30.4986V33H154.776V28.6509ZM158.085 31.8427C158.085 32.0538 158.162 32.2203 158.317 32.3422C158.471 32.464 158.654 32.5249 158.865 32.5249C159.122 32.5249 159.371 32.4653 159.612 32.3462C160.018 32.1486 160.221 31.8251 160.221 31.3757V30.7869C160.132 30.8437 160.017 30.8911 159.876 30.929C159.735 30.9669 159.597 30.994 159.462 31.0102L159.019 31.0671C158.754 31.1023 158.555 31.1578 158.422 31.2336C158.198 31.3608 158.085 31.5638 158.085 31.8427ZM159.856 30.3646C160.024 30.3429 160.136 30.2725 160.193 30.1534C160.225 30.0884 160.242 29.995 160.242 29.8732C160.242 29.6242 160.152 29.4441 159.973 29.3331C159.798 29.2194 159.544 29.1626 159.214 29.1626C158.832 29.1626 158.562 29.2655 158.402 29.4712C158.313 29.5849 158.254 29.7541 158.227 29.9788H157.545C157.559 29.4428 157.732 29.0705 158.065 28.8621C158.401 28.6509 158.789 28.5453 159.23 28.5453C159.742 28.5453 160.158 28.6428 160.477 28.8377C160.794 29.0326 160.952 29.3358 160.952 29.7473V32.2528C160.952 32.3286 160.967 32.3895 160.997 32.4356C161.029 32.4816 161.096 32.5046 161.196 32.5046C161.228 32.5046 161.265 32.5032 161.305 32.5005C161.346 32.4951 161.389 32.4883 161.435 32.4802V33.0203C161.322 33.0528 161.235 33.0731 161.175 33.0812C161.116 33.0893 161.035 33.0934 160.932 33.0934C160.68 33.0934 160.497 33.0041 160.384 32.8254C160.324 32.7306 160.282 32.5966 160.258 32.4234C160.109 32.6183 159.895 32.7875 159.616 32.931C159.337 33.0744 159.03 33.1462 158.694 33.1462C158.291 33.1462 157.961 33.0244 157.704 32.7807C157.449 32.5344 157.322 32.2271 157.322 31.8589C157.322 31.4556 157.448 31.1429 157.699 30.9209C157.951 30.6989 158.282 30.5622 158.69 30.5108L159.856 30.3646ZM166.195 32.529C166.679 32.529 167.011 32.3462 167.189 31.9807C167.371 31.6126 167.462 31.2038 167.462 30.7544C167.462 30.3483 167.397 30.0181 167.267 29.7636C167.061 29.3629 166.706 29.1626 166.203 29.1626C165.756 29.1626 165.431 29.3331 165.228 29.6742C165.025 30.0153 164.924 30.4268 164.924 30.9087C164.924 31.3716 165.025 31.7574 165.228 32.066C165.431 32.3746 165.753 32.529 166.195 32.529ZM166.223 28.525C166.783 28.525 167.257 28.7118 167.644 29.0854C168.031 29.459 168.225 30.0086 168.225 30.7341C168.225 31.4353 168.054 32.0146 167.713 32.4721C167.372 32.9296 166.843 33.1584 166.126 33.1584C165.527 33.1584 165.052 32.9567 164.7 32.5533C164.348 32.1472 164.172 31.6031 164.172 30.9209C164.172 30.19 164.358 29.6079 164.729 29.1748C165.1 28.7416 165.598 28.525 166.223 28.525ZM171.693 27.0347H172.509V33H171.693V27.0347ZM174.162 31.6356C174.183 31.8792 174.244 32.066 174.345 32.196C174.529 32.4315 174.848 32.5493 175.303 32.5493C175.574 32.5493 175.812 32.4911 176.018 32.3746C176.223 32.2555 176.326 32.0728 176.326 31.8264C176.326 31.6396 176.244 31.4975 176.078 31.4001C175.973 31.3405 175.764 31.2715 175.453 31.193L174.872 31.0468C174.502 30.9547 174.228 30.8519 174.052 30.7382C173.738 30.5405 173.581 30.2671 173.581 29.9179C173.581 29.5064 173.729 29.1734 174.024 28.9189C174.322 28.6645 174.721 28.5372 175.222 28.5372C175.877 28.5372 176.349 28.7294 176.639 29.1139C176.82 29.3575 176.908 29.6201 176.903 29.9016H176.212C176.199 29.7365 176.141 29.5863 176.038 29.4509C175.87 29.2587 175.579 29.1626 175.165 29.1626C174.889 29.1626 174.679 29.2154 174.535 29.321C174.395 29.4265 174.324 29.566 174.324 29.7392C174.324 29.9287 174.418 30.0803 174.604 30.194C174.713 30.2617 174.872 30.3213 175.084 30.3727L175.567 30.4905C176.092 30.6177 176.444 30.7409 176.623 30.86C176.907 31.0468 177.049 31.3405 177.049 31.7412C177.049 32.1283 176.901 32.4626 176.606 32.7442C176.314 33.0257 175.867 33.1665 175.266 33.1665C174.619 33.1665 174.16 33.0203 173.89 32.7279C173.622 32.4328 173.478 32.0687 173.459 31.6356H174.162ZM179.563 28.525C180.053 28.525 180.451 28.6442 180.756 28.8824C181.065 29.1206 181.251 29.5308 181.313 30.1128H180.602C180.559 29.8448 180.46 29.6228 180.306 29.4468C180.151 29.2682 179.904 29.1788 179.563 29.1788C179.097 29.1788 178.764 29.4062 178.564 29.861C178.434 30.1561 178.369 30.5202 178.369 30.9534C178.369 31.3892 178.461 31.7561 178.645 32.0538C178.829 32.3516 179.119 32.5005 179.514 32.5005C179.817 32.5005 180.057 32.4085 180.233 32.2244C180.411 32.0376 180.534 31.7831 180.602 31.461H181.313C181.232 32.0376 181.029 32.4599 180.704 32.7279C180.379 32.9932 179.963 33.1259 179.457 33.1259C178.889 33.1259 178.435 32.9188 178.097 32.5046C177.758 32.0877 177.589 31.5679 177.589 30.9453C177.589 30.1818 177.775 29.5876 178.145 29.1626C178.516 28.7376 178.989 28.525 179.563 28.525ZM182.064 28.6509H182.758V29.4022C182.815 29.256 182.955 29.0787 183.177 28.8702C183.399 28.6591 183.654 28.5535 183.944 28.5535C183.958 28.5535 183.981 28.5548 184.013 28.5575C184.046 28.5602 184.101 28.5657 184.18 28.5738V29.3453C184.136 29.3372 184.096 29.3318 184.058 29.3291C184.023 29.3264 183.983 29.325 183.94 29.325C183.572 29.325 183.289 29.4441 183.091 29.6824C182.894 29.9179 182.795 30.19 182.795 30.4986V33H182.064V28.6509ZM184.813 28.6712H185.556V33H184.813V28.6712ZM184.813 27.0347H185.556V27.8631H184.813V27.0347ZM187.022 28.6509L188.184 32.1919L189.398 28.6509H190.198L188.557 33H187.778L186.174 28.6509H187.022ZM190.823 28.6712H191.566V33H190.823V28.6712ZM190.823 27.0347H191.566V27.8631H190.823V27.0347ZM192.821 27.4368H193.56V28.6509H194.254V29.2479H193.56V32.0863C193.56 32.2379 193.611 32.3395 193.714 32.3909C193.771 32.4207 193.866 32.4356 193.999 32.4356C194.034 32.4356 194.072 32.4356 194.112 32.4356C194.153 32.4328 194.2 32.4288 194.254 32.4234V33C194.17 33.0244 194.083 33.042 193.99 33.0528C193.901 33.0636 193.804 33.069 193.698 33.069C193.357 33.069 193.126 32.9824 193.004 32.8091C192.882 32.6332 192.821 32.4058 192.821 32.1269V29.2479H192.232V28.6509H192.821V27.4368ZM194.989 28.6712H195.733V33H194.989V28.6712ZM194.989 27.0347H195.733V27.8631H194.989V27.0347Z" fill="white"/>
<rect x="131.006" y="19.2772" width="76.4456" height="21.4456" rx="4.15822" stroke="white" stroke-width="0.554429"/>
<rect x="9" y="75" width="198" height="223" rx="13.3063" fill="#F7F7F7"/>
<path d="M20.4213 92.5874H22.0413L21.2443 90.0751L20.4213 92.5874ZM20.5036 88.6154H22.0109L24.272 95H22.8253L22.4138 93.6876H20.0618L19.62 95H18.2252L20.5036 88.6154ZM27.0138 93.9864C27.3026 93.9864 27.5466 93.8781 27.7458 93.6616C27.9451 93.4421 28.0447 93.0942 28.0447 92.6177C28.0447 92.1701 27.9494 91.8294 27.7588 91.5955C27.5711 91.3616 27.3184 91.2446 27.0008 91.2446C26.5677 91.2446 26.2688 91.4482 26.1042 91.8553C26.0176 92.0719 25.9742 92.339 25.9742 92.6567C25.9742 92.931 26.0204 93.175 26.1129 93.3887C26.2803 93.7872 26.5807 93.9864 27.0138 93.9864ZM26.7063 90.1661C26.9431 90.1661 27.1495 90.2022 27.3257 90.2744C27.626 90.3985 27.8685 90.6267 28.0534 90.9587V90.2787H29.2532V94.7574C29.2532 95.3667 29.1507 95.8259 28.9456 96.1348C28.5933 96.6662 27.9176 96.9318 26.9185 96.9318C26.315 96.9318 25.8226 96.8134 25.4415 96.5767C25.0603 96.3399 24.8495 95.9861 24.8091 95.5154H26.1518C26.1865 95.6598 26.2428 95.7638 26.3208 95.8273C26.4536 95.9399 26.6774 95.9962 26.9921 95.9962C27.4368 95.9962 27.7343 95.8475 27.8844 95.5501C27.9826 95.3595 28.0317 95.039 28.0317 94.5885V94.2853C27.9133 94.4874 27.7862 94.639 27.6505 94.7401C27.4051 94.9278 27.086 95.0217 26.6933 95.0217C26.0869 95.0217 25.6017 94.8094 25.2379 94.3849C24.8769 93.9576 24.6965 93.38 24.6965 92.6523C24.6965 91.9506 24.8712 91.3616 25.2206 90.8851C25.57 90.4057 26.0652 90.1661 26.7063 90.1661ZM32.4368 93.9864C32.7256 93.9864 32.9696 93.8781 33.1688 93.6616C33.3681 93.4421 33.4677 93.0942 33.4677 92.6177C33.4677 92.1701 33.3724 91.8294 33.1818 91.5955C32.9941 91.3616 32.7415 91.2446 32.4238 91.2446C31.9907 91.2446 31.6918 91.4482 31.5272 91.8553C31.4406 92.0719 31.3973 92.339 31.3973 92.6567C31.3973 92.931 31.4435 93.175 31.5359 93.3887C31.7033 93.7872 32.0037 93.9864 32.4368 93.9864ZM32.1293 90.1661C32.3661 90.1661 32.5725 90.2022 32.7487 90.2744C33.049 90.3985 33.2915 90.6267 33.4764 90.9587V90.2787H34.6762V94.7574C34.6762 95.3667 34.5737 95.8259 34.3686 96.1348C34.0163 96.6662 33.3406 96.9318 32.3415 96.9318C31.738 96.9318 31.2456 96.8134 30.8645 96.5767C30.4833 96.3399 30.2725 95.9861 30.2321 95.5154H31.5748C31.6095 95.6598 31.6658 95.7638 31.7438 95.8273C31.8766 95.9399 32.1004 95.9962 32.4151 95.9962C32.8598 95.9962 33.1573 95.8475 33.3074 95.5501C33.4056 95.3595 33.4547 95.039 33.4547 94.5885V94.2853C33.3363 94.4874 33.2093 94.639 33.0735 94.7401C32.8281 94.9278 32.509 95.0217 32.1163 95.0217C31.5099 95.0217 31.0247 94.8094 30.6609 94.3849C30.2999 93.9576 30.1195 93.38 30.1195 92.6523C30.1195 91.9506 30.2942 91.3616 30.6436 90.8851C30.993 90.4057 31.4882 90.1661 32.1293 90.1661ZM37.1018 89.7156H35.85V88.5764H37.1018V89.7156ZM35.85 90.2787H37.1018V95H35.85V90.2787ZM39.5318 90.2787V93.1245C39.5318 93.393 39.5635 93.5952 39.6271 93.7309C39.7397 93.9706 39.9606 94.0904 40.2898 94.0904C40.7114 94.0904 41.0001 93.92 41.1561 93.5793C41.2369 93.3945 41.2773 93.1505 41.2773 92.8473V90.2787H42.5291V95H41.3293V94.333C41.3178 94.3474 41.2889 94.3907 41.2427 94.4629C41.1965 94.5351 41.1416 94.5986 41.0781 94.6535C40.8846 94.8267 40.6969 94.9451 40.515 95.0087C40.336 95.0722 40.1252 95.104 39.8826 95.104C39.1838 95.104 38.7131 94.8527 38.4705 94.3503C38.3348 94.0731 38.267 93.6645 38.267 93.1245V90.2787H39.5318ZM46.3408 90.1661C46.8289 90.1661 47.2273 90.2946 47.5363 90.5516C47.8482 90.8057 48.0041 91.2287 48.0041 91.8207V95H46.7393V92.1282C46.7393 91.8799 46.7061 91.6893 46.6397 91.5565C46.5184 91.3139 46.2874 91.1926 45.9467 91.1926C45.528 91.1926 45.2406 91.3702 45.0847 91.7254C45.0039 91.9131 44.9634 92.1528 44.9634 92.4444V95H43.7333V90.2874H44.9244V90.9761C45.0833 90.7335 45.2334 90.5588 45.3749 90.452C45.629 90.2614 45.951 90.1661 46.3408 90.1661ZM51.1748 93.9864C51.4635 93.9864 51.7075 93.8781 51.9068 93.6616C52.106 93.4421 52.2057 93.0942 52.2057 92.6177C52.2057 92.1701 52.1104 91.8294 51.9198 91.5955C51.7321 91.3616 51.4794 91.2446 51.1618 91.2446C50.7286 91.2446 50.4297 91.4482 50.2652 91.8553C50.1785 92.0719 50.1352 92.339 50.1352 92.6567C50.1352 92.931 50.1814 93.175 50.2738 93.3887C50.4413 93.7872 50.7416 93.9864 51.1748 93.9864ZM50.8672 90.1661C51.104 90.1661 51.3105 90.2022 51.4866 90.2744C51.7869 90.3985 52.0295 90.6267 52.2143 90.9587V90.2787H53.4141V94.7574C53.4141 95.3667 53.3116 95.8259 53.1066 96.1348C52.7543 96.6662 52.0786 96.9318 51.0795 96.9318C50.476 96.9318 49.9836 96.8134 49.6024 96.5767C49.2213 96.3399 49.0105 95.9861 48.97 95.5154H50.3128C50.3475 95.6598 50.4038 95.7638 50.4817 95.8273C50.6146 95.9399 50.8384 95.9962 51.1531 95.9962C51.5978 95.9962 51.8952 95.8475 52.0454 95.5501C52.1436 95.3595 52.1927 95.039 52.1927 94.5885V94.2853C52.0743 94.4874 51.9472 94.639 51.8115 94.7401C51.566 94.9278 51.247 95.0217 50.8542 95.0217C50.2478 95.0217 49.7627 94.8094 49.3989 94.3849C49.0379 93.9576 48.8574 93.38 48.8574 92.6523C48.8574 91.9506 49.0321 91.3616 49.3815 90.8851C49.7309 90.4057 50.2262 90.1661 50.8672 90.1661ZM55.8398 89.7156H54.588V88.5764H55.8398V89.7156ZM54.588 90.2787H55.8398V95H54.588V90.2787ZM60.769 95H59.5345V88.6154H60.769V95ZM63.84 91.171C63.5541 91.171 63.3318 91.2605 63.1729 91.4395C63.017 91.6186 62.9188 91.8611 62.8784 92.1672H64.7973C64.777 91.8409 64.6774 91.594 64.4984 91.4265C64.3222 91.2562 64.1028 91.171 63.84 91.171ZM63.84 90.1531C64.2327 90.1531 64.5865 90.2267 64.9012 90.374C65.216 90.5213 65.4758 90.7537 65.6809 91.0714C65.8657 91.3515 65.9855 91.6763 66.0404 92.0459C66.0721 92.2625 66.0851 92.5744 66.0794 92.9815H62.8481C62.8654 93.4551 63.0141 93.7872 63.2942 93.9778C63.4646 94.0962 63.6696 94.1554 63.9093 94.1554C64.1634 94.1554 64.3699 94.0832 64.5287 93.9388C64.6153 93.8608 64.6919 93.7525 64.7583 93.6139H66.0187C65.987 93.894 65.8411 94.1785 65.5812 94.4672C65.177 94.9264 64.611 95.1559 63.8833 95.1559C63.2827 95.1559 62.7528 94.9625 62.2937 94.5755C61.8345 94.1886 61.605 93.5591 61.605 92.687C61.605 91.8698 61.8114 91.2432 62.2244 90.8071C62.6402 90.3711 63.1787 90.1531 63.84 90.1531ZM66.4302 91.2013V90.322H67.0886V89.0052H68.3101V90.322H69.0767V91.2013H68.3101V93.6962C68.3101 93.8897 68.3346 94.011 68.3837 94.0601C68.4328 94.1063 68.583 94.1294 68.8342 94.1294C68.8717 94.1294 68.9107 94.1294 68.9511 94.1294C68.9945 94.1265 69.0363 94.1236 69.0767 94.1207V95.0433L68.492 95.065C67.9087 95.0852 67.5102 94.9841 67.2965 94.7618C67.1579 94.6203 67.0886 94.4023 67.0886 94.1077V91.2013H66.4302ZM69.3843 91.2013V90.322H70.0427V89.0052H71.2641V90.322H72.0308V91.2013H71.2641V93.6962C71.2641 93.8897 71.2887 94.011 71.3378 94.0601C71.3869 94.1063 71.537 94.1294 71.7882 94.1294C71.8258 94.1294 71.8648 94.1294 71.9052 94.1294C71.9485 94.1265 71.9904 94.1236 72.0308 94.1207V95.0433L71.4461 95.065C70.8628 95.0852 70.4643 94.9841 70.2506 94.7618C70.112 94.6203 70.0427 94.4023 70.0427 94.1077V91.2013H69.3843ZM74.0536 90.2787V93.1245C74.0536 93.393 74.0854 93.5952 74.1489 93.7309C74.2615 93.9706 74.4824 94.0904 74.8116 94.0904C75.2332 94.0904 75.522 93.92 75.6779 93.5793C75.7588 93.3945 75.7992 93.1505 75.7992 92.8473V90.2787H77.051V95H75.8512V94.333C75.8396 94.3474 75.8107 94.3907 75.7645 94.4629C75.7183 94.5351 75.6635 94.5986 75.5999 94.6535C75.4065 94.8267 75.2188 94.9451 75.0369 95.0087C74.8578 95.0722 74.647 95.104 74.4045 95.104C73.7057 95.104 73.235 94.8527 72.9924 94.3503C72.8567 94.0731 72.7888 93.6645 72.7888 93.1245V90.2787H74.0536ZM80.8107 90.1661C80.8338 90.1661 80.8526 90.1675 80.867 90.1704C80.8843 90.1704 80.9204 90.1718 80.9753 90.1747V91.4395C80.8973 91.4309 80.828 91.4251 80.7674 91.4222C80.7068 91.4193 80.6577 91.4179 80.6201 91.4179C80.1235 91.4179 79.7899 91.5796 79.6196 91.903C79.5243 92.0849 79.4766 92.365 79.4766 92.7433V95H78.2335V90.2787H79.4116V91.1017C79.6022 90.7869 79.7683 90.5718 79.9098 90.4563C80.1408 90.2628 80.4411 90.1661 80.8107 90.1661ZM84.3062 92.7043C84.2282 92.7534 84.1488 92.7938 84.068 92.8256C83.99 92.8545 83.8817 92.8819 83.7431 92.9079L83.4659 92.9599C83.206 93.0061 83.0198 93.0624 82.9071 93.1288C82.7166 93.2414 82.6213 93.4161 82.6213 93.6529C82.6213 93.8637 82.679 94.0168 82.7945 94.112C82.9129 94.2045 83.0559 94.2507 83.2233 94.2507C83.489 94.2507 83.733 94.1727 83.9554 94.0168C84.1806 93.8608 84.2976 93.5764 84.3062 93.1635V92.7043ZM83.5569 92.1282C83.785 92.0994 83.9481 92.0633 84.0463 92.0199C84.2225 91.9449 84.3105 91.8279 84.3105 91.6691C84.3105 91.4756 84.2427 91.3428 84.107 91.2706C83.9741 91.1955 83.7778 91.158 83.5179 91.158C83.2262 91.158 83.0198 91.2302 82.8985 91.3746C82.8119 91.4814 82.7541 91.6258 82.7252 91.8077H81.5341C81.5601 91.3948 81.6756 91.0555 81.8806 90.7898C82.2069 90.374 82.7671 90.1661 83.5612 90.1661C84.0781 90.1661 84.5372 90.2686 84.9386 90.4736C85.34 90.6786 85.5407 91.0656 85.5407 91.6344V93.8002C85.5407 93.9503 85.5436 94.1323 85.5493 94.3459C85.558 94.5077 85.5826 94.6174 85.623 94.6751C85.6634 94.7329 85.724 94.7805 85.8049 94.8181V95H84.4621C84.4246 94.9047 84.3986 94.8152 84.3842 94.7314C84.3697 94.6477 84.3582 94.5524 84.3495 94.4456C84.1792 94.6304 83.9828 94.7878 83.7604 94.9177C83.4948 95.0707 83.1945 95.1473 82.8595 95.1473C82.4321 95.1473 82.0784 95.026 81.7983 94.7834C81.5211 94.538 81.3825 94.1915 81.3825 93.7439C81.3825 93.1635 81.6063 92.7433 82.0538 92.4834C82.2993 92.3419 82.6603 92.2409 83.1367 92.1802L83.5569 92.1282Z" fill="#333333"/>
<rect opacity="0.8" x="18.1444" y="109.277" width="180.189" height="20.5139" rx="10.2569" fill="white" fill-opacity="0.8" stroke="#E3E1E1" stroke-width="0.554429"/>
<path d="M27.3295 116.531H28.0837V121.435H30.9035V122.099H27.3295V116.531ZM33.2496 117.949C33.5376 117.949 33.8168 118.017 34.0872 118.153C34.3575 118.287 34.5635 118.461 34.7049 118.676C34.8414 118.881 34.9323 119.12 34.9778 119.393C35.0183 119.58 35.0385 119.878 35.0385 120.287H32.0633C32.0759 120.699 32.1732 121.03 32.3551 121.28C32.537 121.528 32.8188 121.651 33.2003 121.651C33.5566 121.651 33.8408 121.534 34.0531 121.299C34.1743 121.162 34.2602 121.005 34.3108 120.825H34.9816C34.9639 120.974 34.9046 121.141 34.8035 121.325C34.7049 121.507 34.5938 121.656 34.47 121.773C34.2628 121.975 34.0063 122.111 33.7006 122.182C33.5363 122.222 33.3506 122.243 33.1434 122.243C32.6381 122.243 32.2098 122.059 31.8586 121.693C31.5074 121.324 31.3318 120.809 31.3318 120.147C31.3318 119.495 31.5087 118.966 31.8624 118.559C32.2162 118.152 32.6785 117.949 33.2496 117.949ZM34.3373 119.745C34.3095 119.449 34.2451 119.213 34.144 119.036C33.957 118.708 33.645 118.544 33.2079 118.544C32.8946 118.544 32.6318 118.657 32.4196 118.885C32.2073 119.11 32.0949 119.396 32.0822 119.745H34.3373ZM36.0163 116.906H36.7061V118.039H37.3542V118.597H36.7061V121.246C36.7061 121.387 36.7541 121.482 36.8501 121.53C36.9032 121.558 36.9916 121.572 37.1154 121.572C37.1483 121.572 37.1836 121.572 37.2215 121.572C37.2594 121.569 37.3036 121.566 37.3542 121.56V122.099C37.2759 122.121 37.1937 122.138 37.1078 122.148C37.0245 122.158 36.9335 122.163 36.8349 122.163C36.5166 122.163 36.3006 122.082 36.1869 121.921C36.0732 121.756 36.0163 121.544 36.0163 121.284V118.597H35.4667V118.039H36.0163V116.906ZM38.1766 116.906H38.8664V118.039H39.5145V118.597H38.8664V121.246C38.8664 121.387 38.9144 121.482 39.0104 121.53C39.0635 121.558 39.1519 121.572 39.2757 121.572C39.3086 121.572 39.344 121.572 39.3819 121.572C39.4198 121.569 39.464 121.566 39.5145 121.56V122.099C39.4362 122.121 39.3541 122.138 39.2682 122.148C39.1848 122.158 39.0938 122.163 38.9953 122.163C38.6769 122.163 38.4609 122.082 38.3472 121.921C38.2335 121.756 38.1766 121.544 38.1766 121.284V118.597H37.6271V118.039H38.1766V116.906ZM40.8827 118.039V120.734C40.8827 120.941 40.9156 121.111 40.9813 121.242C41.1025 121.485 41.3287 121.606 41.6597 121.606C42.1347 121.606 42.4581 121.394 42.6299 120.969C42.7234 120.742 42.7702 120.43 42.7702 120.033V118.039H43.4524V122.099H42.8081L42.8156 121.5C42.7272 121.654 42.6173 121.784 42.4859 121.89C42.2256 122.102 41.9098 122.209 41.5384 122.209C40.9598 122.209 40.5656 122.015 40.3559 121.629C40.2422 121.421 40.1853 121.145 40.1853 120.799V118.039H40.8827ZM44.5401 118.039H45.1882V118.741C45.2413 118.604 45.3714 118.439 45.5786 118.244C45.7858 118.047 46.0245 117.949 46.2949 117.949C46.3075 117.949 46.329 117.95 46.3593 117.952C46.3896 117.955 46.4414 117.96 46.5147 117.967V118.688C46.4743 118.68 46.4364 118.675 46.401 118.672C46.3682 118.67 46.3315 118.669 46.2911 118.669C45.9475 118.669 45.6834 118.78 45.499 119.002C45.3145 119.222 45.2223 119.476 45.2223 119.764V122.099H44.5401V118.039ZM47.629 121.018C47.629 121.216 47.701 121.371 47.845 121.485C47.989 121.598 48.1596 121.655 48.3567 121.655C48.5967 121.655 48.8292 121.6 49.054 121.488C49.433 121.304 49.6225 121.002 49.6225 120.583V120.033C49.5392 120.086 49.4318 120.13 49.3004 120.166C49.169 120.201 49.0401 120.226 48.9138 120.242L48.5007 120.295C48.2531 120.327 48.0674 120.379 47.9436 120.45C47.7338 120.569 47.629 120.758 47.629 121.018ZM49.2814 119.639C49.4381 119.619 49.543 119.553 49.596 119.442C49.6263 119.381 49.6415 119.294 49.6415 119.18C49.6415 118.948 49.5581 118.78 49.3914 118.676C49.2271 118.57 48.9909 118.517 48.6826 118.517C48.3263 118.517 48.0737 118.613 47.9246 118.805C47.8412 118.911 47.7869 119.069 47.7616 119.279H47.1249C47.1375 118.779 47.2992 118.431 47.61 118.237C47.9233 118.039 48.2859 117.941 48.6978 117.941C49.1753 117.941 49.5632 118.032 49.8613 118.214C50.1569 118.396 50.3048 118.679 50.3048 119.063V121.401C50.3048 121.472 50.3186 121.529 50.3464 121.572C50.3768 121.615 50.4387 121.636 50.5322 121.636C50.5625 121.636 50.5966 121.635 50.6345 121.632C50.6724 121.627 50.7128 121.621 50.7558 121.614V122.118C50.6496 122.148 50.5688 122.167 50.5132 122.174C50.4576 122.182 50.3818 122.186 50.2858 122.186C50.0508 122.186 49.8803 122.102 49.7741 121.936C49.7186 121.847 49.6794 121.722 49.6567 121.56C49.5177 121.742 49.3181 121.9 49.0578 122.034C48.7976 122.168 48.5108 122.235 48.1975 122.235C47.821 122.235 47.5128 122.121 47.2727 121.894C47.0352 121.664 46.9165 121.377 46.9165 121.034C46.9165 120.657 47.0339 120.365 47.2689 120.158C47.5039 119.951 47.8122 119.823 48.1937 119.775L49.2814 119.639Z" fill="#9C9C9C"/>
<rect opacity="0.8" x="18.1444" y="139.216" width="180.189" height="20.5139" rx="10.2569" fill="white" fill-opacity="0.8" stroke="#E3E1E1" stroke-width="0.554429"/>
<path d="M29.4671 151.393C29.7223 151.393 29.932 151.367 30.0963 151.314C30.3894 151.215 30.6294 151.026 30.8164 150.745C30.9654 150.52 31.0728 150.232 31.1385 149.881C31.1764 149.671 31.1954 149.477 31.1954 149.297C31.1954 148.608 31.0577 148.072 30.7823 147.69C30.5094 147.309 30.0685 147.118 29.4595 147.118H28.1216V151.393H29.4671ZM27.3636 146.47H29.6187C30.3843 146.47 30.9781 146.742 31.4 147.285C31.7765 147.775 31.9647 148.403 31.9647 149.169C31.9647 149.76 31.8536 150.294 31.6312 150.772C31.2396 151.616 30.5662 152.038 29.6111 152.038H27.3636V146.47ZM33.3709 150.957C33.3709 151.155 33.4429 151.31 33.5869 151.424C33.7309 151.537 33.9015 151.594 34.0985 151.594C34.3386 151.594 34.571 151.539 34.7959 151.427C35.1749 151.243 35.3644 150.941 35.3644 150.522V149.972C35.281 150.025 35.1736 150.069 35.0423 150.105C34.9109 150.14 34.782 150.165 34.6557 150.18L34.2426 150.234C33.9949 150.266 33.8092 150.318 33.6854 150.389C33.4757 150.508 33.3709 150.697 33.3709 150.957ZM35.0233 149.578C35.18 149.558 35.2848 149.492 35.3379 149.381C35.3682 149.32 35.3834 149.233 35.3834 149.119C35.3834 148.887 35.3 148.719 35.1332 148.615C34.969 148.509 34.7327 148.456 34.4245 148.456C34.0682 148.456 33.8155 148.552 33.6665 148.744C33.5831 148.85 33.5288 149.008 33.5035 149.218H32.8668C32.8794 148.718 33.0411 148.37 33.3519 148.176C33.6652 147.978 34.0278 147.88 34.4396 147.88C34.9172 147.88 35.305 147.971 35.6032 148.153C35.8988 148.335 36.0466 148.618 36.0466 149.002V151.34C36.0466 151.411 36.0605 151.468 36.0883 151.511C36.1186 151.554 36.1805 151.575 36.274 151.575C36.3043 151.575 36.3385 151.574 36.3764 151.571C36.4143 151.566 36.4547 151.56 36.4976 151.552V152.057C36.3915 152.087 36.3107 152.106 36.2551 152.113C36.1995 152.121 36.1237 152.125 36.0277 152.125C35.7927 152.125 35.6221 152.041 35.516 151.875C35.4604 151.786 35.4213 151.661 35.3985 151.499C35.2596 151.681 35.0599 151.839 34.7997 151.973C34.5394 152.107 34.2527 152.174 33.9394 152.174C33.5629 152.174 33.2546 152.06 33.0146 151.833C32.7771 151.603 32.6583 151.316 32.6583 150.973C32.6583 150.596 32.7758 150.304 33.0108 150.097C33.2458 149.89 33.554 149.762 33.9356 149.714L35.0233 149.578ZM37.3049 146.845H37.9947V147.978H38.6428V148.536H37.9947V151.185C37.9947 151.326 38.0427 151.421 38.1387 151.469C38.1918 151.497 38.2802 151.511 38.404 151.511C38.4369 151.511 38.4722 151.511 38.5101 151.511C38.548 151.508 38.5923 151.504 38.6428 151.499V152.038C38.5645 152.06 38.4824 152.077 38.3964 152.087C38.3131 152.097 38.2221 152.102 38.1236 152.102C37.8052 152.102 37.5892 152.021 37.4755 151.859C37.3618 151.695 37.3049 151.483 37.3049 151.223V148.536H36.7554V147.978H37.3049V146.845ZM39.8518 150.957C39.8518 151.155 39.9238 151.31 40.0679 151.424C40.2119 151.537 40.3824 151.594 40.5795 151.594C40.8195 151.594 41.052 151.539 41.2769 151.427C41.6559 151.243 41.8454 150.941 41.8454 150.522V149.972C41.762 150.025 41.6546 150.069 41.5232 150.105C41.3918 150.14 41.263 150.165 41.1366 150.18L40.7235 150.234C40.4759 150.266 40.2902 150.318 40.1664 150.389C39.9567 150.508 39.8518 150.697 39.8518 150.957ZM41.5043 149.578C41.6609 149.558 41.7658 149.492 41.8189 149.381C41.8492 149.32 41.8643 149.233 41.8643 149.119C41.8643 148.887 41.781 148.719 41.6142 148.615C41.45 148.509 41.2137 148.456 40.9055 148.456C40.5492 148.456 40.2965 148.552 40.1474 148.744C40.0641 148.85 40.0097 149.008 39.9845 149.218H39.3477C39.3604 148.718 39.5221 148.37 39.8329 148.176C40.1462 147.978 40.5088 147.88 40.9206 147.88C41.3982 147.88 41.786 147.971 42.0842 148.153C42.3798 148.335 42.5276 148.618 42.5276 149.002V151.34C42.5276 151.411 42.5415 151.468 42.5693 151.511C42.5996 151.554 42.6615 151.575 42.755 151.575C42.7853 151.575 42.8194 151.574 42.8573 151.571C42.8952 151.566 42.9356 151.56 42.9786 151.552V152.057C42.8725 152.087 42.7916 152.106 42.736 152.113C42.6805 152.121 42.6047 152.125 42.5086 152.125C42.2737 152.125 42.1031 152.041 41.997 151.875C41.9414 151.786 41.9022 151.661 41.8795 151.499C41.7405 151.681 41.5409 151.839 41.2807 151.973C41.0204 152.107 40.7336 152.174 40.4203 152.174C40.0438 152.174 39.7356 152.06 39.4956 151.833C39.258 151.603 39.1393 151.316 39.1393 150.973C39.1393 150.596 39.2568 150.304 39.4918 150.097C39.7267 149.89 40.035 149.762 40.4165 149.714L41.5043 149.578Z" fill="#9C9C9C"/>
<g clip-path="url(#clip2_1_5328)">
<path d="M188.969 145.625H188.25V145.25C188.25 145.112 188.138 145 188 145C187.862 145 187.75 145.112 187.75 145.25V145.625H184.25V145.25C184.25 145.112 184.138 145 184 145C183.862 145 183.75 145.112 183.75 145.25V145.625H183.031C182.463 145.625 182 146.088 182 146.656V151.969C182 152.537 182.463 153 183.031 153H188.969C189.537 153 190 152.537 190 151.969V146.656C190 146.088 189.537 145.625 188.969 145.625ZM183.031 146.125H183.75V146.375C183.75 146.513 183.862 146.625 184 146.625C184.138 146.625 184.25 146.513 184.25 146.375V146.125H187.75V146.375C187.75 146.513 187.862 146.625 188 146.625C188.138 146.625 188.25 146.513 188.25 146.375V146.125H188.969C189.262 146.125 189.5 146.363 189.5 146.656V147.25H182.5V146.656C182.5 146.363 182.738 146.125 183.031 146.125ZM188.969 152.5H183.031C182.738 152.5 182.5 152.262 182.5 151.969V147.75H189.5V151.969C189.5 152.262 189.262 152.5 188.969 152.5Z" fill="#9C9C9C"/>
</g>
<rect opacity="0.8" x="18.1444" y="169.204" width="180.189" height="80.3922" rx="11.7228" fill="white" fill-opacity="0.8" stroke="#E3E1E1" stroke-width="0.554429"/>
<path d="M27.3295 176.458H28.2202L31.0324 180.968V176.458H31.7487V182.025H30.9035L28.0496 177.519V182.025H27.3295V176.458ZM34.4586 181.586C34.9109 181.586 35.2204 181.415 35.3872 181.074C35.5564 180.73 35.6411 180.349 35.6411 179.929C35.6411 179.55 35.5804 179.242 35.4592 179.004C35.2671 178.631 34.9361 178.444 34.4662 178.444C34.0493 178.444 33.7461 178.603 33.5566 178.921C33.3671 179.239 33.2723 179.624 33.2723 180.073C33.2723 180.505 33.3671 180.865 33.5566 181.153C33.7461 181.441 34.0467 181.586 34.4586 181.586ZM34.4851 177.849C35.0081 177.849 35.4503 178.023 35.8116 178.372C36.173 178.72 36.3536 179.233 36.3536 179.91C36.3536 180.565 36.1944 181.105 35.8761 181.532C35.5577 181.959 35.0637 182.173 34.3942 182.173C33.8358 182.173 33.3923 181.985 33.0639 181.608C32.7354 181.229 32.5712 180.721 32.5712 180.085C32.5712 179.402 32.7442 178.859 33.0904 178.455C33.4365 178.051 33.9015 177.849 34.4851 177.849ZM37.3049 176.833H37.9947V177.966H38.6428V178.523H37.9947V181.172C37.9947 181.314 38.0427 181.409 38.1387 181.457C38.1918 181.484 38.2802 181.498 38.404 181.498C38.4369 181.498 38.4722 181.498 38.5101 181.498C38.548 181.496 38.5923 181.492 38.6428 181.487V182.025C38.5645 182.048 38.4824 182.064 38.3964 182.074C38.3131 182.085 38.2221 182.09 38.1236 182.09C37.8052 182.09 37.5892 182.009 37.4755 181.847C37.3618 181.683 37.3049 181.471 37.3049 181.21V178.523H36.7554V177.966H37.3049V176.833ZM41.0192 177.875C41.3072 177.875 41.5864 177.943 41.8568 178.08C42.1271 178.214 42.333 178.388 42.4745 178.603C42.611 178.807 42.7019 179.046 42.7474 179.319C42.7878 179.506 42.8081 179.804 42.8081 180.214H39.8329C39.8455 180.625 39.9428 180.956 40.1247 181.206C40.3066 181.454 40.5884 181.578 40.9699 181.578C41.3261 181.578 41.6104 181.46 41.8226 181.225C41.9439 181.089 42.0298 180.931 42.0804 180.752H42.7512C42.7335 180.901 42.6741 181.068 42.5731 181.252C42.4745 181.434 42.3634 181.583 42.2395 181.699C42.0324 181.901 41.7759 182.038 41.4702 182.109C41.3059 182.149 41.1202 182.169 40.913 182.169C40.4077 182.169 39.9794 181.986 39.6282 181.62C39.277 181.251 39.1014 180.735 39.1014 180.073C39.1014 179.421 39.2783 178.892 39.632 178.485C39.9857 178.078 40.4481 177.875 41.0192 177.875ZM42.1069 179.672C42.0791 179.376 42.0147 179.14 41.9136 178.963C41.7266 178.634 41.4146 178.47 40.9775 178.47C40.6642 178.47 40.4014 178.584 40.1891 178.811C39.9769 179.036 39.8645 179.323 39.8518 179.672H42.1069ZM44.055 180.752C44.0752 180.979 44.132 181.153 44.2255 181.275C44.3973 181.495 44.6955 181.604 45.12 181.604C45.3726 181.604 45.595 181.55 45.787 181.441C45.9791 181.33 46.0751 181.16 46.0751 180.93C46.0751 180.755 45.998 180.623 45.8439 180.532C45.7453 180.476 45.5508 180.412 45.2602 180.339L44.7182 180.202C44.3721 180.116 44.1169 180.02 43.9526 179.914C43.6595 179.73 43.513 179.474 43.513 179.149C43.513 178.764 43.6507 178.454 43.9261 178.216C44.204 177.979 44.5767 177.86 45.0442 177.86C45.6556 177.86 46.0965 178.039 46.3669 178.398C46.5362 178.625 46.6183 178.871 46.6133 179.133H45.9689C45.9563 178.979 45.902 178.839 45.806 178.713C45.6493 178.533 45.3777 178.444 44.9911 178.444C44.7334 178.444 44.5376 178.493 44.4037 178.591C44.2723 178.69 44.2066 178.82 44.2066 178.982C44.2066 179.159 44.2937 179.3 44.4681 179.406C44.5692 179.469 44.7182 179.525 44.9153 179.573L45.3663 179.683C45.8565 179.802 46.185 179.917 46.3517 180.028C46.617 180.202 46.7497 180.476 46.7497 180.85C46.7497 181.212 46.612 181.524 46.3366 181.786C46.0637 182.049 45.6468 182.181 45.0859 182.181C44.482 182.181 44.0537 182.044 43.801 181.771C43.5509 181.496 43.417 181.156 43.3993 180.752H44.055Z" fill="#9C9C9C"/>
<rect x="68" y="262" width="80.2454" height="24.4151" rx="12.2076" fill="#3972B9"/>
<path d="M89.8506 271.208V277.208M86.8506 274.208H92.8506" stroke="white"/>
<path d="M99.2112 271.242H100.027V277.208H99.2112V271.242ZM101.246 272.859H101.94V273.476C102.146 273.221 102.364 273.039 102.594 272.928C102.824 272.817 103.08 272.761 103.361 272.761C103.979 272.761 104.395 272.976 104.612 273.407C104.731 273.642 104.791 273.979 104.791 274.418V277.208H104.048V274.467C104.048 274.201 104.008 273.987 103.93 273.825C103.8 273.554 103.564 273.419 103.223 273.419C103.05 273.419 102.908 273.436 102.797 273.472C102.597 273.531 102.421 273.65 102.269 273.829C102.147 273.973 102.067 274.121 102.029 274.276C101.994 274.427 101.977 274.645 101.977 274.929V277.208H101.246V272.859ZM106.309 275.843C106.331 276.087 106.392 276.274 106.492 276.404C106.676 276.639 106.996 276.757 107.451 276.757C107.721 276.757 107.959 276.699 108.165 276.582C108.371 276.463 108.474 276.28 108.474 276.034C108.474 275.847 108.391 275.705 108.226 275.608C108.121 275.548 107.912 275.479 107.601 275.401L107.02 275.254C106.649 275.162 106.376 275.059 106.2 274.946C105.886 274.748 105.729 274.475 105.729 274.125C105.729 273.714 105.876 273.381 106.171 273.127C106.469 272.872 106.868 272.745 107.369 272.745C108.024 272.745 108.497 272.937 108.786 273.321C108.968 273.565 109.056 273.828 109.05 274.109H108.36C108.347 273.944 108.288 273.794 108.186 273.658C108.018 273.466 107.727 273.37 107.312 273.37C107.036 273.37 106.827 273.423 106.683 273.529C106.542 273.634 106.472 273.774 106.472 273.947C106.472 274.136 106.565 274.288 106.752 274.402C106.86 274.469 107.02 274.529 107.231 274.58L107.714 274.698C108.24 274.825 108.592 274.948 108.77 275.068C109.055 275.254 109.197 275.548 109.197 275.949C109.197 276.336 109.049 276.67 108.754 276.952C108.462 277.233 108.015 277.374 107.414 277.374C106.767 277.374 106.308 277.228 106.037 276.936C105.769 276.64 105.626 276.276 105.607 275.843H106.309ZM111.844 272.761C112.153 272.761 112.452 272.834 112.742 272.98C113.031 273.124 113.252 273.311 113.404 273.541C113.55 273.76 113.647 274.016 113.696 274.308C113.739 274.509 113.761 274.828 113.761 275.267H110.573C110.587 275.708 110.691 276.062 110.886 276.33C111.081 276.596 111.383 276.728 111.791 276.728C112.173 276.728 112.478 276.603 112.705 276.351C112.835 276.205 112.927 276.035 112.981 275.843H113.7C113.681 276.003 113.617 276.182 113.509 276.379C113.404 276.574 113.284 276.734 113.152 276.858C112.93 277.075 112.655 277.221 112.327 277.297C112.152 277.34 111.953 277.362 111.731 277.362C111.189 277.362 110.73 277.166 110.354 276.773C109.978 276.378 109.79 275.826 109.79 275.116C109.79 274.418 109.979 273.851 110.358 273.415C110.737 272.979 111.232 272.761 111.844 272.761ZM113.01 274.686C112.98 274.369 112.911 274.116 112.803 273.926C112.602 273.575 112.268 273.399 111.8 273.399C111.464 273.399 111.182 273.52 110.955 273.764C110.728 274.005 110.607 274.312 110.594 274.686H113.01ZM114.683 272.859H115.377V273.61C115.434 273.464 115.573 273.286 115.795 273.078C116.017 272.867 116.273 272.761 116.563 272.761C116.576 272.761 116.599 272.762 116.632 272.765C116.664 272.768 116.72 272.773 116.798 272.781V273.553C116.755 273.545 116.714 273.539 116.677 273.537C116.641 273.534 116.602 273.533 116.559 273.533C116.191 273.533 115.908 273.652 115.71 273.89C115.512 274.125 115.414 274.398 115.414 274.706V277.208H114.683V272.859ZM117.432 272.879H118.175V277.208H117.432V272.879ZM117.432 271.242H118.175V272.071H117.432V271.242ZM119.718 275.843C119.74 276.087 119.801 276.274 119.901 276.404C120.085 276.639 120.404 276.757 120.859 276.757C121.13 276.757 121.368 276.699 121.574 276.582C121.78 276.463 121.882 276.28 121.882 276.034C121.882 275.847 121.8 275.705 121.635 275.608C121.529 275.548 121.321 275.479 121.009 275.401L120.429 275.254C120.058 275.162 119.784 275.059 119.608 274.946C119.294 274.748 119.137 274.475 119.137 274.125C119.137 273.714 119.285 273.381 119.58 273.127C119.878 272.872 120.277 272.745 120.778 272.745C121.433 272.745 121.905 272.937 122.195 273.321C122.376 273.565 122.464 273.828 122.459 274.109H121.769C121.755 273.944 121.697 273.794 121.594 273.658C121.426 273.466 121.135 273.37 120.721 273.37C120.445 273.37 120.235 273.423 120.092 273.529C119.951 273.634 119.88 273.774 119.88 273.947C119.88 274.136 119.974 274.288 120.161 274.402C120.269 274.469 120.429 274.529 120.64 274.58L121.123 274.698C121.648 274.825 122 274.948 122.179 275.068C122.463 275.254 122.605 275.548 122.605 275.949C122.605 276.336 122.458 276.67 122.163 276.952C121.87 277.233 121.424 277.374 120.823 277.374C120.176 277.374 119.717 277.228 119.446 276.936C119.178 276.64 119.034 276.276 119.016 275.843H119.718ZM125.119 272.733C125.609 272.733 126.007 272.852 126.313 273.09C126.621 273.328 126.807 273.738 126.869 274.32H126.158C126.115 274.052 126.016 273.83 125.862 273.654C125.708 273.476 125.46 273.386 125.119 273.386C124.653 273.386 124.32 273.614 124.12 274.069C123.99 274.364 123.925 274.728 123.925 275.161C123.925 275.597 124.017 275.964 124.201 276.261C124.385 276.559 124.675 276.708 125.07 276.708C125.373 276.708 125.613 276.616 125.789 276.432C125.968 276.245 126.091 275.991 126.158 275.669H126.869C126.788 276.245 126.585 276.667 126.26 276.936C125.935 277.201 125.52 277.333 125.013 277.333C124.445 277.333 123.991 277.126 123.653 276.712C123.315 276.295 123.145 275.775 123.145 275.153C123.145 274.389 123.331 273.795 123.702 273.37C124.073 272.945 124.545 272.733 125.119 272.733ZM127.6 272.879H128.343V277.208H127.6V272.879ZM127.6 271.242H128.343V272.071H127.6V271.242Z" fill="white"/>
<rect x="9" y="314" width="198" height="270" rx="13.3063" fill="#F7F7F7"/>
<path d="M18.3985 330.86C18.3985 329.745 18.6974 328.886 19.2951 328.282C19.8149 327.757 20.4762 327.494 21.2789 327.494C22.3531 327.494 23.1386 327.846 23.6352 328.551C23.9096 328.947 24.0568 329.344 24.0771 329.742H22.743C22.6563 329.436 22.5452 329.205 22.4094 329.049C22.1669 328.772 21.8074 328.633 21.3309 328.633C20.8458 328.633 20.4632 328.83 20.1831 329.222C19.903 329.612 19.7629 330.165 19.7629 330.881C19.7629 331.597 19.9102 332.135 20.2047 332.493C20.5021 332.848 20.879 333.025 21.3352 333.025C21.803 333.025 22.1597 332.872 22.4051 332.566C22.5408 332.402 22.6534 332.155 22.743 331.826H24.0641C23.9486 332.522 23.6526 333.088 23.1761 333.524C22.7025 333.96 22.0947 334.178 21.3526 334.178C20.4343 334.178 19.7124 333.883 19.1868 333.294C18.6613 332.702 18.3985 331.891 18.3985 330.86ZM27.1048 333.129C27.4657 333.129 27.7429 333.001 27.9364 332.744C28.1299 332.487 28.2266 332.122 28.2266 331.648C28.2266 331.174 28.1299 330.811 27.9364 330.556C27.7429 330.299 27.4657 330.171 27.1048 330.171C26.7438 330.171 26.4651 330.299 26.2688 330.556C26.0753 330.811 25.9786 331.174 25.9786 331.648C25.9786 332.122 26.0753 332.487 26.2688 332.744C26.4651 333.001 26.7438 333.129 27.1048 333.129ZM29.5217 331.648C29.5217 332.341 29.3225 332.934 28.924 333.428C28.5255 333.919 27.9205 334.165 27.1091 334.165C26.2977 334.165 25.6927 333.919 25.2942 333.428C24.8957 332.934 24.6965 332.341 24.6965 331.648C24.6965 330.967 24.8957 330.376 25.2942 329.876C25.6927 329.377 26.2977 329.127 27.1091 329.127C27.9205 329.127 28.5255 329.377 28.924 329.876C29.3225 330.376 29.5217 330.967 29.5217 331.648ZM33.0259 329.166C33.5139 329.166 33.9124 329.295 34.2214 329.552C34.5332 329.806 34.6892 330.229 34.6892 330.821V334H33.4244V331.128C33.4244 330.88 33.3912 330.689 33.3248 330.556C33.2035 330.314 32.9725 330.193 32.6317 330.193C32.213 330.193 31.9257 330.37 31.7698 330.725C31.6889 330.913 31.6485 331.153 31.6485 331.444V334H30.4183V329.287H31.6095V329.976C31.7683 329.733 31.9185 329.559 32.06 329.452C32.3141 329.261 32.6361 329.166 33.0259 329.166ZM36.7943 332.493C36.8203 332.712 36.8766 332.868 36.9632 332.96C37.1162 333.125 37.3992 333.207 37.8122 333.207C38.0547 333.207 38.2468 333.171 38.3883 333.099C38.5326 333.027 38.6048 332.919 38.6048 332.774C38.6048 332.636 38.5471 332.53 38.4316 332.458C38.3161 332.386 37.8872 332.262 37.1451 332.085C36.6109 331.953 36.2341 331.787 36.0146 331.587C35.7951 331.391 35.6854 331.108 35.6854 330.738C35.6854 330.302 35.8558 329.928 36.1965 329.617C36.5402 329.302 37.0224 329.144 37.6432 329.144C38.2323 329.144 38.7117 329.263 39.0813 329.5C39.4538 329.733 39.6675 330.139 39.7223 330.717H38.4879C38.4705 330.558 38.4258 330.432 38.3536 330.34C38.2179 330.172 37.9869 330.089 37.6606 330.089C37.392 330.089 37.2 330.131 37.0845 330.214C36.9719 330.298 36.9156 330.396 36.9156 330.509C36.9156 330.65 36.9762 330.753 37.0975 330.816C37.2188 330.883 37.6476 330.997 38.3839 331.159C38.8748 331.274 39.243 331.449 39.4884 331.683C39.731 331.919 39.8523 332.215 39.8523 332.571C39.8523 333.038 39.6776 333.421 39.3282 333.718C38.9817 334.013 38.4446 334.16 37.7169 334.16C36.9747 334.16 36.4261 334.004 36.0709 333.692C35.7186 333.378 35.5425 332.978 35.5425 332.493H36.7943ZM42.0007 329.279V332.124C42.0007 332.393 42.0325 332.595 42.096 332.731C42.2086 332.971 42.4295 333.09 42.7587 333.09C43.1803 333.09 43.4691 332.92 43.625 332.579C43.7059 332.394 43.7463 332.15 43.7463 331.847V329.279H44.9981V334H43.7983V333.333C43.7867 333.347 43.7578 333.391 43.7116 333.463C43.6654 333.535 43.6106 333.599 43.547 333.653C43.3536 333.827 43.1659 333.945 42.9839 334.009C42.8049 334.072 42.5941 334.104 42.3515 334.104C41.6527 334.104 41.1821 333.853 40.9395 333.35C40.8038 333.073 40.7359 332.664 40.7359 332.124V329.279H42.0007ZM51.4693 329.175C51.6772 329.175 51.8822 329.215 52.0844 329.296C52.2865 329.377 52.4699 329.518 52.6345 329.721C52.7673 329.885 52.8568 330.087 52.903 330.327C52.9319 330.486 52.9463 330.718 52.9463 331.024L52.9377 334H51.6729V330.994C51.6729 330.815 51.644 330.668 51.5863 330.552C51.4765 330.333 51.2744 330.223 50.9798 330.223C50.6391 330.223 50.4038 330.364 50.2738 330.647C50.2074 330.798 50.1742 330.978 50.1742 331.189V334H48.9311V331.189C48.9311 330.909 48.9022 330.705 48.8444 330.578C48.7405 330.35 48.5369 330.236 48.2337 330.236C47.8814 330.236 47.6446 330.35 47.5233 330.578C47.4569 330.708 47.4237 330.902 47.4237 331.159V334H46.1719V329.287H47.3717V329.976C47.5248 329.731 47.6692 329.556 47.8049 329.452C48.0446 329.267 48.355 329.175 48.7361 329.175C49.0971 329.175 49.3888 329.254 49.6111 329.413C49.7901 329.56 49.9259 329.749 50.0183 329.98C50.18 329.703 50.3807 329.5 50.6203 329.37C50.8744 329.24 51.1574 329.175 51.4693 329.175ZM56.2036 333.129C56.5646 333.129 56.8418 333.001 57.0353 332.744C57.2287 332.487 57.3255 332.122 57.3255 331.648C57.3255 331.174 57.2287 330.811 57.0353 330.556C56.8418 330.299 56.5646 330.171 56.2036 330.171C55.8427 330.171 55.564 330.299 55.3676 330.556C55.1742 330.811 55.0774 331.174 55.0774 331.648C55.0774 332.122 55.1742 332.487 55.3676 332.744C55.564 333.001 55.8427 333.129 56.2036 333.129ZM58.6206 331.648C58.6206 332.341 58.4213 332.934 58.0228 333.428C57.6243 333.919 57.0194 334.165 56.2079 334.165C55.3965 334.165 54.7915 333.919 54.3931 333.428C53.9946 332.934 53.7953 332.341 53.7953 331.648C53.7953 330.967 53.9946 330.376 54.3931 329.876C54.7915 329.377 55.3965 329.127 56.2079 329.127C57.0194 329.127 57.6243 329.377 58.0228 329.876C58.4213 330.376 58.6206 330.967 58.6206 331.648ZM64.0046 332.986C64.2934 332.986 64.5374 332.878 64.7366 332.662C64.9359 332.442 65.0355 332.094 65.0355 331.618C65.0355 331.17 64.9402 330.829 64.7496 330.595C64.5619 330.362 64.3092 330.245 63.9916 330.245C63.5584 330.245 63.2596 330.448 63.095 330.855C63.0084 331.072 62.965 331.339 62.965 331.657C62.965 331.931 63.0112 332.175 63.1036 332.389C63.2711 332.787 63.5714 332.986 64.0046 332.986ZM63.6971 329.166C63.9338 329.166 64.1403 329.202 64.3165 329.274C64.6168 329.399 64.8593 329.627 65.0441 329.959V329.279H66.244V333.757C66.244 334.367 66.1415 334.826 65.9364 335.135C65.5841 335.666 64.9084 335.932 63.9093 335.932C63.3058 335.932 62.8134 335.813 62.4323 335.577C62.0511 335.34 61.8403 334.986 61.7999 334.515H63.1426C63.1773 334.66 63.2336 334.764 63.3116 334.827C63.4444 334.94 63.6682 334.996 63.9829 334.996C64.4276 334.996 64.7251 334.848 64.8752 334.55C64.9734 334.36 65.0225 334.039 65.0225 333.589V333.285C64.9041 333.487 64.777 333.639 64.6413 333.74C64.3959 333.928 64.0768 334.022 63.6841 334.022C63.0777 334.022 62.5925 333.809 62.2287 333.385C61.8677 332.958 61.6873 332.38 61.6873 331.652C61.6873 330.951 61.862 330.362 62.2114 329.885C62.5608 329.406 63.056 329.166 63.6971 329.166ZM68.6696 328.716H67.4178V327.576H68.6696V328.716ZM67.4178 329.279H68.6696V334H67.4178V329.279ZM71.9875 333.129C72.3485 333.129 72.6257 333.001 72.8191 332.744C73.0126 332.487 73.1093 332.122 73.1093 331.648C73.1093 331.174 73.0126 330.811 72.8191 330.556C72.6257 330.299 72.3485 330.171 71.9875 330.171C71.6265 330.171 71.3479 330.299 71.1515 330.556C70.958 330.811 70.8613 331.174 70.8613 331.648C70.8613 332.122 70.958 332.487 71.1515 332.744C71.3479 333.001 71.6265 333.129 71.9875 333.129ZM74.4045 331.648C74.4045 332.341 74.2052 332.934 73.8067 333.428C73.4082 333.919 72.8033 334.165 71.9918 334.165C71.1804 334.165 70.5754 333.919 70.1769 333.428C69.7784 332.934 69.5792 332.341 69.5792 331.648C69.5792 330.967 69.7784 330.376 70.1769 329.876C70.5754 329.377 71.1804 329.127 71.9918 329.127C72.8033 329.127 73.4082 329.377 73.8067 329.876C74.2052 330.376 74.4045 330.967 74.4045 331.648ZM77.8566 329.166C77.8797 329.166 77.8985 329.168 77.913 329.17C77.9303 329.17 77.9664 329.172 78.0212 329.175V330.44C77.9433 330.431 77.874 330.425 77.8133 330.422C77.7527 330.419 77.7036 330.418 77.6661 330.418C77.1694 330.418 76.8359 330.58 76.6655 330.903C76.5702 331.085 76.5226 331.365 76.5226 331.743V334H75.2794V329.279H76.4576V330.102C76.6482 329.787 76.8142 329.572 76.9557 329.456C77.1867 329.263 77.487 329.166 77.8566 329.166ZM81.3651 329.166C81.8532 329.166 82.2516 329.295 82.5606 329.552C82.8725 329.806 83.0284 330.229 83.0284 330.821V334H81.7636V331.128C81.7636 330.88 81.7304 330.689 81.664 330.556C81.5427 330.314 81.3117 330.193 80.971 330.193C80.5523 330.193 80.2649 330.37 80.109 330.725C80.0282 330.913 79.9877 331.153 79.9877 331.444V334H78.7576V329.287H79.9487V329.976C80.1076 329.733 80.2577 329.559 80.3992 329.452C80.6533 329.261 80.9753 329.166 81.3651 329.166ZM86.7752 331.704C86.6972 331.753 86.6178 331.794 86.5369 331.826C86.459 331.854 86.3507 331.882 86.2121 331.908L85.9348 331.96C85.675 332.006 85.4887 332.062 85.3761 332.129C85.1855 332.241 85.0902 332.416 85.0902 332.653C85.0902 332.864 85.148 333.017 85.2635 333.112C85.3819 333.204 85.5248 333.251 85.6923 333.251C85.9579 333.251 86.202 333.173 86.4243 333.017C86.6495 332.861 86.7665 332.576 86.7752 332.163V331.704ZM86.0258 331.128C86.2539 331.099 86.4171 331.063 86.5153 331.02C86.6914 330.945 86.7795 330.828 86.7795 330.669C86.7795 330.476 86.7116 330.343 86.5759 330.271C86.4431 330.196 86.2467 330.158 85.9868 330.158C85.6952 330.158 85.4887 330.23 85.3674 330.375C85.2808 330.481 85.223 330.626 85.1942 330.808H84.003C84.029 330.395 84.1445 330.055 84.3495 329.79C84.6758 329.374 85.236 329.166 86.0301 329.166C86.547 329.166 87.0062 329.269 87.4075 329.474C87.8089 329.679 88.0096 330.066 88.0096 330.634V332.8C88.0096 332.95 88.0125 333.132 88.0183 333.346C88.0269 333.508 88.0515 333.617 88.0919 333.675C88.1323 333.733 88.193 333.781 88.2738 333.818V334H86.9311C86.8935 333.905 86.8676 333.815 86.8531 333.731C86.8387 333.648 86.8271 333.552 86.8185 333.446C86.6481 333.63 86.4517 333.788 86.2294 333.918C85.9637 334.071 85.6634 334.147 85.3284 334.147C84.9011 334.147 84.5473 334.026 84.2672 333.783C83.99 333.538 83.8514 333.191 83.8514 332.744C83.8514 332.163 84.0752 331.743 84.5228 331.483C84.7682 331.342 85.1292 331.241 85.6057 331.18L86.0258 331.128ZM90.3703 334H89.1358V327.615H90.3703V334ZM92.8479 328.716H91.5961V327.576H92.8479V328.716ZM91.5961 329.279H92.8479V334H91.5961V329.279ZM95.9102 330.171C95.6244 330.171 95.402 330.26 95.2432 330.44C95.0873 330.619 94.9891 330.861 94.9486 331.167H96.8675C96.8473 330.841 96.7476 330.594 96.5686 330.427C96.3925 330.256 96.173 330.171 95.9102 330.171ZM95.9102 329.153C96.303 329.153 96.6567 329.227 96.9714 329.374C97.2862 329.521 97.5461 329.754 97.7511 330.071C97.9359 330.351 98.0558 330.676 98.1106 331.046C98.1424 331.263 98.1554 331.574 98.1496 331.982H94.9183C94.9356 332.455 95.0844 332.787 95.3645 332.978C95.5348 333.096 95.7399 333.155 95.9795 333.155C96.2336 333.155 96.4401 333.083 96.5989 332.939C96.6856 332.861 96.7621 332.753 96.8285 332.614H98.089C98.0572 332.894 97.9114 333.178 97.6515 333.467C97.2472 333.926 96.6812 334.156 95.9535 334.156C95.3529 334.156 94.823 333.962 94.3639 333.576C93.9048 333.189 93.6752 332.559 93.6752 331.687C93.6752 330.87 93.8817 330.243 94.2946 329.807C94.7104 329.371 95.249 329.153 95.9102 329.153ZM101.55 329.166C101.573 329.166 101.592 329.168 101.606 329.17C101.623 329.17 101.66 329.172 101.714 329.175V330.44C101.636 330.431 101.567 330.425 101.506 330.422C101.446 330.419 101.397 330.418 101.359 330.418C100.863 330.418 100.529 330.58 100.359 330.903C100.263 331.085 100.216 331.365 100.216 331.743V334H98.9726V329.279H100.151V330.102C100.341 329.787 100.507 329.572 100.649 329.456C100.88 329.263 101.18 329.166 101.55 329.166ZM104.56 333.129C104.921 333.129 105.198 333.001 105.392 332.744C105.585 332.487 105.682 332.122 105.682 331.648C105.682 331.174 105.585 330.811 105.392 330.556C105.198 330.299 104.921 330.171 104.56 330.171C104.199 330.171 103.921 330.299 103.724 330.556C103.531 330.811 103.434 331.174 103.434 331.648C103.434 332.122 103.531 332.487 103.724 332.744C103.921 333.001 104.199 333.129 104.56 333.129ZM106.977 331.648C106.977 332.341 106.778 332.934 106.379 333.428C105.981 333.919 105.376 334.165 104.565 334.165C103.753 334.165 103.148 333.919 102.75 333.428C102.351 332.934 102.152 332.341 102.152 331.648C102.152 330.967 102.351 330.376 102.75 329.876C103.148 329.377 103.753 329.127 104.565 329.127C105.376 329.127 105.981 329.377 106.379 329.876C106.778 330.376 106.977 330.967 106.977 331.648ZM110.65 329.227C110.878 328.695 111.212 328.124 111.651 327.511H112.582L112.318 327.997C111.954 328.664 111.701 329.362 111.56 330.093C111.467 330.572 111.421 331.095 111.421 331.661C111.421 332.545 111.55 333.357 111.807 334.1C111.957 334.539 112.223 335.102 112.604 335.789H111.69L111.382 335.369C111.183 335.115 110.971 334.736 110.746 334.234C110.344 333.336 110.143 332.452 110.143 331.583C110.143 330.792 110.312 330.006 110.65 329.227ZM118.564 329.175C118.772 329.175 118.977 329.215 119.179 329.296C119.381 329.377 119.564 329.518 119.729 329.721C119.862 329.885 119.951 330.087 119.998 330.327C120.026 330.486 120.041 330.718 120.041 331.024L120.032 334H118.767V330.994C118.767 330.815 118.739 330.668 118.681 330.552C118.571 330.333 118.369 330.223 118.074 330.223C117.734 330.223 117.498 330.364 117.368 330.647C117.302 330.798 117.269 330.978 117.269 331.189V334H116.026V331.189C116.026 330.909 115.997 330.705 115.939 330.578C115.835 330.35 115.631 330.236 115.328 330.236C114.976 330.236 114.739 330.35 114.618 330.578C114.551 330.708 114.518 330.902 114.518 331.159V334H113.266V329.287H114.466V329.976C114.619 329.731 114.764 329.556 114.899 329.452C115.139 329.267 115.45 329.175 115.831 329.175C116.192 329.175 116.483 329.254 116.706 329.413C116.885 329.56 117.02 329.749 117.113 329.98C117.275 329.703 117.475 329.5 117.715 329.37C117.969 329.24 118.252 329.175 118.564 329.175ZM124 330.972C123.977 330.796 123.918 330.637 123.822 330.496C123.684 330.305 123.469 330.21 123.177 330.21C122.761 330.21 122.477 330.416 122.324 330.829C122.243 331.049 122.202 331.34 122.202 331.704C122.202 332.051 122.243 332.329 122.324 332.54C122.471 332.933 122.748 333.129 123.155 333.129C123.444 333.129 123.649 333.051 123.77 332.895C123.892 332.74 123.965 332.537 123.991 332.289H125.252C125.223 332.664 125.087 333.02 124.844 333.355C124.458 333.895 123.884 334.165 123.125 334.165C122.365 334.165 121.807 333.939 121.449 333.489C121.091 333.038 120.912 332.454 120.912 331.735C120.912 330.923 121.109 330.292 121.505 329.842C121.901 329.391 122.446 329.166 123.142 329.166C123.734 329.166 124.218 329.299 124.593 329.565C124.972 329.83 125.195 330.299 125.265 330.972H124ZM127.53 327.42H128.557L126.075 334H125.057L127.53 327.42ZM130.614 332.986C130.903 332.986 131.147 332.878 131.346 332.662C131.545 332.442 131.645 332.094 131.645 331.618C131.645 331.17 131.55 330.829 131.359 330.595C131.171 330.362 130.919 330.245 130.601 330.245C130.168 330.245 129.869 330.448 129.704 330.855C129.618 331.072 129.574 331.339 129.574 331.657C129.574 331.931 129.621 332.175 129.713 332.389C129.881 332.787 130.181 332.986 130.614 332.986ZM130.306 329.166C130.543 329.166 130.75 329.202 130.926 329.274C131.226 329.399 131.469 329.627 131.654 329.959V329.279H132.853V333.757C132.853 334.367 132.751 334.826 132.546 335.135C132.194 335.666 131.518 335.932 130.519 335.932C129.915 335.932 129.423 335.813 129.042 335.577C128.661 335.34 128.45 334.986 128.409 334.515H129.752C129.787 334.66 129.843 334.764 129.921 334.827C130.054 334.94 130.278 334.996 130.592 334.996C131.037 334.996 131.334 334.848 131.485 334.55C131.583 334.36 131.632 334.039 131.632 333.589V333.285C131.514 333.487 131.386 333.639 131.251 333.74C131.005 333.928 130.686 334.022 130.293 334.022C129.687 334.022 129.202 333.809 128.838 333.385C128.477 332.958 128.297 332.38 128.297 331.652C128.297 330.951 128.471 330.362 128.821 329.885C129.17 329.406 129.665 329.166 130.306 329.166ZM134.478 327.511C134.917 328.124 135.25 328.695 135.478 329.227C135.816 330.006 135.985 330.792 135.985 331.583C135.985 332.452 135.784 333.336 135.383 334.234C135.158 334.736 134.945 335.115 134.746 335.369L134.439 335.789H133.525C133.906 335.102 134.172 334.539 134.322 334.1C134.579 333.357 134.707 332.545 134.707 331.661C134.707 331.095 134.661 330.572 134.569 330.093C134.427 329.362 134.174 328.664 133.811 327.997L133.546 327.511H134.478Z" fill="#333333"/>
<rect opacity="0.8" x="18.1444" y="378.216" width="180.189" height="20.5139" rx="10.2569" fill="white" fill-opacity="0.8" stroke="#E3E1E1" stroke-width="0.554429"/>
<path d="M29.4671 390.393C29.7223 390.393 29.932 390.367 30.0963 390.314C30.3894 390.215 30.6294 390.026 30.8164 389.745C30.9654 389.52 31.0728 389.232 31.1385 388.881C31.1764 388.671 31.1954 388.477 31.1954 388.297C31.1954 387.608 31.0577 387.072 30.7823 386.69C30.5094 386.309 30.0685 386.118 29.4595 386.118H28.1216V390.393H29.4671ZM27.3636 385.47H29.6187C30.3843 385.47 30.9781 385.742 31.4 386.285C31.7765 386.775 31.9647 387.403 31.9647 388.169C31.9647 388.76 31.8536 389.294 31.6312 389.772C31.2396 390.616 30.5662 391.038 29.6111 391.038H27.3636V385.47ZM33.3709 389.957C33.3709 390.155 33.4429 390.31 33.5869 390.424C33.7309 390.537 33.9015 390.594 34.0985 390.594C34.3386 390.594 34.571 390.539 34.7959 390.427C35.1749 390.243 35.3644 389.941 35.3644 389.522V388.972C35.281 389.025 35.1736 389.069 35.0423 389.105C34.9109 389.14 34.782 389.165 34.6557 389.18L34.2426 389.234C33.9949 389.266 33.8092 389.318 33.6854 389.389C33.4757 389.508 33.3709 389.697 33.3709 389.957ZM35.0233 388.578C35.18 388.558 35.2848 388.492 35.3379 388.381C35.3682 388.32 35.3834 388.233 35.3834 388.119C35.3834 387.887 35.3 387.719 35.1332 387.615C34.969 387.509 34.7327 387.456 34.4245 387.456C34.0682 387.456 33.8155 387.552 33.6665 387.744C33.5831 387.85 33.5288 388.008 33.5035 388.218H32.8668C32.8794 387.718 33.0411 387.37 33.3519 387.176C33.6652 386.978 34.0278 386.88 34.4396 386.88C34.9172 386.88 35.305 386.971 35.6032 387.153C35.8988 387.335 36.0466 387.618 36.0466 388.002V390.34C36.0466 390.411 36.0605 390.468 36.0883 390.511C36.1186 390.554 36.1805 390.575 36.274 390.575C36.3043 390.575 36.3385 390.574 36.3764 390.571C36.4143 390.566 36.4547 390.56 36.4976 390.552V391.057C36.3915 391.087 36.3107 391.106 36.2551 391.113C36.1995 391.121 36.1237 391.125 36.0277 391.125C35.7927 391.125 35.6221 391.041 35.516 390.875C35.4604 390.786 35.4213 390.661 35.3985 390.499C35.2596 390.681 35.0599 390.839 34.7997 390.973C34.5394 391.107 34.2527 391.174 33.9394 391.174C33.5629 391.174 33.2546 391.06 33.0146 390.833C32.7771 390.603 32.6583 390.316 32.6583 389.973C32.6583 389.596 32.7758 389.304 33.0108 389.097C33.2458 388.89 33.554 388.762 33.9356 388.714L35.0233 388.578ZM37.3049 385.845H37.9947V386.978H38.6428V387.536H37.9947V390.185C37.9947 390.326 38.0427 390.421 38.1387 390.469C38.1918 390.497 38.2802 390.511 38.404 390.511C38.4369 390.511 38.4722 390.511 38.5101 390.511C38.548 390.508 38.5923 390.504 38.6428 390.499V391.038C38.5645 391.06 38.4824 391.077 38.3964 391.087C38.3131 391.097 38.2221 391.102 38.1236 391.102C37.8052 391.102 37.5892 391.021 37.4755 390.859C37.3618 390.695 37.3049 390.483 37.3049 390.223V387.536H36.7554V386.978H37.3049V385.845ZM39.8518 389.957C39.8518 390.155 39.9238 390.31 40.0679 390.424C40.2119 390.537 40.3824 390.594 40.5795 390.594C40.8195 390.594 41.052 390.539 41.2769 390.427C41.6559 390.243 41.8454 389.941 41.8454 389.522V388.972C41.762 389.025 41.6546 389.069 41.5232 389.105C41.3918 389.14 41.263 389.165 41.1366 389.18L40.7235 389.234C40.4759 389.266 40.2902 389.318 40.1664 389.389C39.9567 389.508 39.8518 389.697 39.8518 389.957ZM41.5043 388.578C41.6609 388.558 41.7658 388.492 41.8189 388.381C41.8492 388.32 41.8643 388.233 41.8643 388.119C41.8643 387.887 41.781 387.719 41.6142 387.615C41.45 387.509 41.2137 387.456 40.9055 387.456C40.5492 387.456 40.2965 387.552 40.1474 387.744C40.0641 387.85 40.0097 388.008 39.9845 388.218H39.3477C39.3604 387.718 39.5221 387.37 39.8329 387.176C40.1462 386.978 40.5088 386.88 40.9206 386.88C41.3982 386.88 41.786 386.971 42.0842 387.153C42.3798 387.335 42.5276 387.618 42.5276 388.002V390.34C42.5276 390.411 42.5415 390.468 42.5693 390.511C42.5996 390.554 42.6615 390.575 42.755 390.575C42.7853 390.575 42.8194 390.574 42.8573 390.571C42.8952 390.566 42.9356 390.56 42.9786 390.552V391.057C42.8725 391.087 42.7916 391.106 42.736 391.113C42.6805 391.121 42.6047 391.125 42.5086 391.125C42.2737 391.125 42.1031 391.041 41.997 390.875C41.9414 390.786 41.9022 390.661 41.8795 390.499C41.7405 390.681 41.5409 390.839 41.2807 390.973C41.0204 391.107 40.7336 391.174 40.4203 391.174C40.0438 391.174 39.7356 391.06 39.4956 390.833C39.258 390.603 39.1393 390.316 39.1393 389.973C39.1393 389.596 39.2568 389.304 39.4918 389.097C39.7267 388.89 40.035 388.762 40.4165 388.714L41.5043 388.578ZM45.9727 385.47H49.8348V386.152H46.727V387.843H49.4596V388.506H46.727V391.038H45.9727V385.47ZM50.5549 386.997H51.2485V391.038H50.5549V386.997ZM50.5549 385.47H51.2485V386.243H50.5549V385.47ZM52.2832 386.978H52.9312V387.555C53.1233 387.317 53.3267 387.146 53.5414 387.043C53.7562 386.939 53.995 386.888 54.2578 386.888C54.8338 386.888 55.223 387.088 55.4251 387.49C55.5363 387.71 55.5919 388.025 55.5919 388.434V391.038H54.8983V388.479C54.8983 388.232 54.8616 388.032 54.7884 387.88C54.6671 387.628 54.4473 387.501 54.1289 387.501C53.9672 387.501 53.8345 387.518 53.7309 387.551C53.544 387.606 53.3797 387.718 53.2382 387.884C53.1245 388.018 53.05 388.157 53.0146 388.301C52.9818 388.443 52.9654 388.646 52.9654 388.911V391.038H52.2832V386.978ZM58.2942 386.888C58.5822 386.888 58.8614 386.956 59.1318 387.092C59.4021 387.226 59.608 387.4 59.7495 387.615C59.886 387.82 59.9769 388.059 60.0224 388.332C60.0628 388.518 60.0831 388.817 60.0831 389.226H57.1079C57.1205 389.638 57.2178 389.969 57.3997 390.219C57.5816 390.467 57.8634 390.59 58.2449 390.59C58.6011 390.59 58.8854 390.473 59.0976 390.238C59.2189 390.101 59.3048 389.944 59.3554 389.764H60.0262C60.0085 389.913 59.9491 390.08 59.8481 390.264C59.7495 390.446 59.6384 390.595 59.5145 390.712C59.3074 390.914 59.0509 391.05 58.7452 391.121C58.5809 391.161 58.3952 391.182 58.188 391.182C57.6827 391.182 57.2544 390.998 56.9032 390.632C56.552 390.263 56.3764 389.748 56.3764 389.086C56.3764 388.434 56.5533 387.904 56.907 387.498C57.2607 387.091 57.7231 386.888 58.2942 386.888ZM59.3819 388.684C59.3541 388.388 59.2897 388.152 59.1886 387.975C59.0016 387.647 58.6896 387.483 58.2525 387.483C57.9392 387.483 57.6764 387.596 57.4641 387.824C57.2519 388.049 57.1395 388.335 57.1268 388.684H59.3819Z" fill="#9C9C9C"/>
<g clip-path="url(#clip3_1_5328)">
<path d="M188.969 384.625H188.25V384.25C188.25 384.112 188.138 384 188 384C187.862 384 187.75 384.112 187.75 384.25V384.625H184.25V384.25C184.25 384.112 184.138 384 184 384C183.862 384 183.75 384.112 183.75 384.25V384.625H183.031C182.463 384.625 182 385.088 182 385.656V390.969C182 391.537 182.463 392 183.031 392H188.969C189.537 392 190 391.537 190 390.969V385.656C190 385.088 189.537 384.625 188.969 384.625ZM183.031 385.125H183.75V385.375C183.75 385.513 183.862 385.625 184 385.625C184.138 385.625 184.25 385.513 184.25 385.375V385.125H187.75V385.375C187.75 385.513 187.862 385.625 188 385.625C188.138 385.625 188.25 385.513 188.25 385.375V385.125H188.969C189.262 385.125 189.5 385.363 189.5 385.656V386.25H182.5V385.656C182.5 385.363 182.738 385.125 183.031 385.125ZM188.969 391.5H183.031C182.738 391.5 182.5 391.262 182.5 390.969V386.75H189.5V390.969C189.5 391.262 189.262 391.5 188.969 391.5Z" fill="#9C9C9C"/>
</g>
<rect opacity="0.8" x="18.1444" y="348.277" width="180.189" height="20.5139" rx="10.2569" fill="white" fill-opacity="0.8" stroke="#E3E1E1" stroke-width="0.554429"/>
<path d="M29.4671 360.454C29.7223 360.454 29.932 360.428 30.0963 360.375C30.3894 360.276 30.6294 360.087 30.8164 359.806C30.9654 359.581 31.0728 359.293 31.1385 358.942C31.1764 358.732 31.1954 358.538 31.1954 358.358C31.1954 357.669 31.0577 357.133 30.7823 356.751C30.5094 356.37 30.0685 356.179 29.4595 356.179H28.1216V360.454H29.4671ZM27.3636 355.531H29.6187C30.3843 355.531 30.9781 355.803 31.4 356.346C31.7765 356.836 31.9647 357.464 31.9647 358.23C31.9647 358.821 31.8536 359.355 31.6312 359.833C31.2396 360.677 30.5662 361.099 29.6111 361.099H27.3636V355.531ZM33.3709 360.018C33.3709 360.216 33.4429 360.371 33.5869 360.485C33.7309 360.598 33.9015 360.655 34.0985 360.655C34.3386 360.655 34.571 360.6 34.7959 360.488C35.1749 360.304 35.3644 360.002 35.3644 359.583V359.033C35.281 359.086 35.1736 359.13 35.0423 359.166C34.9109 359.201 34.782 359.226 34.6557 359.242L34.2426 359.295C33.9949 359.327 33.8092 359.379 33.6854 359.45C33.4757 359.569 33.3709 359.758 33.3709 360.018ZM35.0233 358.639C35.18 358.619 35.2848 358.553 35.3379 358.442C35.3682 358.381 35.3834 358.294 35.3834 358.18C35.3834 357.948 35.3 357.78 35.1332 357.676C34.969 357.57 34.7327 357.517 34.4245 357.517C34.0682 357.517 33.8155 357.613 33.6665 357.805C33.5831 357.911 33.5288 358.069 33.5035 358.279H32.8668C32.8794 357.779 33.0411 357.431 33.3519 357.237C33.6652 357.039 34.0278 356.941 34.4396 356.941C34.9172 356.941 35.305 357.032 35.6032 357.214C35.8988 357.396 36.0466 357.679 36.0466 358.063V360.401C36.0466 360.472 36.0605 360.529 36.0883 360.572C36.1186 360.615 36.1805 360.636 36.274 360.636C36.3043 360.636 36.3385 360.635 36.3764 360.632C36.4143 360.627 36.4547 360.621 36.4976 360.614V361.118C36.3915 361.148 36.3107 361.167 36.2551 361.174C36.1995 361.182 36.1237 361.186 36.0277 361.186C35.7927 361.186 35.6221 361.102 35.516 360.936C35.4604 360.847 35.4213 360.722 35.3985 360.56C35.2596 360.742 35.0599 360.9 34.7997 361.034C34.5394 361.168 34.2527 361.235 33.9394 361.235C33.5629 361.235 33.2546 361.121 33.0146 360.894C32.7771 360.664 32.6583 360.377 32.6583 360.034C32.6583 359.657 32.7758 359.365 33.0108 359.158C33.2458 358.951 33.554 358.823 33.9356 358.775L35.0233 358.639ZM37.3049 355.906H37.9947V357.039H38.6428V357.597H37.9947V360.246C37.9947 360.387 38.0427 360.482 38.1387 360.53C38.1918 360.558 38.2802 360.572 38.404 360.572C38.4369 360.572 38.4722 360.572 38.5101 360.572C38.548 360.569 38.5923 360.566 38.6428 360.56V361.099C38.5645 361.121 38.4824 361.138 38.3964 361.148C38.3131 361.158 38.2221 361.163 38.1236 361.163C37.8052 361.163 37.5892 361.082 37.4755 360.921C37.3618 360.756 37.3049 360.544 37.3049 360.284V357.597H36.7554V357.039H37.3049V355.906ZM39.8518 360.018C39.8518 360.216 39.9238 360.371 40.0679 360.485C40.2119 360.598 40.3824 360.655 40.5795 360.655C40.8195 360.655 41.052 360.6 41.2769 360.488C41.6559 360.304 41.8454 360.002 41.8454 359.583V359.033C41.762 359.086 41.6546 359.13 41.5232 359.166C41.3918 359.201 41.263 359.226 41.1366 359.242L40.7235 359.295C40.4759 359.327 40.2902 359.379 40.1664 359.45C39.9567 359.569 39.8518 359.758 39.8518 360.018ZM41.5043 358.639C41.6609 358.619 41.7658 358.553 41.8189 358.442C41.8492 358.381 41.8643 358.294 41.8643 358.18C41.8643 357.948 41.781 357.78 41.6142 357.676C41.45 357.57 41.2137 357.517 40.9055 357.517C40.5492 357.517 40.2965 357.613 40.1474 357.805C40.0641 357.911 40.0097 358.069 39.9845 358.279H39.3477C39.3604 357.779 39.5221 357.431 39.8329 357.237C40.1462 357.039 40.5088 356.941 40.9206 356.941C41.3982 356.941 41.786 357.032 42.0842 357.214C42.3798 357.396 42.5276 357.679 42.5276 358.063V360.401C42.5276 360.472 42.5415 360.529 42.5693 360.572C42.5996 360.615 42.6615 360.636 42.755 360.636C42.7853 360.636 42.8194 360.635 42.8573 360.632C42.8952 360.627 42.9356 360.621 42.9786 360.614V361.118C42.8725 361.148 42.7916 361.167 42.736 361.174C42.6805 361.182 42.6047 361.186 42.5086 361.186C42.2737 361.186 42.1031 361.102 41.997 360.936C41.9414 360.847 41.9022 360.722 41.8795 360.56C41.7405 360.742 41.5409 360.9 41.2807 361.034C41.0204 361.168 40.7336 361.235 40.4203 361.235C40.0438 361.235 39.7356 361.121 39.4956 360.894C39.258 360.664 39.1393 360.377 39.1393 360.034C39.1393 359.657 39.2568 359.365 39.4918 359.158C39.7267 358.951 40.035 358.823 40.4165 358.775L41.5043 358.639ZM46.0713 355.531H46.8331V361.099H46.0713V355.531ZM47.9701 357.039H48.6182V357.616C48.8102 357.378 49.0136 357.208 49.2284 357.104C49.4431 357 49.6819 356.949 49.9447 356.949C50.5208 356.949 50.9099 357.149 51.112 357.551C51.2232 357.771 51.2788 358.086 51.2788 358.495V361.099H50.5852V358.54C50.5852 358.293 50.5486 358.093 50.4753 357.942C50.354 357.689 50.1342 357.563 49.8158 357.563C49.6541 357.563 49.5215 357.579 49.4179 357.612C49.2309 357.667 49.0667 357.779 48.9252 357.945C48.8115 358.079 48.7369 358.218 48.7016 358.362C48.6687 358.504 48.6523 358.707 48.6523 358.972V361.099H47.9701V357.039ZM52.2907 357.058H52.9843V361.099H52.2907V357.058ZM52.2907 355.531H52.9843V356.304H52.2907V355.531ZM53.7158 360.56L56.1225 357.65H53.8939V357.039H57.0397V357.597L54.6481 360.488H57.1117V361.099H53.7158V360.56ZM57.9 357.058H58.5936V361.099H57.9V357.058ZM57.9 355.531H58.5936V356.304H57.9V355.531ZM61.239 360.659C61.6913 360.659 62.0008 360.488 62.1676 360.147C62.3369 359.804 62.4215 359.422 62.4215 359.003C62.4215 358.624 62.3609 358.315 62.2396 358.078C62.0476 357.704 61.7166 357.517 61.2466 357.517C60.8297 357.517 60.5265 357.676 60.337 357.995C60.1475 358.313 60.0527 358.697 60.0527 359.147C60.0527 359.579 60.1475 359.939 60.337 360.227C60.5265 360.515 60.8272 360.659 61.239 360.659ZM61.2655 356.922C61.7886 356.922 62.2307 357.096 62.5921 357.445C62.9534 357.794 63.134 358.307 63.134 358.984C63.134 359.638 62.9749 360.179 62.6565 360.606C62.3381 361.033 61.8442 361.246 61.1746 361.246C60.6162 361.246 60.1728 361.058 59.8443 360.682C59.5158 360.303 59.3516 359.795 59.3516 359.158C59.3516 358.476 59.5247 357.933 59.8708 357.528C60.217 357.124 60.6819 356.922 61.2655 356.922Z" fill="#9C9C9C"/>
<g clip-path="url(#clip4_1_5328)">
<path d="M188.969 354.686H188.25V354.311C188.25 354.173 188.138 354.061 188 354.061C187.862 354.061 187.75 354.173 187.75 354.311V354.686H184.25V354.311C184.25 354.173 184.138 354.061 184 354.061C183.862 354.061 183.75 354.173 183.75 354.311V354.686H183.031C182.463 354.686 182 355.149 182 355.717V361.03C182 361.598 182.463 362.061 183.031 362.061H188.969C189.537 362.061 190 361.598 190 361.03V355.717C190 355.149 189.537 354.686 188.969 354.686ZM183.031 355.186H183.75V355.436C183.75 355.574 183.862 355.686 184 355.686C184.138 355.686 184.25 355.574 184.25 355.436V355.186H187.75V355.436C187.75 355.574 187.862 355.686 188 355.686C188.138 355.686 188.25 355.574 188.25 355.436V355.186H188.969C189.262 355.186 189.5 355.424 189.5 355.717V356.311H182.5V355.717C182.5 355.424 182.738 355.186 183.031 355.186ZM188.969 361.561H183.031C182.738 361.561 182.5 361.323 182.5 361.03V356.811H189.5V361.03C189.5 361.323 189.262 361.561 188.969 361.561Z" fill="#9C9C9C"/>
</g>
<path d="M17.6367 420.696V420.248C18.059 420.206 18.3536 420.138 18.5203 420.043C18.6871 419.945 18.8116 419.717 18.8939 419.357H19.3552V423.99H18.7315V420.696H17.6367ZM21.2557 424.669C21.4051 424.643 21.5101 424.538 21.5708 424.354C21.6033 424.256 21.6195 424.162 21.6195 424.071C21.6195 424.056 21.6184 424.042 21.6163 424.029C21.6163 424.018 21.6141 424.005 21.6098 423.99H21.2557V423.282H21.9509V423.938C21.9509 424.196 21.8989 424.422 21.7949 424.617C21.691 424.812 21.5112 424.932 21.2557 424.978V424.669ZM24.3548 419.338C24.9569 419.338 25.3922 419.586 25.6608 420.082C25.8687 420.465 25.9726 420.99 25.9726 421.657C25.9726 422.29 25.8784 422.813 25.69 423.227C25.4171 423.82 24.971 424.117 24.3516 424.117C23.7928 424.117 23.377 423.874 23.1041 423.389C22.8767 422.984 22.763 422.44 22.763 421.758C22.763 421.23 22.8312 420.776 22.9677 420.397C23.2232 419.691 23.6856 419.338 24.3548 419.338ZM24.3483 423.584C24.6515 423.584 24.893 423.45 25.0728 423.181C25.2525 422.912 25.3424 422.412 25.3424 421.68C25.3424 421.152 25.2774 420.718 25.1475 420.377C25.0176 420.035 24.7653 419.864 24.3906 419.864C24.0462 419.864 23.7939 420.027 23.6337 420.351C23.4756 420.674 23.3965 421.151 23.3965 421.781C23.3965 422.255 23.4474 422.636 23.5492 422.924C23.7051 423.364 23.9715 423.584 24.3483 423.584ZM28.0583 419.338C28.6603 419.338 29.0956 419.586 29.3642 420.082C29.5721 420.465 29.6761 420.99 29.6761 421.657C29.6761 422.29 29.5818 422.813 29.3934 423.227C29.1205 423.82 28.6744 424.117 28.055 424.117C27.4962 424.117 27.0804 423.874 26.8075 423.389C26.5801 422.984 26.4664 422.44 26.4664 421.758C26.4664 421.23 26.5347 420.776 26.6711 420.397C26.9267 419.691 27.389 419.338 28.0583 419.338ZM28.0518 423.584C28.355 423.584 28.5964 423.45 28.7762 423.181C28.956 422.912 29.0458 422.412 29.0458 421.68C29.0458 421.152 28.9809 420.718 28.8509 420.377C28.721 420.035 28.4687 419.864 28.094 419.864C27.7496 419.864 27.4973 420.027 27.3371 420.351C27.179 420.674 27.0999 421.151 27.0999 421.781C27.0999 422.255 27.1508 422.636 27.2526 422.924C27.4085 423.364 27.6749 423.584 28.0518 423.584Z" fill="#333333"/>
<path d="M41.3926 421.871H198.296" stroke="#E7E7E7" stroke-width="0.554429"/>
<path d="M49.7129 413L49.7129 523.886" stroke="#E7E7E7" stroke-width="0.554429"/>
<path d="M71.3359 413L71.3359 523.886" stroke="#E7E7E7" stroke-width="0.554429"/>
<path d="M92.4023 413L92.4023 523.886" stroke="#E7E7E7" stroke-width="0.554429"/>
<path d="M113.471 413L113.471 523.886" stroke="#E7E7E7" stroke-width="0.554429"/>
<path d="M134.539 413L134.539 523.886" stroke="#E7E7E7" stroke-width="0.554429"/>
<path d="M155.605 413L155.605 523.886" stroke="#E7E7E7" stroke-width="0.554429"/>
<path d="M177.229 413L177.229 523.886" stroke="#E7E7E7" stroke-width="0.554429"/>
<path d="M198.299 413L198.299 523.886" stroke="#E7E7E7" stroke-width="0.554429"/>
</g>
<defs>
<clipPath id="clip0_1_5328">
<rect width="216.227" height="674.74" rx="20" fill="white"/>
</clipPath>
<clipPath id="clip1_1_5328">
<rect width="65.4226" height="13.8607" fill="white" transform="translate(8.87305 23.4352)"/>
</clipPath>
<clipPath id="clip2_1_5328">
<rect width="8" height="8" fill="white" transform="translate(182 145)"/>
</clipPath>
<clipPath id="clip3_1_5328">
<rect width="8" height="8" fill="white" transform="translate(182 384)"/>
</clipPath>
<clipPath id="clip4_1_5328">
<rect width="8" height="8" fill="white" transform="translate(182 354.061)"/>
</clipPath>
</defs>
</svg>
