<svg width="195" height="193" viewBox="0 0 195 193" fill="none" xmlns="http://www.w3.org/2000/svg">
<g filter="url(#filter0_d_1_5455)">
<rect x="7" y="5" width="181" height="180.243" rx="12.1172" fill="white"/>
</g>
<path d="M52.4104 25.4251C52.4656 25.8234 52.574 26.1212 52.7358 26.3185C53.0316 26.6774 53.5384 26.8569 54.2563 26.8569C54.6863 26.8569 55.0353 26.8095 55.3036 26.7149C55.8124 26.5334 56.0668 26.1962 56.0668 25.7031C56.0668 25.4152 55.9406 25.1923 55.6881 25.0346C55.4357 24.8807 55.0393 24.7446 54.4989 24.6263L53.5759 24.4192C52.6687 24.2141 52.0416 23.9913 51.6944 23.7507C51.1067 23.3483 50.8129 22.7192 50.8129 21.8633C50.8129 21.0823 51.0969 20.4334 51.6649 19.9167C52.2329 19.4 53.0671 19.1416 54.1676 19.1416C55.0866 19.1416 55.8696 19.3862 56.5165 19.8753C57.1673 20.3605 57.5085 21.0665 57.54 21.9934H55.7887C55.7572 21.4688 55.5284 21.0961 55.1024 20.8752C54.8184 20.7293 54.4654 20.6563 54.0433 20.6563C53.5739 20.6563 53.1992 20.751 52.9192 20.9403C52.6391 21.1296 52.4991 21.3939 52.4991 21.7331C52.4991 22.0447 52.6372 22.2774 52.9133 22.4313C53.0908 22.5338 53.4694 22.6541 54.0492 22.7922L55.5521 23.1531C56.2108 23.3109 56.7078 23.5219 57.043 23.7862C57.5637 24.1964 57.824 24.79 57.824 25.5671C57.824 26.3638 57.5183 27.0265 56.907 27.555C56.2995 28.0796 55.4396 28.3419 54.3273 28.3419C53.1913 28.3419 52.2979 28.0836 51.6471 27.5669C50.9963 27.0462 50.6709 26.3323 50.6709 25.4251H52.4104ZM61.581 22.8868C61.1906 22.8868 60.8868 23.0091 60.6699 23.2537C60.4569 23.4982 60.3228 23.8295 60.2676 24.2477H62.8886C62.861 23.8019 62.7249 23.4647 62.4804 23.2359C62.2398 23.0032 61.94 22.8868 61.581 22.8868ZM61.581 21.4964C62.1175 21.4964 62.6007 21.597 63.0306 21.7982C63.4605 21.9994 63.8155 22.3169 64.0956 22.7508C64.348 23.1334 64.5117 23.5771 64.5867 24.082C64.6301 24.3778 64.6478 24.8038 64.6399 25.36H60.2262C60.2498 26.0068 60.453 26.4605 60.8356 26.7208C61.0683 26.8825 61.3483 26.9634 61.6757 26.9634C62.0228 26.9634 62.3048 26.8648 62.5218 26.6675C62.6401 26.561 62.7446 26.4131 62.8354 26.2238H64.5571C64.5137 26.6064 64.3145 26.9949 63.9595 27.3894C63.4073 28.0165 62.6342 28.3301 61.6402 28.3301C60.8198 28.3301 60.096 28.0658 59.4688 27.5373C58.8417 27.0087 58.5281 26.1488 58.5281 24.9576C58.5281 23.8414 58.8101 22.9855 59.3742 22.3898C59.9422 21.7942 60.6778 21.4964 61.581 21.4964ZM67.5154 20.8989H65.8055V19.3428H67.5154V20.8989ZM65.8055 21.668H67.5154V28.1171H65.8055V21.668ZM75.2957 26.7326C75.6901 26.7326 76.0234 26.5847 76.2956 26.2889C76.5677 25.9891 76.7038 25.5138 76.7038 24.863C76.7038 24.2516 76.5737 23.7862 76.3133 23.4667C76.0569 23.1472 75.7118 22.9874 75.2779 22.9874C74.6863 22.9874 74.278 23.2655 74.0532 23.8217C73.9349 24.1175 73.8757 24.4823 73.8757 24.9162C73.8757 25.2909 73.9388 25.6242 74.065 25.9161C74.2938 26.4605 74.704 26.7326 75.2957 26.7326ZM74.8756 21.5142C75.199 21.5142 75.4811 21.5635 75.7217 21.6621C76.1319 21.8317 76.4632 22.1433 76.7157 22.5969V21.668H78.3545V27.7858C78.3545 28.618 78.2145 29.2452 77.9345 29.6672C77.4533 30.393 76.5303 30.7559 75.1655 30.7559C74.3411 30.7559 73.6686 30.5942 73.148 30.2707C72.6273 29.9473 72.3394 29.4641 72.2841 28.8212H74.1183C74.1656 29.0184 74.2425 29.1604 74.349 29.2472C74.5305 29.401 74.8362 29.4779 75.2661 29.4779C75.8735 29.4779 76.2798 29.2748 76.4849 28.8685C76.619 28.6082 76.6861 28.1703 76.6861 27.555V27.1409C76.5244 27.417 76.3508 27.624 76.1654 27.7621C75.8301 28.0185 75.3943 28.1467 74.8579 28.1467C74.0295 28.1467 73.3669 27.8568 72.8699 27.2769C72.3768 26.6932 72.1303 25.9043 72.1303 24.9103C72.1303 23.9518 72.3689 23.1472 72.8462 22.4963C73.3235 21.8416 73.9999 21.5142 74.8756 21.5142ZM81.6678 20.8989H79.9579V19.3428H81.6678V20.8989ZM79.9579 21.668H81.6678V28.1171H79.9579V21.668ZM86.8626 24.9813C86.7561 25.0484 86.6476 25.1036 86.5372 25.147C86.4307 25.1864 86.2828 25.2239 86.0934 25.2594L85.7148 25.3304C85.3598 25.3935 85.1054 25.4704 84.9515 25.5611C84.6912 25.715 84.561 25.9536 84.561 26.277C84.561 26.565 84.6399 26.774 84.7977 26.9042C84.9594 27.0304 85.1547 27.0935 85.3834 27.0935C85.7463 27.0935 86.0796 26.987 86.3833 26.774C86.691 26.561 86.8508 26.1725 86.8626 25.6085V24.9813ZM85.839 24.1944C86.1506 24.155 86.3735 24.1057 86.5076 24.0465C86.7482 23.9439 86.8685 23.7842 86.8685 23.5672C86.8685 23.303 86.7758 23.1215 86.5904 23.0229C86.409 22.9204 86.1408 22.8691 85.7858 22.8691C85.3874 22.8691 85.1054 22.9677 84.9397 23.1649C84.8214 23.3109 84.7425 23.5081 84.703 23.7566H83.076C83.1115 23.1925 83.2693 22.7291 83.5493 22.3662C83.995 21.7982 84.7602 21.5142 85.8449 21.5142C86.551 21.5142 87.1781 21.6542 87.7264 21.9343C88.2747 22.2143 88.5488 22.7429 88.5488 23.5199V26.4782C88.5488 26.6833 88.5528 26.9318 88.5606 27.2237C88.5725 27.4446 88.606 27.5945 88.6612 27.6734C88.7165 27.7522 88.7993 27.8173 88.9097 27.8686V28.1171H87.0756C87.0243 27.9869 86.9888 27.8647 86.9691 27.7503C86.9494 27.6359 86.9336 27.5057 86.9218 27.3598C86.689 27.6122 86.4208 27.8272 86.1171 28.0047C85.7542 28.2137 85.344 28.3183 84.8865 28.3183C84.3027 28.3183 83.8195 28.1526 83.4369 27.8213C83.0582 27.486 82.8689 27.0127 82.8689 26.4013C82.8689 25.6085 83.1746 25.0346 83.786 24.6796C84.1212 24.4863 84.6143 24.3482 85.2651 24.2654L85.839 24.1944ZM86.9277 20.7983H85.7089L83.9161 19.0292H85.7917L86.9277 20.7983ZM97.8674 24.8926C97.8674 24.3956 97.753 23.9558 97.5243 23.5732C97.2994 23.1906 96.9326 22.9993 96.4238 22.9993C95.8124 22.9993 95.3923 23.2892 95.1635 23.869C95.0452 24.1767 94.9861 24.5671 94.9861 25.0405C94.9861 25.7899 95.1852 26.3165 95.5836 26.6202C95.8203 26.7977 96.1003 26.8864 96.4238 26.8864C96.8932 26.8864 97.2501 26.705 97.4947 26.3421C97.7432 25.9792 97.8674 25.4961 97.8674 24.8926ZM96.9089 21.526C97.6623 21.526 98.2993 21.8041 98.82 22.3603C99.3446 22.9164 99.6069 23.7329 99.6069 24.8097C99.6069 25.9457 99.3505 26.8115 98.8377 27.4071C98.3289 28.0027 97.6722 28.3005 96.8675 28.3005C96.3548 28.3005 95.9288 28.1723 95.5895 27.9159C95.4042 27.7739 95.2227 27.5669 95.0452 27.2947V30.6553H93.3767V21.668H94.992V22.6206C95.1734 22.3405 95.3667 22.1197 95.5718 21.9579C95.9465 21.67 96.3922 21.526 96.9089 21.526ZM104.387 24.9813C104.281 25.0484 104.173 25.1036 104.062 25.147C103.956 25.1864 103.808 25.2239 103.618 25.2594L103.24 25.3304C102.885 25.3935 102.63 25.4704 102.476 25.5611C102.216 25.715 102.086 25.9536 102.086 26.277C102.086 26.565 102.165 26.774 102.323 26.9042C102.484 27.0304 102.68 27.0935 102.908 27.0935C103.271 27.0935 103.605 26.987 103.908 26.774C104.216 26.561 104.376 26.1725 104.387 25.6085V24.9813ZM103.364 24.1944C103.676 24.155 103.898 24.1057 104.033 24.0465C104.273 23.9439 104.393 23.7842 104.393 23.5672C104.393 23.303 104.301 23.1215 104.115 23.0229C103.934 22.9204 103.666 22.8691 103.311 22.8691C102.912 22.8691 102.63 22.9677 102.465 23.1649C102.346 23.3109 102.267 23.5081 102.228 23.7566H100.601C100.636 23.1925 100.794 22.7291 101.074 22.3662C101.52 21.7982 102.285 21.5142 103.37 21.5142C104.076 21.5142 104.703 21.6542 105.251 21.9343C105.8 22.2143 106.074 22.7429 106.074 23.5199V26.4782C106.074 26.6833 106.078 26.9318 106.086 27.2237C106.097 27.4446 106.131 27.5945 106.186 27.6734C106.241 27.7522 106.324 27.8173 106.435 27.8686V28.1171H104.6C104.549 27.9869 104.514 27.8647 104.494 27.7503C104.474 27.6359 104.458 27.5057 104.447 27.3598C104.214 27.6122 103.946 27.8272 103.642 28.0047C103.279 28.2137 102.869 28.3183 102.411 28.3183C101.828 28.3183 101.344 28.1526 100.962 27.8213C100.583 27.486 100.394 27.0127 100.394 26.4013C100.394 25.6085 100.699 25.0346 101.311 24.6796C101.646 24.4863 102.139 24.3482 102.79 24.2654L103.364 24.1944ZM111.079 21.5142C111.111 21.5142 111.136 21.5162 111.156 21.5201C111.18 21.5201 111.229 21.5221 111.304 21.526V23.2537C111.197 23.2418 111.103 23.2339 111.02 23.23C110.937 23.2261 110.87 23.2241 110.819 23.2241C110.14 23.2241 109.685 23.445 109.452 23.8867C109.322 24.1352 109.257 24.5178 109.257 25.0346V28.1171H107.559V21.668H109.168V22.7922C109.428 22.3622 109.655 22.0684 109.848 21.9106C110.164 21.6463 110.574 21.5142 111.079 21.5142ZM111.635 22.9283V21.7272H112.535V19.9286H114.203V21.7272H115.25V22.9283H114.203V26.3362C114.203 26.6005 114.237 26.7661 114.304 26.8332C114.371 26.8963 114.576 26.9279 114.919 26.9279C114.97 26.9279 115.024 26.9279 115.079 26.9279C115.138 26.9239 115.195 26.92 115.25 26.916V28.1763L114.452 28.2058C113.655 28.2335 113.111 28.0954 112.819 27.7917C112.629 27.5984 112.535 27.3006 112.535 26.8983V22.9283H111.635ZM119.907 21.5142C120.573 21.5142 121.118 21.6897 121.54 22.0408C121.966 22.3879 122.179 22.9657 122.179 23.7743V28.1171H120.451V24.1944C120.451 23.8552 120.406 23.5949 120.315 23.4134C120.149 23.0821 119.834 22.9164 119.368 22.9164C118.796 22.9164 118.404 23.159 118.191 23.6442C118.08 23.9005 118.025 24.2279 118.025 24.6263V28.1171H116.345V21.6799H117.972V22.6206C118.189 22.2893 118.394 22.0506 118.587 21.9047C118.934 21.6444 119.374 21.5142 119.907 21.5142ZM126.285 22.8868C125.894 22.8868 125.591 23.0091 125.374 23.2537C125.161 23.4982 125.026 23.8295 124.971 24.2477H127.592C127.565 23.8019 127.429 23.4647 127.184 23.2359C126.943 23.0032 126.644 22.8868 126.285 22.8868ZM126.285 21.4964C126.821 21.4964 127.304 21.597 127.734 21.7982C128.164 21.9994 128.519 22.3169 128.799 22.7508C129.052 23.1334 129.215 23.5771 129.29 24.082C129.334 24.3778 129.352 24.8038 129.344 25.36H124.93C124.954 26.0068 125.157 26.4605 125.539 26.7208C125.772 26.8825 126.052 26.9634 126.379 26.9634C126.727 26.9634 127.009 26.8648 127.225 26.6675C127.344 26.561 127.448 26.4131 127.539 26.2238H129.261C129.217 26.6064 129.018 26.9949 128.663 27.3894C128.111 28.0165 127.338 28.3301 126.344 28.3301C125.523 28.3301 124.8 28.0658 124.173 27.5373C123.545 27.0087 123.232 26.1488 123.232 24.9576C123.232 23.8414 123.514 22.9855 124.078 22.3898C124.646 21.7942 125.381 21.4964 126.285 21.4964ZM133.988 21.5142C134.02 21.5142 134.045 21.5162 134.065 21.5201C134.089 21.5201 134.138 21.5221 134.213 21.526V23.2537C134.106 23.2418 134.012 23.2339 133.929 23.23C133.846 23.2261 133.779 23.2241 133.728 23.2241C133.049 23.2241 132.594 23.445 132.361 23.8867C132.231 24.1352 132.166 24.5178 132.166 25.0346V28.1171H130.468V21.668H132.077V22.7922C132.337 22.3622 132.564 22.0684 132.757 21.9106C133.073 21.6463 133.483 21.5142 133.988 21.5142ZM140.68 26.4072H142.443V28.1171H140.68V26.4072ZM138.52 22.1473C138.568 21.0231 138.96 20.2264 139.698 19.757C140.163 19.4572 140.735 19.3073 141.413 19.3073C142.305 19.3073 143.044 19.5203 143.632 19.9463C144.224 20.3723 144.52 21.0034 144.52 21.8396C144.52 22.3524 144.391 22.7843 144.135 23.1353C143.985 23.3483 143.697 23.6205 143.271 23.9518L142.851 24.2772C142.622 24.4547 142.471 24.6618 142.396 24.8985C142.348 25.0484 142.323 25.2811 142.319 25.5966H140.721C140.745 24.93 140.808 24.4705 140.911 24.2181C141.013 23.9617 141.277 23.6678 141.703 23.3365L142.135 22.9993C142.277 22.8928 142.392 22.7764 142.478 22.6502C142.636 22.4332 142.715 22.1946 142.715 21.9343C142.715 21.6345 142.626 21.3623 142.449 21.1178C142.275 20.8693 141.956 20.745 141.49 20.745C141.033 20.745 140.707 20.8969 140.514 21.2006C140.325 21.5043 140.23 21.8199 140.23 22.1473H138.52Z" fill="#0E539D"/>
<path d="M45.4401 40.0941C45.4556 40.3714 45.5211 40.5966 45.6365 40.7697C45.8561 41.0936 46.2433 41.2556 46.798 41.2556C47.0465 41.2556 47.2728 41.2201 47.4769 41.1491C47.8718 41.0115 48.0693 40.7653 48.0693 40.4103C48.0693 40.144 47.9861 39.9543 47.8197 39.8412C47.6511 39.7302 47.387 39.6337 47.0276 39.5516L46.3653 39.4019C45.9327 39.3042 45.6265 39.1966 45.4468 39.079C45.1361 38.8749 44.9808 38.5698 44.9808 38.1638C44.9808 37.7245 45.1328 37.364 45.4368 37.0822C45.7407 36.8004 46.1712 36.6595 46.7281 36.6595C47.2406 36.6595 47.6755 36.7838 48.0327 37.0323C48.3921 37.2785 48.5718 37.6735 48.5718 38.2171H47.9495C47.9162 37.9552 47.8452 37.7545 47.7365 37.6147C47.5346 37.3595 47.1918 37.2319 46.7081 37.2319C46.3176 37.2319 46.0369 37.314 45.8661 37.4782C45.6953 37.6424 45.6098 37.8332 45.6098 38.0507C45.6098 38.2903 45.7097 38.4656 45.9094 38.5765C46.0403 38.6475 46.3365 38.7362 46.798 38.8427L47.4835 38.9992C47.8141 39.0746 48.0693 39.1778 48.249 39.3087C48.5596 39.5372 48.7149 39.8689 48.7149 40.3038C48.7149 40.8451 48.5175 41.2323 48.1225 41.4653C47.7298 41.6982 47.2728 41.8147 46.7514 41.8147C46.1434 41.8147 45.6675 41.6594 45.3236 41.3488C44.9797 41.0404 44.8111 40.6221 44.8178 40.0941H45.4401ZM49.4737 38.1239H50.0828V41.6716H49.4737V38.1239ZM49.4737 36.7827H50.0828V37.4616H49.4737V36.7827ZM54.3926 41.2689C54.6722 41.2689 54.904 41.1524 55.0882 40.9195C55.2746 40.6843 55.3678 40.3337 55.3678 39.8678C55.3678 39.5838 55.3267 39.3397 55.2446 39.1356C55.0893 38.7429 54.8053 38.5465 54.3926 38.5465C53.9777 38.5465 53.6937 38.754 53.5406 39.1689C53.4586 39.3908 53.4175 39.6725 53.4175 40.0142C53.4175 40.2893 53.4586 40.5234 53.5406 40.7164C53.696 41.0847 53.98 41.2689 54.3926 41.2689ZM52.8418 38.1239H53.4242V38.5965C53.544 38.4345 53.6749 38.3091 53.8169 38.2204C54.0188 38.0873 54.2562 38.0207 54.5291 38.0207C54.9329 38.0207 55.2757 38.176 55.5575 38.4866C55.8392 38.795 55.9801 39.2366 55.9801 39.8112C55.9801 40.5878 55.7771 41.1424 55.3711 41.4752C55.1137 41.686 54.8142 41.7914 54.4725 41.7914C54.204 41.7914 53.9788 41.7326 53.7969 41.615C53.6904 41.5485 53.5717 41.4342 53.4408 41.2722V43.0927H52.8418V38.1239ZM56.699 38.1072H57.2681V38.7229C57.3147 38.6031 57.4289 38.4578 57.6109 38.2869C57.7928 38.1139 58.0025 38.0274 58.2399 38.0274C58.251 38.0274 58.2698 38.0285 58.2965 38.0307C58.3231 38.0329 58.3686 38.0373 58.4329 38.044V38.6763C58.3974 38.6697 58.3641 38.6652 58.3331 38.663C58.3042 38.6608 58.2721 38.6597 58.2366 38.6597C57.9348 38.6597 57.703 38.7573 57.541 38.9526C57.379 39.1456 57.298 39.3686 57.298 39.6215V41.6716H56.699V38.1072ZM60.4364 38.0274C60.6894 38.0274 60.9345 38.0873 61.1719 38.2071C61.4093 38.3247 61.5902 38.4778 61.7144 38.6663C61.8342 38.8461 61.9141 39.0557 61.954 39.2954C61.9895 39.4595 62.0073 39.7213 62.0073 40.0808H59.3947C59.4058 40.4424 59.4912 40.7331 59.651 40.9527C59.8107 41.1702 60.0581 41.2789 60.3932 41.2789C60.706 41.2789 60.9556 41.1757 61.142 40.9694C61.2485 40.8496 61.3239 40.7109 61.3683 40.5534H61.9573C61.9418 40.6843 61.8897 40.8307 61.8009 40.9927C61.7144 41.1524 61.6168 41.2833 61.5081 41.3854C61.3261 41.5629 61.1009 41.6827 60.8325 41.7448C60.6882 41.7803 60.5252 41.7981 60.3432 41.7981C59.8995 41.7981 59.5234 41.6372 59.215 41.3155C58.9066 40.9916 58.7524 40.5389 58.7524 39.9576C58.7524 39.3852 58.9077 38.9204 59.2183 38.5632C59.529 38.206 59.935 38.0274 60.4364 38.0274ZM61.3916 39.6049C61.3672 39.3453 61.3106 39.1378 61.2218 38.9825C61.0577 38.6941 60.7836 38.5499 60.3998 38.5499C60.1247 38.5499 59.8939 38.6497 59.7076 38.8494C59.5212 39.0469 59.4225 39.2987 59.4114 39.6049H61.3916ZM64.0041 38.044C64.2837 38.044 64.5277 38.1128 64.7363 38.2503C64.8494 38.328 64.9648 38.4411 65.0824 38.5898V38.1405H65.6349V41.3821C65.6349 41.8347 65.5683 42.1919 65.4352 42.4537C65.1867 42.9374 64.7174 43.1792 64.0274 43.1792C63.6436 43.1792 63.3208 43.0927 63.0589 42.9196C62.7971 42.7488 62.6507 42.4803 62.6196 42.1142H63.2287C63.2575 42.274 63.3152 42.3971 63.4017 42.4837C63.5371 42.6168 63.7501 42.6833 64.0407 42.6833C64.5 42.6833 64.8006 42.5214 64.9426 42.1974C65.0269 42.0066 65.0658 41.6661 65.0591 41.1757C64.9393 41.3577 64.7951 41.493 64.6265 41.5817C64.4578 41.6705 64.2349 41.7149 63.9575 41.7149C63.5715 41.7149 63.2331 41.5784 62.9425 41.3055C62.654 41.0304 62.5098 40.5767 62.5098 39.9443C62.5098 39.3475 62.6551 38.8816 62.9458 38.5465C63.2387 38.2115 63.5914 38.044 64.0041 38.044ZM65.0824 39.8744C65.0824 39.4329 64.9914 39.1057 64.8095 38.8927C64.6276 38.6797 64.3957 38.5732 64.1139 38.5732C63.6924 38.5732 63.404 38.7706 63.2486 39.1656C63.1665 39.3763 63.1255 39.6526 63.1255 39.9943C63.1255 40.3958 63.2065 40.702 63.3685 40.9128C63.5326 41.1214 63.7523 41.2256 64.0274 41.2256C64.4578 41.2256 64.7607 41.0315 64.936 40.6432C65.0336 40.4236 65.0824 40.1673 65.0824 39.8744ZM66.9994 40.7231C66.9994 40.8962 67.0626 41.0326 67.1891 41.1325C67.3156 41.2323 67.4653 41.2822 67.6384 41.2822C67.8492 41.2822 68.0533 41.2334 68.2507 41.1358C68.5835 40.9738 68.75 40.7087 68.75 40.3404V39.8578C68.6767 39.9044 68.5824 39.9432 68.4671 39.9743C68.3517 40.0053 68.2385 40.0275 68.1276 40.0408L67.7648 40.0874C67.5474 40.1163 67.3843 40.1618 67.2756 40.2239C67.0915 40.3282 66.9994 40.4946 66.9994 40.7231ZM68.4504 39.5117C68.588 39.4939 68.6801 39.4362 68.7267 39.3386C68.7533 39.2854 68.7666 39.2088 68.7666 39.109C68.7666 38.9049 68.6934 38.7573 68.5469 38.6663C68.4027 38.5732 68.1953 38.5266 67.9246 38.5266C67.6117 38.5266 67.3899 38.6109 67.259 38.7795C67.1858 38.8727 67.1381 39.0114 67.1159 39.1955H66.5567C66.5678 38.7562 66.7098 38.4511 66.9827 38.2803C67.2579 38.1072 67.5763 38.0207 67.9379 38.0207C68.3572 38.0207 68.6978 38.1006 68.9596 38.2603C69.2192 38.4201 69.349 38.6686 69.349 39.0058V41.0592C69.349 41.1214 69.3612 41.1713 69.3856 41.209C69.4122 41.2467 69.4666 41.2656 69.5487 41.2656C69.5753 41.2656 69.6053 41.2645 69.6385 41.2622C69.6718 41.2578 69.7073 41.2523 69.745 41.2456V41.6882C69.6519 41.7149 69.5809 41.7315 69.532 41.7382C69.4832 41.7448 69.4167 41.7481 69.3324 41.7481C69.126 41.7481 68.9763 41.6749 68.8831 41.5285C68.8343 41.4508 68.7999 41.341 68.7799 41.199C68.6579 41.3588 68.4826 41.4974 68.2541 41.615C68.0255 41.7326 67.7737 41.7914 67.4986 41.7914C67.168 41.7914 66.8973 41.6916 66.6865 41.4919C66.478 41.29 66.3737 41.0382 66.3737 40.7364C66.3737 40.4058 66.4769 40.1496 66.6832 39.9676C66.8896 39.7857 67.1602 39.6736 67.4953 39.6315L68.4504 39.5117ZM72.6105 39.931C72.6105 40.3126 72.6915 40.6321 72.8535 40.8895C73.0154 41.1469 73.275 41.2756 73.6322 41.2756C73.9096 41.2756 74.137 41.1569 74.3145 40.9195C74.4942 40.6798 74.5841 40.337 74.5841 39.8911C74.5841 39.4407 74.492 39.1079 74.3078 38.8927C74.1237 38.6752 73.8963 38.5665 73.6256 38.5665C73.3238 38.5665 73.0787 38.6819 72.8901 38.9126C72.7037 39.1434 72.6105 39.4828 72.6105 39.931ZM73.5124 38.044C73.7853 38.044 74.0139 38.1017 74.198 38.2171C74.3045 38.2836 74.4254 38.4001 74.5608 38.5665V36.766H75.1365V41.6716H74.5974V41.1757C74.4576 41.3954 74.2923 41.554 74.1015 41.6516C73.9107 41.7493 73.6921 41.7981 73.4459 41.7981C73.0487 41.7981 72.7048 41.6317 72.4142 41.2989C72.1235 40.9638 71.9782 40.519 71.9782 39.9643C71.9782 39.4451 72.1102 38.9958 72.3742 38.6164C72.6405 38.2348 73.0199 38.044 73.5124 38.044ZM76.0251 38.1239H76.6342V41.6716H76.0251V38.1239ZM76.0251 36.7827H76.6342V37.4616H76.0251V36.7827ZM80.8142 38.0041C81.2158 38.0041 81.542 38.1017 81.7927 38.2969C82.0456 38.4922 82.1976 38.8283 82.2486 39.3053H81.6662C81.6307 39.0857 81.5497 38.9038 81.4233 38.7595C81.2968 38.6131 81.0938 38.5399 80.8142 38.5399C80.4326 38.5399 80.1597 38.7263 79.9955 39.099C79.889 39.3408 79.8358 39.6393 79.8358 39.9943C79.8358 40.3515 79.9112 40.6521 80.0621 40.8962C80.213 41.1402 80.4504 41.2622 80.7743 41.2622C81.0228 41.2622 81.2191 41.1868 81.3634 41.0359C81.5098 40.8828 81.6107 40.6743 81.6662 40.4103H82.2486C82.1821 40.8828 82.0157 41.229 81.7494 41.4486C81.4832 41.6661 81.1426 41.7748 80.7277 41.7748C80.2618 41.7748 79.8901 41.605 79.6128 41.2656C79.3354 40.9239 79.1968 40.4979 79.1968 39.9876C79.1968 39.3619 79.3488 38.8749 79.6527 38.5266C79.9567 38.1782 80.3439 38.0041 80.8142 38.0041ZM84.2621 41.2855C84.6593 41.2855 84.9311 41.1358 85.0775 40.8363C85.2261 40.5345 85.3005 40.1995 85.3005 39.8312C85.3005 39.4984 85.2472 39.2277 85.1407 39.0191C84.9721 38.6908 84.6815 38.5266 84.2688 38.5266C83.9027 38.5266 83.6364 38.6663 83.47 38.9459C83.3036 39.2255 83.2204 39.5627 83.2204 39.9576C83.2204 40.337 83.3036 40.6532 83.47 40.9061C83.6364 41.1591 83.9005 41.2855 84.2621 41.2855ZM84.2854 38.0041C84.7447 38.0041 85.133 38.1572 85.4502 38.4633C85.7675 38.7695 85.9262 39.2199 85.9262 39.8145C85.9262 40.3892 85.7864 40.864 85.5068 41.239C85.2273 41.6139 84.7935 41.8014 84.2055 41.8014C83.7152 41.8014 83.3258 41.6361 83.0374 41.3055C82.7489 40.9727 82.6047 40.5267 82.6047 39.9676C82.6047 39.3686 82.7567 38.8915 83.0607 38.5366C83.3646 38.1816 83.7729 38.0041 84.2854 38.0041ZM86.6417 38.1072H87.2341V38.6131C87.3761 38.4378 87.5048 38.3102 87.6201 38.2304C87.8176 38.095 88.0417 38.0274 88.2924 38.0274C88.5764 38.0274 88.8049 38.0972 88.978 38.237C89.0756 38.3169 89.1644 38.4345 89.2442 38.5898C89.3774 38.399 89.5338 38.2581 89.7135 38.1671C89.8932 38.074 90.0951 38.0274 90.3192 38.0274C90.7985 38.0274 91.1246 38.2004 91.2977 38.5465C91.3909 38.7329 91.4374 38.9836 91.4374 39.2987V41.6716H90.8151V39.1955C90.8151 38.9581 90.7552 38.795 90.6354 38.7063C90.5178 38.6175 90.3736 38.5732 90.2027 38.5732C89.9675 38.5732 89.7645 38.6519 89.5937 38.8095C89.4251 38.967 89.3408 39.2299 89.3408 39.5982V41.6716H88.7317V39.3453C88.7317 39.1034 88.7029 38.927 88.6452 38.8161C88.5542 38.6497 88.3845 38.5665 88.136 38.5665C87.9097 38.5665 87.7033 38.6541 87.517 38.8294C87.3328 39.0047 87.2407 39.322 87.2407 39.7813V41.6716H86.6417V38.1072ZM93.8237 41.2689C94.1032 41.2689 94.3351 41.1524 94.5192 40.9195C94.7056 40.6843 94.7988 40.3337 94.7988 39.8678C94.7988 39.5838 94.7578 39.3397 94.6757 39.1356C94.5204 38.7429 94.2364 38.5465 93.8237 38.5465C93.4088 38.5465 93.1248 38.754 92.9717 39.1689C92.8896 39.3908 92.8485 39.6725 92.8485 40.0142C92.8485 40.2893 92.8896 40.5234 92.9717 40.7164C93.127 41.0847 93.411 41.2689 93.8237 41.2689ZM92.2728 38.1239H92.8552V38.5965C92.975 38.4345 93.1059 38.3091 93.2479 38.2204C93.4498 38.0873 93.6872 38.0207 93.9601 38.0207C94.3639 38.0207 94.7067 38.176 94.9885 38.4866C95.2703 38.795 95.4112 39.2366 95.4112 39.8112C95.4112 40.5878 95.2082 41.1424 94.8021 41.4752C94.5448 41.686 94.2452 41.7914 93.9035 41.7914C93.6351 41.7914 93.4099 41.7326 93.2279 41.615C93.1214 41.5485 93.0027 41.4342 92.8718 41.2722V43.0927H92.2728V38.1239ZM96.1134 38.1239H96.7224V41.6716H96.1134V38.1239ZM96.1134 36.7827H96.7224V37.4616H96.1134V36.7827ZM97.6476 36.7827H98.2467V41.6716H97.6476V36.7827ZM99.6079 40.7231C99.6079 40.8962 99.6711 41.0326 99.7976 41.1325C99.924 41.2323 100.074 41.2822 100.247 41.2822C100.458 41.2822 100.662 41.2334 100.859 41.1358C101.192 40.9738 101.358 40.7087 101.358 40.3404V39.8578C101.285 39.9044 101.191 39.9432 101.076 39.9743C100.96 40.0053 100.847 40.0275 100.736 40.0408L100.373 40.0874C100.156 40.1163 99.9928 40.1618 99.8841 40.2239C99.6999 40.3282 99.6079 40.4946 99.6079 40.7231ZM101.059 39.5117C101.196 39.4939 101.289 39.4362 101.335 39.3386C101.362 39.2854 101.375 39.2088 101.375 39.109C101.375 38.9049 101.302 38.7573 101.155 38.6663C101.011 38.5732 100.804 38.5266 100.533 38.5266C100.22 38.5266 99.9984 38.6109 99.8675 38.7795C99.7942 38.8727 99.7465 39.0114 99.7244 39.1955H99.1652C99.1763 38.7562 99.3183 38.4511 99.5912 38.2803C99.8664 38.1072 100.185 38.0207 100.546 38.0207C100.966 38.0207 101.306 38.1006 101.568 38.2603C101.828 38.4201 101.957 38.6686 101.957 39.0058V41.0592C101.957 41.1214 101.97 41.1713 101.994 41.209C102.021 41.2467 102.075 41.2656 102.157 41.2656C102.184 41.2656 102.214 41.2645 102.247 41.2622C102.28 41.2578 102.316 41.2523 102.354 41.2456V41.6882C102.26 41.7149 102.189 41.7315 102.141 41.7382C102.092 41.7448 102.025 41.7481 101.941 41.7481C101.735 41.7481 101.585 41.6749 101.492 41.5285C101.443 41.4508 101.408 41.341 101.388 41.199C101.266 41.3588 101.091 41.4974 100.863 41.615C100.634 41.7326 100.382 41.7914 100.107 41.7914C99.7765 41.7914 99.5058 41.6916 99.295 41.4919C99.0865 41.29 98.9822 41.0382 98.9822 40.7364C98.9822 40.4058 99.0854 40.1496 99.2917 39.9676C99.498 39.7857 99.7687 39.6736 100.104 39.6315L101.059 39.5117ZM102.959 38.1072H103.528V38.7229C103.575 38.6031 103.689 38.4578 103.871 38.2869C104.053 38.1139 104.263 38.0274 104.5 38.0274C104.511 38.0274 104.53 38.0285 104.557 38.0307C104.583 38.0329 104.629 38.0373 104.693 38.044V38.6763C104.658 38.6697 104.624 38.6652 104.593 38.663C104.564 38.6608 104.532 38.6597 104.497 38.6597C104.195 38.6597 103.963 38.7573 103.801 38.9526C103.639 39.1456 103.558 39.3686 103.558 39.6215V41.6716H102.959V38.1072ZM106.697 38.0274C106.95 38.0274 107.195 38.0873 107.432 38.2071C107.67 38.3247 107.85 38.4778 107.975 38.6663C108.094 38.8461 108.174 39.0557 108.214 39.2954C108.25 39.4595 108.268 39.7213 108.268 40.0808H105.655C105.666 40.4424 105.751 40.7331 105.911 40.9527C106.071 41.1702 106.318 41.2789 106.653 41.2789C106.966 41.2789 107.216 41.1757 107.402 40.9694C107.509 40.8496 107.584 40.7109 107.629 40.5534H108.218C108.202 40.6843 108.15 40.8307 108.061 40.9927C107.975 41.1524 107.877 41.2833 107.768 41.3854C107.586 41.5629 107.361 41.6827 107.093 41.7448C106.948 41.7803 106.785 41.7981 106.603 41.7981C106.16 41.7981 105.784 41.6372 105.475 41.3155C105.167 40.9916 105.013 40.5389 105.013 39.9576C105.013 39.3852 105.168 38.9204 105.479 38.5632C105.789 38.206 106.195 38.0274 106.697 38.0274ZM107.652 39.6049C107.627 39.3453 107.571 39.1378 107.482 38.9825C107.318 38.6941 107.044 38.5499 106.66 38.5499C106.385 38.5499 106.154 38.6497 105.968 38.8494C105.781 39.0469 105.683 39.2987 105.672 39.6049H107.652ZM110.92 36.7827H111.519V41.6716H110.92V36.7827ZM113.905 38.0274C114.158 38.0274 114.403 38.0873 114.641 38.2071C114.878 38.3247 115.059 38.4778 115.183 38.6663C115.303 38.8461 115.383 39.0557 115.423 39.2954C115.458 39.4595 115.476 39.7213 115.476 40.0808H112.864C112.875 40.4424 112.96 40.7331 113.12 40.9527C113.28 41.1702 113.527 41.2789 113.862 41.2789C114.175 41.2789 114.424 41.1757 114.611 40.9694C114.717 40.8496 114.793 40.7109 114.837 40.5534H115.426C115.411 40.6843 115.359 40.8307 115.27 40.9927C115.183 41.1524 115.086 41.2833 114.977 41.3854C114.795 41.5629 114.57 41.6827 114.301 41.7448C114.157 41.7803 113.994 41.7981 113.812 41.7981C113.368 41.7981 112.992 41.6372 112.684 41.3155C112.375 40.9916 112.221 40.5389 112.221 39.9576C112.221 39.3852 112.377 38.9204 112.687 38.5632C112.998 38.206 113.404 38.0274 113.905 38.0274ZM114.86 39.6049C114.836 39.3453 114.779 39.1378 114.691 38.9825C114.527 38.6941 114.253 38.5499 113.869 38.5499C113.594 38.5499 113.363 38.6497 113.176 38.8494C112.99 39.0469 112.891 39.2987 112.88 39.6049H114.86ZM119.486 38.0041C119.888 38.0041 120.214 38.1017 120.465 38.2969C120.718 38.4922 120.87 38.8283 120.921 39.3053H120.338C120.303 39.0857 120.222 38.9038 120.095 38.7595C119.969 38.6131 119.766 38.5399 119.486 38.5399C119.105 38.5399 118.832 38.7263 118.668 39.099C118.561 39.3408 118.508 39.6393 118.508 39.9943C118.508 40.3515 118.583 40.6521 118.734 40.8962C118.885 41.1402 119.123 41.2622 119.447 41.2622C119.695 41.2622 119.891 41.1868 120.036 41.0359C120.182 40.8828 120.283 40.6743 120.338 40.4103H120.921C120.854 40.8828 120.688 41.229 120.422 41.4486C120.155 41.6661 119.815 41.7748 119.4 41.7748C118.934 41.7748 118.562 41.605 118.285 41.2656C118.008 40.9239 117.869 40.4979 117.869 39.9876C117.869 39.3619 118.021 38.8749 118.325 38.5266C118.629 38.1782 119.016 38.0041 119.486 38.0041ZM121.537 38.1072H122.106V38.7229C122.152 38.6031 122.267 38.4578 122.448 38.2869C122.63 38.1139 122.84 38.0274 123.077 38.0274C123.089 38.0274 123.107 38.0285 123.134 38.0307C123.161 38.0329 123.206 38.0373 123.27 38.044V38.6763C123.235 38.6697 123.202 38.6652 123.171 38.663C123.142 38.6608 123.11 38.6597 123.074 38.6597C122.772 38.6597 122.541 38.7573 122.379 38.9526C122.217 39.1456 122.136 39.3686 122.136 39.6215V41.6716H121.537V38.1072ZM125.274 38.0274C125.527 38.0274 125.772 38.0873 126.009 38.2071C126.247 38.3247 126.428 38.4778 126.552 38.6663C126.672 38.8461 126.752 39.0557 126.792 39.2954C126.827 39.4595 126.845 39.7213 126.845 40.0808H124.232C124.243 40.4424 124.329 40.7331 124.489 40.9527C124.648 41.1702 124.896 41.2789 125.231 41.2789C125.544 41.2789 125.793 41.1757 125.98 40.9694C126.086 40.8496 126.161 40.7109 126.206 40.5534H126.795C126.779 40.6843 126.727 40.8307 126.638 40.9927C126.552 41.1524 126.454 41.2833 126.346 41.3854C126.164 41.5629 125.938 41.6827 125.67 41.7448C125.526 41.7803 125.363 41.7981 125.181 41.7981C124.737 41.7981 124.361 41.6372 124.053 41.3155C123.744 40.9916 123.59 40.5389 123.59 39.9576C123.59 39.3852 123.745 38.9204 124.056 38.5632C124.367 38.206 124.773 38.0274 125.274 38.0274ZM126.229 39.6049C126.205 39.3453 126.148 39.1378 126.059 38.9825C125.895 38.6941 125.621 38.5499 125.237 38.5499C124.962 38.5499 124.732 38.6497 124.545 38.8494C124.359 39.0469 124.26 39.2987 124.249 39.6049H126.229ZM127.963 39.931C127.963 40.3126 128.044 40.6321 128.206 40.8895C128.368 41.1469 128.628 41.2756 128.985 41.2756C129.262 41.2756 129.49 41.1569 129.667 40.9195C129.847 40.6798 129.937 40.337 129.937 39.8911C129.937 39.4407 129.845 39.1079 129.66 38.8927C129.476 38.6752 129.249 38.5665 128.978 38.5665C128.676 38.5665 128.431 38.6819 128.243 38.9126C128.056 39.1434 127.963 39.4828 127.963 39.931ZM128.865 38.044C129.138 38.044 129.366 38.1017 129.551 38.2171C129.657 38.2836 129.778 38.4001 129.913 38.5665V36.766H130.489V41.6716H129.95V41.1757C129.81 41.3954 129.645 41.554 129.454 41.6516C129.263 41.7493 129.045 41.7981 128.798 41.7981C128.401 41.7981 128.057 41.6317 127.767 41.2989C127.476 40.9638 127.331 40.519 127.331 39.9643C127.331 39.4451 127.463 38.9958 127.727 38.6164C127.993 38.2348 128.372 38.044 128.865 38.044ZM132.862 38.0274C133.115 38.0274 133.36 38.0873 133.598 38.2071C133.835 38.3247 134.016 38.4778 134.14 38.6663C134.26 38.8461 134.34 39.0557 134.38 39.2954C134.415 39.4595 134.433 39.7213 134.433 40.0808H131.82C131.831 40.4424 131.917 40.7331 132.077 40.9527C132.236 41.1702 132.484 41.2789 132.819 41.2789C133.132 41.2789 133.381 41.1757 133.568 40.9694C133.674 40.8496 133.749 40.7109 133.794 40.5534H134.383C134.367 40.6843 134.315 40.8307 134.227 40.9927C134.14 41.1524 134.042 41.2833 133.934 41.3854C133.752 41.5629 133.527 41.6827 133.258 41.7448C133.114 41.7803 132.951 41.7981 132.769 41.7981C132.325 41.7981 131.949 41.6372 131.641 41.3155C131.332 40.9916 131.178 40.5389 131.178 39.9576C131.178 39.3852 131.333 38.9204 131.644 38.5632C131.955 38.206 132.361 38.0274 132.862 38.0274ZM133.817 39.6049C133.793 39.3453 133.736 39.1378 133.647 38.9825C133.483 38.6941 133.209 38.5499 132.825 38.5499C132.55 38.5499 132.32 38.6497 132.133 38.8494C131.947 39.0469 131.848 39.2987 131.837 39.6049H133.817ZM135.172 38.1072H135.741V38.6131C135.909 38.4045 136.088 38.2548 136.277 38.1638C136.465 38.0728 136.675 38.0274 136.906 38.0274C137.411 38.0274 137.753 38.2037 137.931 38.5565C138.028 38.7495 138.077 39.0258 138.077 39.3852V41.6716H137.468V39.4251C137.468 39.2077 137.436 39.0324 137.372 38.8993C137.265 38.6774 137.072 38.5665 136.792 38.5665C136.65 38.5665 136.534 38.5809 136.443 38.6098C136.279 38.6586 136.135 38.7562 136.01 38.9026C135.911 39.0202 135.845 39.1423 135.814 39.2687C135.785 39.393 135.771 39.5716 135.771 39.8045V41.6716H135.172V38.1072ZM138.699 41.199L140.813 38.6431H138.856V38.1072H141.618V38.5965L139.518 41.1358H141.681V41.6716H138.699V41.199ZM142.374 38.1239H142.983V41.6716H142.374V38.1239ZM142.374 36.7827H142.983V37.4616H142.374V36.7827ZM144.351 40.7231C144.351 40.8962 144.414 41.0326 144.54 41.1325C144.667 41.2323 144.816 41.2822 144.99 41.2822C145.2 41.2822 145.404 41.2334 145.602 41.1358C145.935 40.9738 146.101 40.7087 146.101 40.3404V39.8578C146.028 39.9044 145.934 39.9432 145.818 39.9743C145.703 40.0053 145.59 40.0275 145.479 40.0408L145.116 40.0874C144.899 40.1163 144.735 40.1618 144.627 40.2239C144.443 40.3282 144.351 40.4946 144.351 40.7231ZM145.802 39.5117C145.939 39.4939 146.031 39.4362 146.078 39.3386C146.104 39.2854 146.118 39.2088 146.118 39.109C146.118 38.9049 146.045 38.7573 145.898 38.6663C145.754 38.5732 145.546 38.5266 145.276 38.5266C144.963 38.5266 144.741 38.6109 144.61 38.7795C144.537 38.8727 144.489 39.0114 144.467 39.1955H143.908C143.919 38.7562 144.061 38.4511 144.334 38.2803C144.609 38.1072 144.927 38.0207 145.289 38.0207C145.708 38.0207 146.049 38.1006 146.311 38.2603C146.57 38.4201 146.7 38.6686 146.7 39.0058V41.0592C146.7 41.1214 146.712 41.1713 146.737 41.209C146.763 41.2467 146.818 41.2656 146.9 41.2656C146.926 41.2656 146.956 41.2645 146.99 41.2622C147.023 41.2578 147.058 41.2523 147.096 41.2456V41.6882C147.003 41.7149 146.932 41.7315 146.883 41.7382C146.834 41.7448 146.768 41.7481 146.683 41.7481C146.477 41.7481 146.327 41.6749 146.234 41.5285C146.185 41.4508 146.151 41.341 146.131 41.199C146.009 41.3588 145.834 41.4974 145.605 41.615C145.377 41.7326 145.125 41.7914 144.85 41.7914C144.519 41.7914 144.248 41.6916 144.038 41.4919C143.829 41.29 143.725 41.0382 143.725 40.7364C143.725 40.4058 143.828 40.1496 144.034 39.9676C144.241 39.7857 144.511 39.6736 144.846 39.6315L145.802 39.5117ZM147.702 36.7827H148.301V41.6716H147.702V36.7827ZM149.203 38.1239H149.812V41.6716H149.203V38.1239ZM149.203 36.7827H149.812V37.4616H149.203V36.7827Z" fill="#333333"/>
<rect x="28.584" y="120.491" width="137.833" height="16.6611" rx="3.02929" fill="#366EB4"/>
<path d="M79.5182 126.976H81.4736C81.8602 126.976 82.1718 127.086 82.4084 127.305C82.6451 127.522 82.7634 127.827 82.7634 128.222C82.7634 128.561 82.6579 128.857 82.4469 129.109C82.2359 129.36 81.9114 129.485 81.4736 129.485H80.1069V131.322H79.5182V126.976ZM82.1688 128.225C82.1688 127.905 82.0505 127.688 81.8138 127.574C81.6837 127.513 81.5052 127.482 81.2784 127.482H80.1069V128.988H81.2784C81.5426 128.988 81.7566 128.932 81.9203 128.819C82.086 128.707 82.1688 128.509 82.1688 128.225ZM84.7514 128.083C84.9762 128.083 85.1942 128.136 85.4052 128.242C85.6162 128.347 85.7769 128.483 85.8874 128.651C85.9939 128.81 86.0649 128.997 86.1004 129.21C86.1319 129.356 86.1477 129.588 86.1477 129.908H83.8255C83.8353 130.229 83.9112 130.488 84.0532 130.683C84.1952 130.876 84.4151 130.973 84.7129 130.973C84.991 130.973 85.2129 130.881 85.3786 130.698C85.4732 130.591 85.5403 130.468 85.5797 130.328H86.1033C86.0895 130.444 86.0432 130.575 85.9643 130.719C85.8874 130.861 85.8006 130.977 85.704 131.068C85.5423 131.225 85.3421 131.332 85.1034 131.387C84.9752 131.419 84.8303 131.434 84.6686 131.434C84.2741 131.434 83.9398 131.291 83.6657 131.005C83.3916 130.718 83.2545 130.315 83.2545 129.798C83.2545 129.29 83.3926 128.876 83.6687 128.559C83.9448 128.241 84.3057 128.083 84.7514 128.083ZM85.6004 129.485C85.5787 129.254 85.5284 129.07 85.4496 128.932C85.3036 128.675 85.0601 128.547 84.7189 128.547C84.4743 128.547 84.2692 128.636 84.1035 128.813C83.9379 128.989 83.8501 129.213 83.8402 129.485H85.6004ZM86.8192 128.154H87.3251V128.701C87.3665 128.594 87.4681 128.465 87.6298 128.313C87.7915 128.16 87.9779 128.083 88.1889 128.083C88.1988 128.083 88.2156 128.084 88.2392 128.086C88.2629 128.088 88.3033 128.092 88.3605 128.097V128.66C88.329 128.654 88.2994 128.65 88.2718 128.648C88.2461 128.646 88.2175 128.645 88.186 128.645C87.9178 128.645 87.7117 128.732 87.5677 128.905C87.4237 129.077 87.3517 129.275 87.3517 129.5V131.322H86.8192V128.154ZM90.9165 130.479C90.9165 130.633 90.9727 130.754 91.0851 130.843C91.1975 130.932 91.3306 130.976 91.4845 130.976C91.6718 130.976 91.8533 130.932 92.0288 130.846C92.3246 130.702 92.4725 130.466 92.4725 130.139V129.71C92.4075 129.751 92.3236 129.786 92.2211 129.813C92.1185 129.841 92.0179 129.861 91.9193 129.872L91.5969 129.914C91.4036 129.939 91.2587 129.98 91.162 130.035C90.9983 130.128 90.9165 130.276 90.9165 130.479ZM92.2063 129.402C92.3286 129.386 92.4104 129.335 92.4518 129.248C92.4755 129.201 92.4873 129.133 92.4873 129.044C92.4873 128.863 92.4222 128.732 92.2921 128.651C92.1639 128.568 91.9795 128.526 91.7389 128.526C91.4608 128.526 91.2636 128.601 91.1472 128.751C91.0821 128.834 91.0397 128.957 91.02 129.121H90.523C90.5329 128.731 90.6591 128.459 90.9017 128.308C91.1462 128.154 91.4292 128.077 91.7507 128.077C92.1235 128.077 92.4262 128.148 92.6589 128.29C92.8897 128.432 93.005 128.653 93.005 128.952V130.778C93.005 130.833 93.0159 130.877 93.0376 130.911C93.0612 130.944 93.1096 130.961 93.1825 130.961C93.2062 130.961 93.2328 130.96 93.2624 130.958C93.292 130.954 93.3235 130.949 93.3571 130.943V131.337C93.2742 131.36 93.2111 131.375 93.1677 131.381C93.1243 131.387 93.0652 131.39 92.9902 131.39C92.8068 131.39 92.6737 131.325 92.5909 131.195C92.5475 131.126 92.5169 131.028 92.4992 130.902C92.3907 131.044 92.2349 131.167 92.0318 131.272C91.8286 131.376 91.6048 131.428 91.3602 131.428C91.0664 131.428 90.8258 131.34 90.6384 131.162C90.453 130.983 90.3603 130.759 90.3603 130.491C90.3603 130.197 90.452 129.969 90.6354 129.807C90.8189 129.646 91.0595 129.546 91.3573 129.509L92.2063 129.402ZM95.1025 128.062C95.4594 128.062 95.7493 128.149 95.9722 128.322C96.197 128.496 96.3321 128.795 96.3775 129.219H95.8598C95.8282 129.023 95.7562 128.862 95.6438 128.733C95.5314 128.603 95.351 128.538 95.1025 128.538C94.7632 128.538 94.5207 128.704 94.3747 129.035C94.2801 129.25 94.2327 129.515 94.2327 129.831C94.2327 130.149 94.2998 130.416 94.4339 130.633C94.568 130.85 94.779 130.958 95.067 130.958C95.2878 130.958 95.4624 130.891 95.5906 130.757C95.7207 130.621 95.8105 130.435 95.8598 130.201H96.3775C96.3183 130.621 96.1704 130.929 95.9337 131.124C95.6971 131.317 95.3943 131.414 95.0255 131.414C94.6114 131.414 94.281 131.263 94.0345 130.961C93.788 130.657 93.6647 130.279 93.6647 129.825C93.6647 129.269 93.7998 128.836 94.07 128.526C94.3402 128.217 94.6844 128.062 95.1025 128.062ZM98.1317 128.062C98.4887 128.062 98.7786 128.149 99.0015 128.322C99.2263 128.496 99.3614 128.795 99.4068 129.219H98.8891C98.8575 129.023 98.7855 128.862 98.6731 128.733C98.5607 128.603 98.3802 128.538 98.1317 128.538C97.7925 128.538 97.5499 128.704 97.404 129.035C97.3093 129.25 97.262 129.515 97.262 129.831C97.262 130.149 97.3291 130.416 97.4632 130.633C97.5973 130.85 97.8083 130.958 98.0962 130.958C98.3171 130.958 98.4917 130.891 98.6199 130.757C98.75 130.621 98.8398 130.435 98.8891 130.201H99.4068C99.3476 130.621 99.1997 130.929 98.963 131.124C98.7264 131.317 98.4236 131.414 98.0548 131.414C97.6407 131.414 97.3103 131.263 97.0638 130.961C96.8173 130.657 96.694 130.279 96.694 129.825C96.694 129.269 96.8291 128.836 97.0993 128.526C97.3695 128.217 97.7136 128.062 98.1317 128.062ZM101.259 128.083C101.483 128.083 101.701 128.136 101.912 128.242C102.123 128.347 102.284 128.483 102.395 128.651C102.501 128.81 102.572 128.997 102.608 129.21C102.639 129.356 102.655 129.588 102.655 129.908H100.333C100.343 130.229 100.419 130.488 100.561 130.683C100.702 130.876 100.922 130.973 101.22 130.973C101.498 130.973 101.72 130.881 101.886 130.698C101.98 130.591 102.048 130.468 102.087 130.328H102.611C102.597 130.444 102.55 130.575 102.472 130.719C102.395 130.861 102.308 130.977 102.211 131.068C102.05 131.225 101.849 131.332 101.611 131.387C101.483 131.419 101.338 131.434 101.176 131.434C100.781 131.434 100.447 131.291 100.173 131.005C99.8988 130.718 99.7618 130.315 99.7618 129.798C99.7618 129.29 99.8998 128.876 100.176 128.559C100.452 128.241 100.813 128.083 101.259 128.083ZM102.108 129.485C102.086 129.254 102.036 129.07 101.957 128.932C101.811 128.675 101.567 128.547 101.226 128.547C100.982 128.547 100.776 128.636 100.611 128.813C100.445 128.989 100.357 129.213 100.348 129.485H102.108ZM103.649 129.775C103.649 130.114 103.721 130.398 103.865 130.627C104.009 130.856 104.24 130.97 104.557 130.97C104.804 130.97 105.006 130.864 105.164 130.653C105.323 130.44 105.403 130.136 105.403 129.739C105.403 129.339 105.321 129.043 105.158 128.852C104.994 128.659 104.792 128.562 104.551 128.562C104.283 128.562 104.065 128.664 103.897 128.87C103.732 129.075 103.649 129.376 103.649 129.775ZM104.451 128.097C104.693 128.097 104.896 128.149 105.06 128.251C105.155 128.31 105.262 128.414 105.383 128.562V126.961H105.894V131.322H105.415V130.881C105.291 131.076 105.144 131.217 104.974 131.304C104.805 131.391 104.61 131.434 104.391 131.434C104.038 131.434 103.733 131.286 103.474 130.991C103.216 130.693 103.087 130.297 103.087 129.804C103.087 129.343 103.204 128.944 103.439 128.606C103.676 128.267 104.013 128.097 104.451 128.097ZM108.004 128.083C108.228 128.083 108.446 128.136 108.657 128.242C108.868 128.347 109.029 128.483 109.14 128.651C109.246 128.81 109.317 128.997 109.353 129.21C109.384 129.356 109.4 129.588 109.4 129.908H107.078C107.087 130.229 107.163 130.488 107.305 130.683C107.447 130.876 107.667 130.973 107.965 130.973C108.243 130.973 108.465 130.881 108.631 130.698C108.725 130.591 108.792 130.468 108.832 130.328H109.355C109.342 130.444 109.295 130.575 109.216 130.719C109.14 130.861 109.053 130.977 108.956 131.068C108.794 131.225 108.594 131.332 108.356 131.387C108.227 131.419 108.082 131.434 107.921 131.434C107.526 131.434 107.192 131.291 106.918 131.005C106.644 130.718 106.507 130.315 106.507 129.798C106.507 129.29 106.645 128.876 106.921 128.559C107.197 128.241 107.558 128.083 108.004 128.083ZM108.853 129.485C108.831 129.254 108.781 129.07 108.702 128.932C108.556 128.675 108.312 128.547 107.971 128.547C107.726 128.547 107.521 128.636 107.356 128.813C107.19 128.989 107.102 129.213 107.092 129.485H108.853ZM110.071 128.154H110.577V128.701C110.619 128.594 110.72 128.465 110.882 128.313C111.044 128.16 111.23 128.083 111.441 128.083C111.451 128.083 111.468 128.084 111.491 128.086C111.515 128.088 111.555 128.092 111.613 128.097V128.66C111.581 128.654 111.552 128.65 111.524 128.648C111.498 128.646 111.47 128.645 111.438 128.645C111.17 128.645 110.964 128.732 110.82 128.905C110.676 129.077 110.604 129.275 110.604 129.5V131.322H110.071V128.154ZM113.394 128.083C113.618 128.083 113.836 128.136 114.047 128.242C114.258 128.347 114.419 128.483 114.53 128.651C114.636 128.81 114.707 128.997 114.743 129.21C114.774 129.356 114.79 129.588 114.79 129.908H112.468C112.477 130.229 112.553 130.488 112.695 130.683C112.837 130.876 113.057 130.973 113.355 130.973C113.633 130.973 113.855 130.881 114.021 130.698C114.115 130.591 114.182 130.468 114.222 130.328H114.745C114.732 130.444 114.685 130.575 114.606 130.719C114.53 130.861 114.443 130.977 114.346 131.068C114.184 131.225 113.984 131.332 113.746 131.387C113.617 131.419 113.472 131.434 113.311 131.434C112.916 131.434 112.582 131.291 112.308 131.005C112.034 130.718 111.897 130.315 111.897 129.798C111.897 129.29 112.035 128.876 112.311 128.559C112.587 128.241 112.948 128.083 113.394 128.083ZM114.243 129.485C114.221 129.254 114.171 129.07 114.092 128.932C113.946 128.675 113.702 128.547 113.361 128.547C113.116 128.547 112.911 128.636 112.746 128.813C112.58 128.989 112.492 129.213 112.482 129.485H114.243Z" fill="white"/>
<path d="M28.584 69.372V69.372C28.9204 69.847 29.4662 70.1293 30.0483 70.1293H164.952C165.534 70.1293 166.08 69.847 166.417 69.372V69.372" stroke="#404040" stroke-width="0.378661" stroke-linecap="round"/>
<path d="M33.2163 63.3833C33.4271 63.3833 33.6314 63.4332 33.8292 63.5331C34.0271 63.631 34.1777 63.7586 34.2813 63.9158C34.3811 64.0655 34.4477 64.2403 34.481 64.44C34.5106 64.5768 34.5253 64.7949 34.5253 65.0945H32.3482C32.3575 65.3959 32.4287 65.6381 32.5618 65.8211C32.6949 66.0023 32.9011 66.0929 33.1803 66.0929C33.4409 66.0929 33.649 66.0069 33.8043 65.835C33.893 65.7351 33.9559 65.6196 33.9929 65.4883H34.4837C34.4708 65.5974 34.4274 65.7194 34.3534 65.8544C34.2813 65.9875 34.1999 66.0966 34.1093 66.1816C33.9577 66.3296 33.7701 66.4294 33.5463 66.4812C33.4262 66.5108 33.2903 66.5255 33.1386 66.5255C32.7689 66.5255 32.4555 66.3915 32.1985 66.1234C31.9415 65.8535 31.813 65.4763 31.813 64.9919C31.813 64.5148 31.9424 64.1275 32.2012 63.8298C32.4601 63.5321 32.7984 63.3833 33.2163 63.3833ZM34.0123 64.6979C33.9919 64.4816 33.9448 64.3087 33.8708 64.1793C33.734 63.9389 33.5057 63.8187 33.1858 63.8187C32.9565 63.8187 32.7642 63.9019 32.6089 64.0683C32.4536 64.2329 32.3713 64.4427 32.3621 64.6979H34.0123ZM34.915 63.4499H35.5612L36.2434 64.4954L36.934 63.4499L37.5414 63.4637L36.5402 64.8976L37.5857 66.4202H36.9479L36.2101 65.3053L35.4946 66.4202H34.8623L35.9078 64.8976L34.915 63.4499ZM38.4773 65.6297C38.4773 65.774 38.53 65.8877 38.6354 65.9709C38.7408 66.0541 38.8656 66.0957 39.0098 66.0957C39.1855 66.0957 39.3556 66.055 39.5201 65.9736C39.7975 65.8387 39.9361 65.6177 39.9361 65.3108V64.9087C39.8751 64.9475 39.7965 64.9798 39.7004 65.0057C39.6042 65.0316 39.51 65.0501 39.4175 65.0612L39.1152 65.1C38.934 65.1241 38.7981 65.162 38.7075 65.2137C38.5541 65.3006 38.4773 65.4393 38.4773 65.6297ZM39.6865 64.6202C39.8012 64.6054 39.8779 64.5574 39.9167 64.476C39.9389 64.4316 39.95 64.3678 39.95 64.2846C39.95 64.1145 39.889 63.9916 39.767 63.9158C39.6468 63.8381 39.4739 63.7993 39.2483 63.7993C38.9876 63.7993 38.8027 63.8696 38.6937 64.0101C38.6326 64.0877 38.5929 64.2033 38.5744 64.3568H38.1085C38.1177 63.9907 38.236 63.7364 38.4635 63.5941C38.6927 63.4499 38.958 63.3777 39.2594 63.3777C39.6089 63.3777 39.8927 63.4443 40.1109 63.5774C40.3272 63.7106 40.4353 63.9176 40.4353 64.1987V65.9099C40.4353 65.9616 40.4455 66.0032 40.4659 66.0347C40.488 66.0661 40.5333 66.0818 40.6017 66.0818C40.6239 66.0818 40.6489 66.0809 40.6766 66.079C40.7044 66.0753 40.7339 66.0707 40.7654 66.0652V66.434C40.6877 66.4562 40.6286 66.4701 40.5879 66.4756C40.5472 66.4812 40.4917 66.4839 40.4215 66.4839C40.2495 66.4839 40.1247 66.4229 40.0471 66.3009C40.0064 66.2362 39.9777 66.1447 39.9611 66.0263C39.8594 66.1595 39.7133 66.275 39.5229 66.373C39.3325 66.471 39.1226 66.52 38.8933 66.52C38.6178 66.52 38.3923 66.4368 38.2166 66.2704C38.0428 66.1021 37.9559 65.8923 37.9559 65.6408C37.9559 65.3653 38.0419 65.1518 38.2139 65.0002C38.3858 64.8486 38.6114 64.7552 38.8906 64.7201L39.6865 64.6202ZM41.3131 63.4499H41.8067V63.8714C41.9251 63.7253 42.0323 63.619 42.1284 63.5525C42.293 63.4397 42.4797 63.3833 42.6887 63.3833C42.9253 63.3833 43.1158 63.4415 43.26 63.558C43.3413 63.6246 43.4153 63.7226 43.4819 63.852C43.5928 63.693 43.7231 63.5756 43.8729 63.4998C44.0227 63.4221 44.1909 63.3833 44.3777 63.3833C44.777 63.3833 45.0488 63.5275 45.193 63.8159C45.2707 63.9712 45.3095 64.1802 45.3095 64.4427V66.4202H44.7909V64.3568C44.7909 64.1589 44.741 64.023 44.6411 63.9491C44.5431 63.8751 44.423 63.8381 44.2806 63.8381C44.0846 63.8381 43.9154 63.9038 43.7731 64.035C43.6326 64.1663 43.5623 64.3854 43.5623 64.6923V66.4202H43.0548V64.4816C43.0548 64.28 43.0307 64.133 42.9827 64.0406C42.9068 63.9019 42.7654 63.8326 42.5583 63.8326C42.3697 63.8326 42.1978 63.9056 42.0425 64.0517C41.889 64.1977 41.8123 64.4621 41.8123 64.8449V66.4202H41.3131V63.4499ZM47.3549 66.0846C47.5878 66.0846 47.781 65.9875 47.9345 65.7934C48.0898 65.5974 48.1675 65.3053 48.1675 64.917C48.1675 64.6803 48.1333 64.4769 48.0648 64.3068C47.9354 63.9796 47.6988 63.8159 47.3549 63.8159C47.0091 63.8159 46.7724 63.9888 46.6449 64.3346C46.5765 64.5195 46.5423 64.7543 46.5423 65.039C46.5423 65.2683 46.5765 65.4633 46.6449 65.6242C46.7743 65.9311 47.011 66.0846 47.3549 66.0846ZM46.0625 63.4637H46.5478V63.8575C46.6476 63.7226 46.7567 63.6181 46.8751 63.5441C47.0433 63.4332 47.2411 63.3777 47.4686 63.3777C47.8051 63.3777 48.0907 63.5072 48.3255 63.766C48.5604 64.023 48.6778 64.391 48.6778 64.8698C48.6778 65.517 48.5086 65.9792 48.1702 66.2565C47.9558 66.4322 47.7062 66.52 47.4214 66.52C47.1977 66.52 47.01 66.471 46.8584 66.373C46.7697 66.3175 46.6708 66.2223 46.5617 66.0874V67.6044H46.0625V63.4637ZM49.3336 62.346H49.8328V66.4202H49.3336V62.346ZM51.8782 63.3833C52.0889 63.3833 52.2932 63.4332 52.4911 63.5331C52.6889 63.631 52.8396 63.7586 52.9431 63.9158C53.043 64.0655 53.1095 64.2403 53.1428 64.44C53.1724 64.5768 53.1872 64.7949 53.1872 65.0945H51.0101C51.0193 65.3959 51.0905 65.6381 51.2236 65.8211C51.3568 66.0023 51.5629 66.0929 51.8421 66.0929C52.1028 66.0929 52.3108 66.0069 52.4661 65.835C52.5549 65.7351 52.6177 65.6196 52.6547 65.4883H53.1456C53.1327 65.5974 53.0892 65.7194 53.0152 65.8544C52.9431 65.9875 52.8618 66.0966 52.7712 66.1816C52.6196 66.3296 52.4319 66.4294 52.2082 66.4812C52.088 66.5108 51.9521 66.5255 51.8005 66.5255C51.4307 66.5255 51.1173 66.3915 50.8603 66.1234C50.6033 65.8535 50.4748 65.4763 50.4748 64.9919C50.4748 64.5148 50.6042 64.1275 50.8631 63.8298C51.1219 63.5321 51.4603 63.3833 51.8782 63.3833ZM52.6741 64.6979C52.6538 64.4816 52.6066 64.3087 52.5327 64.1793C52.3959 63.9389 52.1675 63.8187 51.8476 63.8187C51.6184 63.8187 51.4261 63.9019 51.2708 64.0683C51.1155 64.2329 51.0332 64.4427 51.0239 64.6979H52.6741ZM56.9576 63.9435C56.9576 63.8289 56.9187 63.7263 56.8411 63.6357C56.7653 63.5432 56.6599 63.497 56.5249 63.497C56.3141 63.497 56.1311 63.6218 55.9758 63.8714C55.8223 64.1192 55.7456 64.366 55.7456 64.6119C55.7456 64.7931 55.7854 64.9318 55.8649 65.0279C55.9444 65.1222 56.0442 65.1694 56.1644 65.1694C56.414 65.1694 56.6081 65.0242 56.7468 64.7339C56.8873 64.4418 56.9576 64.1783 56.9576 63.9435ZM56.4057 66.5394C55.6328 66.5394 55.0375 66.2981 54.6196 65.8156C54.2849 65.4291 54.1176 64.9826 54.1176 64.476C54.1176 63.8733 54.321 63.3611 54.7278 62.9395C55.1789 62.4699 55.7844 62.2351 56.5443 62.2351C57.2026 62.2351 57.7203 62.4015 58.0974 62.7343C58.4506 63.0486 58.6272 63.4563 58.6272 63.9574C58.6272 64.3789 58.5005 64.7395 58.2472 65.039C57.9957 65.3367 57.7138 65.4855 57.4013 65.4855C57.2183 65.4855 57.0833 65.4421 56.9964 65.3552C56.9095 65.2664 56.8661 65.1601 56.8661 65.0362C56.8661 65.0159 56.8679 64.9946 56.8716 64.9724C56.8753 64.9503 56.8799 64.9271 56.8855 64.9031C56.7875 65.1157 56.6636 65.2664 56.5138 65.3552C56.3641 65.4421 56.2097 65.4855 56.0507 65.4855C55.8233 65.4855 55.6384 65.4032 55.496 65.2387C55.3555 65.0741 55.2852 64.8624 55.2852 64.6036C55.2852 64.2356 55.4054 63.9112 55.6458 63.6301C55.888 63.3491 56.1477 63.2086 56.4251 63.2086C56.6137 63.2086 56.769 63.2631 56.891 63.3722C57.0149 63.4813 57.0805 63.6126 57.0879 63.766L57.2266 63.3001H57.6343L57.2654 64.5148C57.2377 64.6091 57.2173 64.6849 57.2044 64.7423C57.1915 64.7996 57.185 64.8504 57.185 64.8948C57.185 64.978 57.21 65.039 57.2599 65.0778C57.3116 65.1148 57.3699 65.1333 57.4346 65.1333C57.6454 65.1333 57.834 65.0233 58.0004 64.8033C58.1686 64.5832 58.2528 64.2957 58.2528 63.9407C58.2528 63.5118 58.103 63.1753 57.8035 62.9312C57.5039 62.6853 57.1009 62.5624 56.5943 62.5624C55.8917 62.5624 55.3546 62.7676 54.9829 63.1781C54.6649 63.5275 54.5059 63.9666 54.5059 64.4954C54.5059 64.9577 54.6575 65.3459 54.9607 65.6602C55.3157 66.0319 55.8214 66.2177 56.4778 66.2177C56.7847 66.2177 57.0704 66.1696 57.3348 66.0735C57.5992 65.9755 57.8414 65.8442 58.0614 65.6797L58.2444 65.9293C58.078 66.0772 57.8293 66.2159 57.4984 66.3453C57.1674 66.4747 56.8032 66.5394 56.4057 66.5394ZM60.7335 63.3972C60.9665 63.3972 61.1698 63.4545 61.3436 63.5691C61.4379 63.6338 61.5341 63.7281 61.6321 63.852V63.4776H62.0925V66.1789C62.0925 66.5561 62.037 66.8537 61.9261 67.0719C61.719 67.475 61.3279 67.6765 60.7529 67.6765C60.433 67.6765 60.164 67.6044 59.9459 67.4602C59.7277 67.3178 59.6056 67.0941 59.5798 66.789H60.0873C60.1113 66.9221 60.1594 67.0248 60.2315 67.0969C60.3443 67.2078 60.5218 67.2633 60.764 67.2633C61.1467 67.2633 61.3973 67.1283 61.5156 66.8584C61.5859 66.6993 61.6182 66.4155 61.6127 66.0069C61.5128 66.1585 61.3926 66.2713 61.2521 66.3453C61.1116 66.4192 60.9258 66.4562 60.6947 66.4562C60.373 66.4562 60.091 66.3425 59.8488 66.1151C59.6084 65.8858 59.4882 65.5077 59.4882 64.9808C59.4882 64.4834 59.6093 64.0951 59.8516 63.8159C60.0956 63.5368 60.3896 63.3972 60.7335 63.3972ZM61.6321 64.9225C61.6321 64.5546 61.5563 64.2819 61.4047 64.1044C61.253 63.9269 61.0598 63.8381 60.825 63.8381C60.4737 63.8381 60.2334 64.0027 60.1039 64.3318C60.0355 64.5074 60.0013 64.7376 60.0013 65.0224C60.0013 65.357 60.0688 65.6122 60.2038 65.7878C60.3406 65.9616 60.5236 66.0485 60.7529 66.0485C61.1116 66.0485 61.364 65.8867 61.51 65.5632C61.5914 65.3801 61.6321 65.1666 61.6321 64.9225ZM62.9036 63.4499H63.3973V63.8714C63.5156 63.7253 63.6229 63.619 63.719 63.5525C63.8836 63.4397 64.0703 63.3833 64.2792 63.3833C64.5159 63.3833 64.7063 63.4415 64.8505 63.558C64.9319 63.6246 65.0059 63.7226 65.0724 63.852C65.1834 63.693 65.3137 63.5756 65.4635 63.4998C65.6132 63.4221 65.7815 63.3833 65.9682 63.3833C66.3676 63.3833 66.6394 63.5275 66.7836 63.8159C66.8613 63.9712 66.9001 64.1802 66.9001 64.4427V66.4202H66.3815V64.3568C66.3815 64.1589 66.3315 64.023 66.2317 63.9491C66.1337 63.8751 66.0135 63.8381 65.8712 63.8381C65.6752 63.8381 65.506 63.9038 65.3636 64.035C65.2231 64.1663 65.1528 64.3854 65.1528 64.6923V66.4202H64.6453V64.4816C64.6453 64.28 64.6213 64.133 64.5732 64.0406C64.4974 63.9019 64.356 63.8326 64.1489 63.8326C63.9603 63.8326 63.7883 63.9056 63.633 64.0517C63.4796 64.1977 63.4028 64.4621 63.4028 64.8449V66.4202H62.9036V63.4499ZM68.0746 65.6297C68.0746 65.774 68.1273 65.8877 68.2326 65.9709C68.338 66.0541 68.4628 66.0957 68.6071 66.0957C68.7827 66.0957 68.9528 66.055 69.1174 65.9736C69.3947 65.8387 69.5334 65.6177 69.5334 65.3108V64.9087C69.4724 64.9475 69.3938 64.9798 69.2976 65.0057C69.2015 65.0316 69.1072 65.0501 69.0147 65.0612L68.7124 65.1C68.5313 65.1241 68.3954 65.162 68.3048 65.2137C68.1513 65.3006 68.0746 65.4393 68.0746 65.6297ZM69.2838 64.6202C69.3984 64.6054 69.4751 64.5574 69.514 64.476C69.5361 64.4316 69.5472 64.3678 69.5472 64.2846C69.5472 64.1145 69.4862 63.9916 69.3642 63.9158C69.244 63.8381 69.0711 63.7993 68.8456 63.7993C68.5849 63.7993 68.4 63.8696 68.2909 64.0101C68.2299 64.0877 68.1901 64.2033 68.1716 64.3568H67.7057C67.7149 63.9907 67.8333 63.7364 68.0607 63.5941C68.29 63.4499 68.5553 63.3777 68.8567 63.3777C69.2061 63.3777 69.4899 63.4443 69.7081 63.5774C69.9244 63.7106 70.0326 63.9176 70.0326 64.1987V65.9099C70.0326 65.9616 70.0428 66.0032 70.0631 66.0347C70.0853 66.0661 70.1306 66.0818 70.199 66.0818C70.2212 66.0818 70.2461 66.0809 70.2739 66.079C70.3016 66.0753 70.3312 66.0707 70.3626 66.0652V66.434C70.285 66.4562 70.2258 66.4701 70.1851 66.4756C70.1444 66.4812 70.089 66.4839 70.0187 66.4839C69.8468 66.4839 69.722 66.4229 69.6443 66.3009C69.6036 66.2362 69.575 66.1447 69.5583 66.0263C69.4566 66.1595 69.3106 66.275 69.1201 66.373C68.9297 66.471 68.7198 66.52 68.4906 66.52C68.2151 66.52 67.9895 66.4368 67.8139 66.2704C67.6401 66.1021 67.5532 65.8923 67.5532 65.6408C67.5532 65.3653 67.6391 65.1518 67.8111 65.0002C67.983 64.8486 68.2086 64.7552 68.4878 64.7201L69.2838 64.6202Z" fill="#404040"/>
<path d="M70.9941 60.6628V68.236" stroke="#D7D7D7" stroke-width="0.567992"/>
<path d="M31.9849 56.0241H32.3566V58.7402H31.9849V56.0241ZM32.9491 56.76H33.2653V57.041C33.3589 56.9252 33.4582 56.842 33.5629 56.7914C33.6677 56.7409 33.7842 56.7156 33.9124 56.7156C34.1934 56.7156 34.3833 56.8136 34.4819 57.0096C34.5361 57.1168 34.5632 57.2703 34.5632 57.47V58.7402H34.2249V57.4922C34.2249 57.3714 34.207 57.274 34.1712 57.2C34.1121 57.0768 34.0048 57.0151 33.8495 57.0151C33.7706 57.0151 33.7059 57.0231 33.6554 57.0392C33.5642 57.0663 33.4841 57.1205 33.415 57.2019C33.3596 57.2672 33.3232 57.335 33.3059 57.4053C33.2899 57.4743 33.2819 57.5735 33.2819 57.7029V58.7402H32.9491V56.76ZM35.3055 57.7732C35.3055 57.9852 35.3505 58.1627 35.4405 58.3057C35.5305 58.4487 35.6747 58.5202 35.8731 58.5202C36.0272 58.5202 36.1536 58.4542 36.2522 58.3223C36.352 58.1892 36.4019 57.9988 36.4019 57.751C36.4019 57.5008 36.3508 57.3159 36.2485 57.1963C36.1462 57.0755 36.0198 57.0151 35.8694 57.0151C35.7018 57.0151 35.5656 57.0792 35.4608 57.2074C35.3573 57.3356 35.3055 57.5242 35.3055 57.7732ZM35.8066 56.7249C35.9582 56.7249 36.0852 56.7569 36.1875 56.821C36.2466 56.858 36.3138 56.9227 36.389 57.0151V56.0149H36.7089V58.7402H36.4093V58.4647C36.3317 58.5867 36.2398 58.6749 36.1338 58.7291C36.0278 58.7833 35.9064 58.8104 35.7696 58.8104C35.549 58.8104 35.3579 58.718 35.1964 58.5331C35.035 58.347 34.9542 58.0998 34.9542 57.7917C34.9542 57.5033 35.0276 57.2536 35.1742 57.0429C35.3222 56.8309 35.5329 56.7249 35.8066 56.7249ZM37.2404 56.7692H37.5787V58.7402H37.2404V56.7692ZM37.2404 56.0241H37.5787V56.4013H37.2404V56.0241ZM38.1306 56.76H38.4468V57.102C38.4727 57.0355 38.5361 56.9547 38.6372 56.8598C38.7383 56.7637 38.8548 56.7156 38.9867 56.7156C38.9928 56.7156 39.0033 56.7162 39.0181 56.7175C39.0329 56.7187 39.0582 56.7212 39.0939 56.7249V57.0762C39.0742 57.0725 39.0557 57.07 39.0384 57.0688C39.0224 57.0675 39.0045 57.0669 38.9848 57.0669C38.8172 57.0669 38.6884 57.1211 38.5984 57.2296C38.5084 57.3369 38.4634 57.4607 38.4634 57.6012V58.7402H38.1306V56.76ZM39.4202 56.7692H39.7586V58.7402H39.4202V56.7692ZM39.4202 56.0241H39.7586V56.4013H39.4202V56.0241ZM40.1533 58.4776L41.3273 57.0577H40.2402V56.76H41.7748V57.0318L40.6081 58.4425H41.8099V58.7402H40.1533V58.4776ZM42.0844 58.4776L43.2585 57.0577H42.1713V56.76H43.706V57.0318L42.5393 58.4425H43.7411V58.7402H42.0844V58.4776ZM44.9493 58.5257C45.17 58.5257 45.321 58.4425 45.4023 58.2761C45.4849 58.1085 45.5262 57.9223 45.5262 57.7177C45.5262 57.5328 45.4966 57.3825 45.4374 57.2666C45.3438 57.0842 45.1823 56.9929 44.953 56.9929C44.7496 56.9929 44.6017 57.0706 44.5093 57.2259C44.4168 57.3812 44.3706 57.5686 44.3706 57.788C44.3706 57.9988 44.4168 58.1744 44.5093 58.3149C44.6017 58.4555 44.7484 58.5257 44.9493 58.5257ZM44.9623 56.7027C45.2174 56.7027 45.4331 56.7877 45.6094 56.9578C45.7857 57.1279 45.8738 57.3781 45.8738 57.7085C45.8738 58.0277 45.7961 58.2915 45.6408 58.4998C45.4855 58.7081 45.2445 58.8123 44.9179 58.8123C44.6455 58.8123 44.4292 58.7205 44.2689 58.5368C44.1087 58.3519 44.0286 58.1042 44.0286 57.7935C44.0286 57.4607 44.113 57.1957 44.2819 56.9985C44.4507 56.8013 44.6775 56.7027 44.9623 56.7027ZM48.2256 56.7156C48.3661 56.7156 48.5023 56.7489 48.6342 56.8155C48.7661 56.8808 48.8665 56.9658 48.9355 57.0706C49.0021 57.1704 49.0465 57.2869 49.0687 57.4201C49.0884 57.5113 49.0983 57.6567 49.0983 57.8564H47.6468C47.653 58.0573 47.7005 58.2188 47.7892 58.3408C47.878 58.4616 48.0154 58.522 48.2015 58.522C48.3753 58.522 48.514 58.4647 48.6175 58.3501C48.6767 58.2835 48.7186 58.2065 48.7433 58.1189H49.0705C49.0619 58.1917 49.0329 58.273 48.9836 58.363C48.9355 58.4518 48.8813 58.5245 48.8209 58.5812C48.7198 58.6798 48.5947 58.7464 48.4456 58.7809C48.3655 58.8006 48.2749 58.8104 48.1738 58.8104C47.9273 58.8104 47.7183 58.7211 47.547 58.5424C47.3757 58.3624 47.29 58.1109 47.29 57.788C47.29 57.47 47.3763 57.2117 47.5488 57.0133C47.7214 56.8148 47.947 56.7156 48.2256 56.7156ZM48.7562 57.592C48.7426 57.4478 48.7112 57.3325 48.6619 57.2463C48.5707 57.086 48.4185 57.0059 48.2052 57.0059C48.0524 57.0059 47.9242 57.0614 47.8206 57.1723C47.7171 57.282 47.6622 57.4219 47.6561 57.592H48.7562ZM49.5466 56.76H49.8757V57.041C49.9546 56.9436 50.0261 56.8728 50.0902 56.8284C50.1999 56.7532 50.3244 56.7156 50.4637 56.7156C50.6214 56.7156 50.7484 56.7544 50.8445 56.8321C50.8988 56.8765 50.9481 56.9418 50.9924 57.0281C51.0664 56.9221 51.1533 56.8438 51.2531 56.7933C51.353 56.7415 51.4652 56.7156 51.5897 56.7156C51.8559 56.7156 52.0371 56.8118 52.1332 57.004C52.185 57.1076 52.2109 57.2469 52.2109 57.4219V58.7402H51.8651V57.3646C51.8651 57.2327 51.8319 57.1421 51.7653 57.0928C51.7 57.0435 51.6198 57.0188 51.5249 57.0188C51.3943 57.0188 51.2815 57.0626 51.1866 57.1501C51.0929 57.2376 51.0461 57.3837 51.0461 57.5883V58.7402H50.7077V57.4478C50.7077 57.3134 50.6917 57.2154 50.6596 57.1538C50.6091 57.0614 50.5148 57.0151 50.3768 57.0151C50.251 57.0151 50.1364 57.0638 50.0329 57.1612C49.9305 57.2586 49.8794 57.4348 49.8794 57.69V58.7402H49.5466V56.76ZM52.9939 58.2132C52.9939 58.3094 53.029 58.3852 53.0993 58.4407C53.1695 58.4961 53.2527 58.5239 53.3489 58.5239C53.466 58.5239 53.5794 58.4967 53.6891 58.4425C53.874 58.3525 53.9664 58.2052 53.9664 58.0006V57.7325C53.9257 57.7584 53.8734 57.78 53.8093 57.7972C53.7452 57.8145 53.6823 57.8268 53.6207 57.8342L53.4191 57.8601C53.2983 57.8761 53.2077 57.9014 53.1473 57.9359C53.045 57.9938 52.9939 58.0863 52.9939 58.2132ZM53.8 57.5402C53.8764 57.5304 53.9276 57.4983 53.9535 57.4441C53.9683 57.4145 53.9757 57.372 53.9757 57.3165C53.9757 57.2031 53.935 57.1211 53.8536 57.0706C53.7735 57.0188 53.6583 56.9929 53.5079 56.9929C53.3341 56.9929 53.2108 57.0398 53.1381 57.1335C53.0974 57.1852 53.0709 57.2623 53.0586 57.3646H52.748C52.7541 57.1205 52.833 56.951 52.9846 56.8561C53.1375 56.76 53.3144 56.7119 53.5153 56.7119C53.7482 56.7119 53.9374 56.7563 54.0829 56.845C54.2271 56.9338 54.2992 57.0718 54.2992 57.2592V58.4C54.2992 58.4345 54.306 58.4622 54.3196 58.4832C54.3344 58.5041 54.3646 58.5146 54.4102 58.5146C54.4249 58.5146 54.4416 58.514 54.4601 58.5128C54.4786 58.5103 54.4983 58.5072 54.5192 58.5035V58.7494C54.4675 58.7642 54.428 58.7735 54.4009 58.7772C54.3738 58.7809 54.3368 58.7827 54.29 58.7827C54.1753 58.7827 54.0921 58.742 54.0404 58.6607C54.0133 58.6175 53.9941 58.5565 53.9831 58.4776C53.9153 58.5664 53.8179 58.6434 53.6909 58.7088C53.564 58.7741 53.4241 58.8068 53.2712 58.8068C53.0876 58.8068 52.9372 58.7513 52.8201 58.6403C52.7042 58.5282 52.6463 58.3883 52.6463 58.2206C52.6463 58.037 52.7036 57.8946 52.8182 57.7935C52.9329 57.6925 53.0832 57.6302 53.2694 57.6068L53.8 57.5402ZM54.8844 56.7692H55.2227V58.7402H54.8844V56.7692ZM54.8844 56.0241H55.2227V56.4013H54.8844V56.0241ZM55.7746 56.0241H56.1074V58.7402H55.7746V56.0241Z" fill="#366EB4"/>
<path d="M28.584 91.7132V91.7132C28.9204 92.1882 29.4662 92.4705 30.0483 92.4705H164.952C165.534 92.4705 166.08 92.1882 166.417 91.7132V91.7132" stroke="#404040" stroke-width="0.378661" stroke-linecap="round"/>
<path d="M32.0986 84.6872H33.9318C34.2942 84.6872 34.5864 84.7898 34.8082 84.995C35.0301 85.1984 35.141 85.485 35.141 85.8548C35.141 86.1728 35.0421 86.4501 34.8443 86.6868C34.6465 86.9216 34.3423 87.039 33.9318 87.039H32.6505V88.7613H32.0986V84.6872ZM34.5836 85.8575C34.5836 85.558 34.4727 85.3546 34.2508 85.2474C34.1288 85.1901 33.9614 85.1614 33.7488 85.1614H32.6505V86.5731H33.7488C33.9966 86.5731 34.1972 86.5204 34.3506 86.415C34.5059 86.3096 34.5836 86.1238 34.5836 85.8575ZM36.2074 87.9709C36.2074 88.1151 36.2601 88.2288 36.3654 88.312C36.4708 88.3952 36.5956 88.4368 36.7398 88.4368C36.9155 88.4368 37.0856 88.3961 37.2502 88.3148C37.5275 88.1798 37.6662 87.9589 37.6662 87.6519V87.2498C37.6051 87.2886 37.5266 87.321 37.4304 87.3469C37.3343 87.3727 37.24 87.3912 37.1475 87.4023L36.8452 87.4412C36.664 87.4652 36.5281 87.5031 36.4375 87.5549C36.2841 87.6418 36.2074 87.7804 36.2074 87.9709ZM37.4166 86.9614C37.5312 86.9466 37.6079 86.8985 37.6467 86.8171C37.6689 86.7728 37.68 86.709 37.68 86.6258C37.68 86.4557 37.619 86.3327 37.497 86.2569C37.3768 86.1793 37.2039 86.1404 36.9784 86.1404C36.7177 86.1404 36.5328 86.2107 36.4237 86.3512C36.3627 86.4289 36.3229 86.5444 36.3044 86.6979H35.8385C35.8477 86.3318 35.9661 86.0776 36.1935 85.9352C36.4228 85.791 36.6881 85.7189 36.9895 85.7189C37.3389 85.7189 37.6227 85.7854 37.8409 85.9186C38.0572 86.0517 38.1654 86.2588 38.1654 86.5398V88.251C38.1654 88.3028 38.1755 88.3444 38.1959 88.3758C38.2181 88.4072 38.2634 88.4229 38.3318 88.4229C38.354 88.4229 38.3789 88.422 38.4067 88.4202C38.4344 88.4165 38.464 88.4118 38.4954 88.4063V88.7752C38.4178 88.7973 38.3586 88.8112 38.3179 88.8168C38.2772 88.8223 38.2218 88.8251 38.1515 88.8251C37.9796 88.8251 37.8548 88.7641 37.7771 88.642C37.7364 88.5773 37.7078 88.4858 37.6911 88.3675C37.5894 88.5006 37.4434 88.6162 37.2529 88.7141C37.0625 88.8121 36.8526 88.8611 36.6234 88.8611C36.3479 88.8611 36.1223 88.7779 35.9467 88.6115C35.7729 88.4433 35.686 88.2334 35.686 87.982C35.686 87.7065 35.7719 87.4929 35.9439 87.3413C36.1158 87.1897 36.3414 87.0963 36.6206 87.0612L37.4166 86.9614ZM39.057 85.791H39.5312V86.3041C39.57 86.2042 39.6653 86.0831 39.8169 85.9407C39.9685 85.7965 40.1432 85.7244 40.341 85.7244C40.3503 85.7244 40.366 85.7253 40.3882 85.7272C40.4104 85.729 40.4483 85.7327 40.5019 85.7383V86.2652C40.4723 86.2597 40.4446 86.256 40.4187 86.2541C40.3947 86.2523 40.3679 86.2514 40.3383 86.2514C40.0868 86.2514 39.8936 86.3327 39.7586 86.4954C39.6237 86.6563 39.5562 86.8421 39.5562 87.0529V88.7613H39.057V85.791ZM42.17 88.4396C42.501 88.4396 42.7275 88.3148 42.8495 88.0652C42.9734 87.8137 43.0353 87.5345 43.0353 87.2276C43.0353 86.9503 42.991 86.7247 42.9022 86.5509C42.7617 86.2773 42.5195 86.1404 42.1756 86.1404C41.8705 86.1404 41.6486 86.2569 41.51 86.4899C41.3713 86.7228 41.302 87.0039 41.302 87.333C41.302 87.6492 41.3713 87.9126 41.51 88.1234C41.6486 88.3342 41.8687 88.4396 42.17 88.4396ZM42.1895 85.705C42.5722 85.705 42.8958 85.8326 43.1602 86.0877C43.4245 86.3429 43.5567 86.7182 43.5567 87.2137C43.5567 87.6926 43.4403 88.0883 43.2073 88.4007C42.9743 88.7132 42.6129 88.8695 42.1229 88.8695C41.7143 88.8695 41.3898 88.7317 41.1494 88.4562C40.9091 88.1789 40.7889 87.8072 40.7889 87.3413C40.7889 86.8421 40.9155 86.4446 41.1689 86.1488C41.4222 85.8529 41.7624 85.705 42.1895 85.705ZM44.2237 84.6872H44.7229V88.7613H44.2237V84.6872ZM45.914 87.9709C45.914 88.1151 45.9667 88.2288 46.0721 88.312C46.1775 88.3952 46.3023 88.4368 46.4465 88.4368C46.6222 88.4368 46.7923 88.3961 46.9568 88.3148C47.2342 88.1798 47.3728 87.9589 47.3728 87.6519V87.2498C47.3118 87.2886 47.2332 87.321 47.1371 87.3469C47.0409 87.3727 46.9466 87.3912 46.8542 87.4023L46.5519 87.4412C46.3707 87.4652 46.2348 87.5031 46.1442 87.5549C45.9908 87.6418 45.914 87.7804 45.914 87.9709ZM47.1232 86.9614C47.2379 86.9466 47.3146 86.8985 47.3534 86.8171C47.3756 86.7728 47.3867 86.709 47.3867 86.6258C47.3867 86.4557 47.3257 86.3327 47.2037 86.2569C47.0835 86.1793 46.9106 86.1404 46.685 86.1404C46.4243 86.1404 46.2394 86.2107 46.1303 86.3512C46.0693 86.4289 46.0296 86.5444 46.0111 86.6979H45.5452C45.5544 86.3318 45.6727 86.0776 45.9002 85.9352C46.1294 85.791 46.3947 85.7189 46.6961 85.7189C47.0456 85.7189 47.3294 85.7854 47.5476 85.9186C47.7639 86.0517 47.872 86.2588 47.872 86.5398V88.251C47.872 88.3028 47.8822 88.3444 47.9025 88.3758C47.9247 88.4072 47.97 88.4229 48.0384 88.4229C48.0606 88.4229 48.0856 88.422 48.1133 88.4202C48.1411 88.4165 48.1706 88.4118 48.2021 88.4063V88.7752C48.1244 88.7973 48.0653 88.8112 48.0246 88.8168C47.9839 88.8223 47.9284 88.8251 47.8582 88.8251C47.6862 88.8251 47.5614 88.7641 47.4838 88.642C47.4431 88.5773 47.4144 88.4858 47.3978 88.3675C47.2961 88.5006 47.15 88.6162 46.9596 88.7141C46.7692 88.8121 46.5593 88.8611 46.33 88.8611C46.0545 88.8611 45.829 88.7779 45.6533 88.6115C45.4795 88.4433 45.3926 88.2334 45.3926 87.982C45.3926 87.7065 45.4786 87.4929 45.6505 87.3413C45.8225 87.1897 46.0481 87.0963 46.3273 87.0612L47.1232 86.9614ZM50.7036 87.3108C50.7036 87.6288 50.7711 87.8951 50.906 88.1095C51.041 88.324 51.2573 88.4313 51.555 88.4313C51.7861 88.4313 51.9756 88.3323 52.1235 88.1345C52.2733 87.9348 52.3482 87.6492 52.3482 87.2775C52.3482 86.9022 52.2715 86.6249 52.118 86.4455C51.9645 86.2643 51.775 86.1737 51.5495 86.1737C51.298 86.1737 51.0937 86.2699 50.9365 86.4621C50.7812 86.6544 50.7036 86.9373 50.7036 87.3108ZM51.4552 85.7383C51.6826 85.7383 51.873 85.7864 52.0265 85.8825C52.1152 85.938 52.216 86.035 52.3288 86.1737V84.6733H52.8086V88.7613H52.3593V88.3481C52.2428 88.5311 52.1051 88.6633 51.946 88.7447C51.787 88.826 51.6049 88.8667 51.3997 88.8667C51.0687 88.8667 50.7821 88.728 50.5399 88.4507C50.2977 88.1715 50.1766 87.8008 50.1766 87.3385C50.1766 86.9059 50.2866 86.5315 50.5067 86.2153C50.7285 85.8973 51.0447 85.7383 51.4552 85.7383ZM54.1772 84.6872L54.0857 86.3179H53.764L53.6724 84.6872H54.1772ZM55.9285 88.4396C56.2595 88.4396 56.486 88.3148 56.608 88.0652C56.7319 87.8137 56.7938 87.5345 56.7938 87.2276C56.7938 86.9503 56.7495 86.7247 56.6607 86.5509C56.5202 86.2773 56.278 86.1404 55.9341 86.1404C55.629 86.1404 55.4071 86.2569 55.2685 86.4899C55.1298 86.7228 55.0605 87.0039 55.0605 87.333C55.0605 87.6492 55.1298 87.9126 55.2685 88.1234C55.4071 88.3342 55.6272 88.4396 55.9285 88.4396ZM55.9479 85.705C56.3307 85.705 56.6542 85.8326 56.9186 86.0877C57.183 86.3429 57.3152 86.7182 57.3152 87.2137C57.3152 87.6926 57.1987 88.0883 56.9658 88.4007C56.7328 88.7132 56.3714 88.8695 55.8814 88.8695C55.4728 88.8695 55.1483 88.7317 54.9079 88.4562C54.6676 88.1789 54.5474 87.8072 54.5474 87.3413C54.5474 86.8421 54.674 86.4446 54.9273 86.1488C55.1806 85.8529 55.5208 85.705 55.9479 85.705ZM57.9822 85.791H58.4564V86.3041C58.4953 86.2042 58.5905 86.0831 58.7421 85.9407C58.8937 85.7965 59.0684 85.7244 59.2663 85.7244C59.2755 85.7244 59.2912 85.7253 59.3134 85.7272C59.3356 85.729 59.3735 85.7327 59.4271 85.7383V86.2652C59.3975 86.2597 59.3698 86.256 59.3439 86.2541C59.3199 86.2523 59.2931 86.2514 59.2635 86.2514C59.012 86.2514 58.8188 86.3327 58.6838 86.4954C58.5489 86.6563 58.4814 86.8421 58.4814 87.0529V88.7613H57.9822V85.791ZM60.2327 87.3108C60.2327 87.6288 60.3002 87.8951 60.4352 88.1095C60.5702 88.324 60.7865 88.4313 61.0842 88.4313C61.3153 88.4313 61.5048 88.3323 61.6527 88.1345C61.8025 87.9348 61.8774 87.6492 61.8774 87.2775C61.8774 86.9022 61.8006 86.6249 61.6472 86.4455C61.4937 86.2643 61.3042 86.1737 61.0786 86.1737C60.8272 86.1737 60.6229 86.2699 60.4657 86.4621C60.3104 86.6544 60.2327 86.9373 60.2327 87.3108ZM60.9843 85.7383C61.2117 85.7383 61.4022 85.7864 61.5556 85.8825C61.6444 85.938 61.7452 86.035 61.8579 86.1737V84.6733H62.3377V88.7613H61.8885V88.3481C61.772 88.5311 61.6342 88.6633 61.4752 88.7447C61.3162 88.826 61.1341 88.8667 60.9289 88.8667C60.5979 88.8667 60.3113 88.728 60.0691 88.4507C59.8269 88.1715 59.7058 87.8008 59.7058 87.3385C59.7058 86.9059 59.8158 86.5315 60.0358 86.2153C60.2577 85.8973 60.5739 85.7383 60.9843 85.7383ZM63.135 85.8049H63.6426V88.7613H63.135V85.8049ZM63.135 84.6872H63.6426V85.2529H63.135V84.6872ZM64.4565 85.791H64.9308V86.2125C65.0713 86.0387 65.2201 85.9139 65.3773 85.8381C65.5344 85.7623 65.7092 85.7244 65.9014 85.7244C66.323 85.7244 66.6077 85.8714 66.7556 86.1654C66.837 86.3262 66.8777 86.5564 66.8777 86.856V88.7613H66.3701V86.8892C66.3701 86.7081 66.3433 86.562 66.2897 86.4511C66.201 86.2662 66.0401 86.1737 65.8071 86.1737C65.6888 86.1737 65.5917 86.1857 65.5159 86.2098C65.3791 86.2504 65.2589 86.3318 65.1554 86.4538C65.0722 86.5518 65.0177 86.6535 64.9918 86.7589C64.9677 86.8624 64.9557 87.0113 64.9557 87.2054V88.7613H64.4565V85.791ZM68.9119 85.7244C69.1227 85.7244 69.327 85.7743 69.5248 85.8742C69.7227 85.9722 69.8734 86.0998 69.9769 86.2569C70.0767 86.4067 70.1433 86.5814 70.1766 86.7811C70.2062 86.9179 70.221 87.1361 70.221 87.4356H68.0438C68.0531 87.737 68.1243 87.9792 68.2574 88.1622C68.3905 88.3434 68.5967 88.434 68.8759 88.434C69.1366 88.434 69.3446 88.3481 69.4999 88.1761C69.5886 88.0763 69.6515 87.9607 69.6885 87.8294H70.1794C70.1664 87.9385 70.123 88.0605 70.049 88.1955C69.9769 88.3286 69.8955 88.4377 69.8049 88.5228C69.6533 88.6707 69.4657 88.7705 69.2419 88.8223C69.1218 88.8519 68.9859 88.8667 68.8343 88.8667C68.4645 88.8667 68.1511 88.7326 67.8941 88.4645C67.6371 88.1946 67.5086 87.8174 67.5086 87.333C67.5086 86.856 67.638 86.4686 67.8968 86.1709C68.1557 85.8733 68.4941 85.7244 68.9119 85.7244ZM69.7079 87.039C69.6875 86.8227 69.6404 86.6498 69.5664 86.5204C69.4296 86.28 69.2013 86.1598 68.8814 86.1598C68.6521 86.1598 68.4598 86.243 68.3045 86.4095C68.1492 86.574 68.0669 86.7839 68.0577 87.039H69.7079Z" fill="#404040"/>
<path d="M41.5124 104.729C41.7713 104.729 41.9756 104.677 42.1253 104.574C42.277 104.47 42.3528 104.284 42.3528 104.014C42.3528 103.723 42.2474 103.526 42.0366 103.42C41.9238 103.365 41.7731 103.337 41.5845 103.337H40.2367V104.729H41.5124ZM39.6848 102.863H41.5707C41.8813 102.863 42.1374 102.908 42.3389 102.999C42.7216 103.172 42.913 103.493 42.913 103.961C42.913 104.205 42.8621 104.405 42.7605 104.56C42.6606 104.715 42.5201 104.84 42.3389 104.934C42.4979 104.999 42.6172 105.084 42.6967 105.19C42.778 105.295 42.8233 105.466 42.8326 105.703L42.852 106.249C42.8575 106.404 42.8705 106.52 42.8908 106.596C42.9241 106.725 42.9833 106.808 43.0683 106.845V106.937H42.3916C42.3731 106.902 42.3583 106.856 42.3472 106.801C42.3361 106.745 42.3269 106.638 42.3195 106.479L42.2862 105.8C42.2733 105.533 42.1743 105.355 41.9895 105.264C41.8841 105.215 41.7186 105.19 41.493 105.19H40.2367V106.937H39.6848V102.863ZM43.7131 103.98H44.2206V106.937H43.7131V103.98ZM43.7131 102.863H44.2206V103.428H43.7131V102.863ZM46.1799 103.881C46.5146 103.881 46.7864 103.962 46.9953 104.125C47.2061 104.287 47.3327 104.567 47.3753 104.965H46.8899C46.8603 104.782 46.7929 104.63 46.6875 104.51C46.5821 104.388 46.4129 104.327 46.1799 104.327C45.8619 104.327 45.6345 104.482 45.4977 104.793C45.4089 104.994 45.3646 105.243 45.3646 105.539C45.3646 105.837 45.4274 106.087 45.5532 106.291C45.6789 106.494 45.8767 106.596 46.1467 106.596C46.3537 106.596 46.5174 106.533 46.6376 106.407C46.7596 106.279 46.8437 106.106 46.8899 105.886H47.3753C47.3198 106.279 47.1811 106.568 46.9593 106.751C46.7374 106.932 46.4536 107.023 46.1078 107.023C45.7196 107.023 45.4099 106.881 45.1787 106.598C44.9476 106.314 44.8321 105.959 44.8321 105.533C44.8321 105.012 44.9587 104.606 45.212 104.316C45.4653 104.026 45.788 103.881 46.1799 103.881ZM49.11 106.615C49.4409 106.615 49.6674 106.49 49.7895 106.241C49.9133 105.989 49.9753 105.71 49.9753 105.403C49.9753 105.126 49.9309 104.9 49.8422 104.726C49.7016 104.453 49.4594 104.316 49.1155 104.316C48.8105 104.316 48.5886 104.432 48.4499 104.665C48.3112 104.898 48.2419 105.179 48.2419 105.508C48.2419 105.825 48.3112 106.088 48.4499 106.299C48.5886 106.51 48.8086 106.615 49.11 106.615ZM49.1294 103.881C49.5121 103.881 49.8357 104.008 50.1001 104.263C50.3645 104.518 50.4967 104.894 50.4967 105.389C50.4967 105.868 50.3802 106.264 50.1472 106.576C49.9143 106.889 49.5528 107.045 49.0628 107.045C48.6542 107.045 48.3297 106.907 48.0894 106.632C47.849 106.354 47.7288 105.983 47.7288 105.517C47.7288 105.018 47.8555 104.62 48.1088 104.324C48.3621 104.028 48.7023 103.881 49.1294 103.881ZM51.1636 103.966H51.6379V104.48C51.6767 104.38 51.7719 104.259 51.9235 104.116C52.0751 103.972 52.2499 103.9 52.4477 103.9C52.4569 103.9 52.4727 103.901 52.4949 103.903C52.517 103.905 52.5549 103.908 52.6086 103.914V104.441C52.579 104.435 52.5512 104.431 52.5254 104.43C52.5013 104.428 52.4745 104.427 52.4449 104.427C52.1935 104.427 52.0003 104.508 51.8653 104.671C51.7303 104.832 51.6628 105.018 51.6628 105.228V106.937H51.1636V103.966ZM53.4142 105.486C53.4142 105.804 53.4817 106.071 53.6166 106.285C53.7516 106.5 53.9679 106.607 54.2656 106.607C54.4967 106.607 54.6862 106.508 54.8342 106.31C54.9839 106.11 55.0588 105.825 55.0588 105.453C55.0588 105.078 54.9821 104.8 54.8286 104.621C54.6751 104.44 54.4856 104.349 54.2601 104.349C54.0086 104.349 53.8043 104.445 53.6471 104.638C53.4918 104.83 53.4142 105.113 53.4142 105.486ZM54.1658 103.914C54.3932 103.914 54.5836 103.962 54.7371 104.058C54.8258 104.113 54.9266 104.211 55.0394 104.349V102.849H55.5192V106.937H55.0699V106.524C54.9534 106.707 54.8157 106.839 54.6567 106.92C54.4977 107.001 54.3155 107.042 54.1103 107.042C53.7793 107.042 53.4928 106.904 53.2505 106.626C53.0083 106.347 52.8872 105.976 52.8872 105.514C52.8872 105.081 52.9972 104.707 53.2173 104.391C53.4391 104.073 53.7553 103.914 54.1658 103.914ZM56.6992 106.146C56.6992 106.291 56.7519 106.404 56.8573 106.487C56.9627 106.571 57.0875 106.612 57.2317 106.612C57.4074 106.612 57.5775 106.572 57.742 106.49C58.0193 106.355 58.158 106.134 58.158 105.827V105.425C58.097 105.464 58.0184 105.496 57.9223 105.522C57.8261 105.548 57.7318 105.567 57.6394 105.578L57.3371 105.617C57.1559 105.641 57.02 105.679 56.9294 105.73C56.7759 105.817 56.6992 105.956 56.6992 106.146ZM57.9084 105.137C58.023 105.122 58.0998 105.074 58.1386 104.993C58.1608 104.948 58.1719 104.884 58.1719 104.801C58.1719 104.631 58.1109 104.508 57.9888 104.432C57.8687 104.355 57.6958 104.316 57.4702 104.316C57.2095 104.316 57.0246 104.386 56.9155 104.527C56.8545 104.604 56.8148 104.72 56.7963 104.873H56.3303C56.3396 104.507 56.4579 104.253 56.6853 104.111C56.9146 103.966 57.1799 103.894 57.4813 103.894C57.8308 103.894 58.1146 103.961 58.3327 104.094C58.5491 104.227 58.6572 104.434 58.6572 104.715V106.426C58.6572 106.478 58.6674 106.52 58.6877 106.551C58.7099 106.583 58.7552 106.598 58.8236 106.598C58.8458 106.598 58.8708 106.598 58.8985 106.596C58.9262 106.592 58.9558 106.587 58.9873 106.582V106.951C58.9096 106.973 58.8504 106.987 58.8098 106.992C58.7691 106.998 58.7136 107.001 58.6434 107.001C58.4714 107.001 58.3466 106.94 58.269 106.818C58.2283 106.753 58.1996 106.661 58.183 106.543C58.0813 106.676 57.9352 106.792 57.7448 106.89C57.5543 106.988 57.3445 107.037 57.1152 107.037C56.8397 107.037 56.6142 106.953 56.4385 106.787C56.2647 106.619 56.1778 106.409 56.1778 106.157C56.1778 105.882 56.2638 105.668 56.4357 105.517C56.6077 105.365 56.8333 105.272 57.1124 105.237L57.9084 105.137ZM59.535 103.966H60.0286V104.388C60.1469 104.242 60.2542 104.136 60.3503 104.069C60.5149 103.956 60.7016 103.9 60.9106 103.9C61.1472 103.9 61.3377 103.958 61.4819 104.075C61.5632 104.141 61.6372 104.239 61.7037 104.369C61.8147 104.21 61.945 104.092 62.0948 104.016C62.2446 103.939 62.4128 103.9 62.5996 103.9C62.9989 103.9 63.2707 104.044 63.4149 104.333C63.4926 104.488 63.5314 104.697 63.5314 104.959V106.937H63.0128V104.873C63.0128 104.676 62.9629 104.54 62.863 104.466C62.765 104.392 62.6449 104.355 62.5025 104.355C62.3065 104.355 62.1373 104.42 61.995 104.552C61.8544 104.683 61.7842 104.902 61.7842 105.209V106.937H61.2766V104.998C61.2766 104.797 61.2526 104.65 61.2045 104.557C61.1287 104.419 60.9873 104.349 60.7802 104.349C60.5916 104.349 60.4197 104.422 60.2644 104.568C60.1109 104.714 60.0342 104.979 60.0342 105.361V106.937H59.535V103.966ZM64.3232 103.98H64.8307V106.937H64.3232V103.98ZM64.3232 102.863H64.8307V103.428H64.3232V102.863Z" fill="#A6A6A6"/>
<rect x="28.868" y="101.842" width="6.24791" height="6.24791" rx="1.60931" stroke="#C5C5C5" stroke-width="0.567992"/>
<path d="M173.609 14.0878L178.911 19.389M173.609 19.389L178.911 14.0878" stroke="#333333" stroke-width="0.757322" stroke-linecap="round" stroke-linejoin="round"/>
<path d="M96.3924 146.375C96.7234 146.375 96.9499 146.25 97.0719 146C97.1958 145.749 97.2577 145.47 97.2577 145.163C97.2577 144.886 97.2134 144.66 97.1246 144.486C96.9841 144.212 96.7419 144.076 96.398 144.076C96.0929 144.076 95.871 144.192 95.7324 144.425C95.5937 144.658 95.5244 144.939 95.5244 145.268C95.5244 145.584 95.5937 145.848 95.7324 146.059C95.871 146.269 96.0911 146.375 96.3924 146.375ZM96.4119 143.64C96.7946 143.64 97.1181 143.768 97.3825 144.023C97.6469 144.278 97.7791 144.653 97.7791 145.149C97.7791 145.628 97.6627 146.024 97.4297 146.336C97.1967 146.648 96.8353 146.805 96.3453 146.805C95.9367 146.805 95.6122 146.667 95.3718 146.391C95.1315 146.114 95.0113 145.742 95.0113 145.277C95.0113 144.777 95.1379 144.38 95.3912 144.084C95.6445 143.788 95.9847 143.64 96.4119 143.64ZM98.4461 143.726H98.9203V144.239C98.9592 144.139 99.0544 144.018 99.206 143.876C99.3576 143.732 99.5323 143.66 99.7302 143.66C99.7394 143.66 99.7551 143.661 99.7773 143.662C99.7995 143.664 99.8374 143.668 99.891 143.674V144.2C99.8614 144.195 99.8337 144.191 99.8078 144.189C99.7838 144.188 99.757 144.187 99.7274 144.187C99.4759 144.187 99.2827 144.268 99.1478 144.431C99.0128 144.592 98.9453 144.777 98.9453 144.988V146.697H98.4461V143.726Z" fill="#A6A6A6"/>
<rect x="28.584" y="152.677" width="137.833" height="16.6611" rx="3.02929" fill="#F0F0F0"/>
<g clip-path="url(#clip0_1_5455)">
<path d="M69.8523 161.719L69.6151 162.605L68.7479 162.623C68.4888 162.142 68.3418 161.592 68.3418 161.008C68.3418 160.443 68.4792 159.91 68.7228 159.441H68.723L69.495 159.582L69.8332 160.35C69.7624 160.556 69.7239 160.777 69.7239 161.008C69.7239 161.258 69.7692 161.498 69.8523 161.719Z" fill="#FBBB00"/>
<path d="M75.0997 160.371C75.1388 160.578 75.1592 160.791 75.1592 161.008C75.1592 161.252 75.1335 161.49 75.0847 161.72C74.9188 162.501 74.4853 163.183 73.8848 163.666L73.8846 163.666L72.9122 163.616L72.7746 162.757C73.1731 162.523 73.4845 162.157 73.6485 161.72H71.8262V160.371H73.6751H75.0997Z" fill="#518EF8"/>
<path d="M73.8832 163.665L73.8834 163.666C73.2994 164.135 72.5575 164.416 71.7499 164.416C70.452 164.416 69.3237 163.69 68.748 162.623L69.8524 161.719C70.1402 162.487 70.8812 163.034 71.7499 163.034C72.1232 163.034 72.473 162.933 72.7732 162.757L73.8832 163.665Z" fill="#28B446"/>
<path d="M73.9248 158.384L72.8208 159.288C72.5102 159.094 72.143 158.982 71.7496 158.982C70.8612 158.982 70.1064 159.554 69.833 160.349L68.7228 159.441H68.7227C69.2898 158.347 70.4324 157.6 71.7496 157.6C72.5764 157.6 73.3346 157.894 73.9248 158.384Z" fill="#F14336"/>
</g>
<path d="M80.3382 161.316H80.8707C80.8429 161.571 80.7699 161.799 80.6516 162.001C80.5332 162.202 80.3659 162.362 80.1496 162.481C79.9332 162.597 79.6633 162.655 79.3397 162.655C79.1031 162.655 78.8877 162.611 78.6935 162.522C78.5012 162.434 78.3358 162.308 78.1971 162.145C78.0584 161.981 77.9512 161.784 77.8754 161.554C77.8014 161.323 77.7644 161.066 77.7644 160.783V160.381C77.7644 160.098 77.8014 159.842 77.8754 159.613C77.9512 159.382 78.0594 159.184 78.1999 159.019C78.3422 158.855 78.5133 158.728 78.7129 158.64C78.9126 158.551 79.1373 158.506 79.3869 158.506C79.692 158.506 79.9499 158.564 80.1607 158.678C80.3714 158.793 80.5351 158.952 80.6516 159.155C80.7699 159.357 80.8429 159.591 80.8707 159.857H80.3382C80.3123 159.668 80.2642 159.507 80.1939 159.372C80.1237 159.235 80.0238 159.13 79.8944 159.056C79.765 158.982 79.5958 158.945 79.3869 158.945C79.2075 158.945 79.0495 158.979 78.9126 159.047C78.7777 159.116 78.664 159.213 78.5715 159.338C78.4809 159.464 78.4125 159.615 78.3663 159.79C78.3201 159.966 78.2969 160.161 78.2969 160.376V160.783C78.2969 160.981 78.3173 161.167 78.358 161.341C78.4005 161.515 78.4643 161.667 78.5493 161.798C78.6344 161.93 78.7425 162.033 78.8738 162.109C79.0051 162.183 79.1604 162.22 79.3397 162.22C79.5672 162.22 79.7484 162.184 79.8833 162.112C80.0183 162.04 80.12 161.936 80.1884 161.801C80.2587 161.666 80.3086 161.504 80.3382 161.316ZM81.4433 161.133V161.069C81.4433 160.853 81.4747 160.652 81.5376 160.467C81.6005 160.28 81.6911 160.119 81.8094 159.982C81.9277 159.843 82.071 159.736 82.2393 159.66C82.4075 159.582 82.5961 159.544 82.805 159.544C83.0158 159.544 83.2053 159.582 83.3736 159.66C83.5437 159.736 83.6879 159.843 83.8062 159.982C83.9264 160.119 84.0179 160.28 84.0808 160.467C84.1437 160.652 84.1751 160.853 84.1751 161.069V161.133C84.1751 161.349 84.1437 161.55 84.0808 161.735C84.0179 161.92 83.9264 162.081 83.8062 162.22C83.6879 162.357 83.5446 162.464 83.3764 162.542C83.21 162.618 83.0214 162.655 82.8106 162.655C82.5998 162.655 82.4103 162.618 82.242 162.542C82.0738 162.464 81.9296 162.357 81.8094 162.22C81.6911 162.081 81.6005 161.92 81.5376 161.735C81.4747 161.55 81.4433 161.349 81.4433 161.133ZM81.9564 161.069V161.133C81.9564 161.283 81.9739 161.424 82.0091 161.557C82.0442 161.688 82.0969 161.805 82.1672 161.907C82.2393 162.008 82.3289 162.089 82.4362 162.148C82.5434 162.205 82.6682 162.234 82.8106 162.234C82.9511 162.234 83.0741 162.205 83.1794 162.148C83.2867 162.089 83.3754 162.008 83.4457 161.907C83.516 161.805 83.5686 161.688 83.6038 161.557C83.6408 161.424 83.6592 161.283 83.6592 161.133V161.069C83.6592 160.921 83.6408 160.782 83.6038 160.65C83.5686 160.517 83.515 160.4 83.4429 160.298C83.3727 160.194 83.2839 160.113 83.1767 160.054C83.0713 159.995 82.9474 159.965 82.805 159.965C82.6645 159.965 82.5406 159.995 82.4334 160.054C82.328 160.113 82.2393 160.194 82.1672 160.298C82.0969 160.4 82.0442 160.517 82.0091 160.65C81.9739 160.782 81.9564 160.921 81.9564 161.069ZM85.3884 160.24V162.6H84.8753V159.599H85.3607L85.3884 160.24ZM85.2664 160.986L85.0528 160.978C85.0547 160.772 85.0852 160.583 85.1443 160.409C85.2035 160.233 85.2867 160.081 85.394 159.951C85.5012 159.822 85.6288 159.722 85.7767 159.652C85.9264 159.58 86.0919 159.544 86.2731 159.544C86.421 159.544 86.5542 159.564 86.6725 159.605C86.7908 159.644 86.8916 159.706 86.9748 159.793C87.0598 159.88 87.1245 159.993 87.1689 160.132C87.2133 160.268 87.2355 160.436 87.2355 160.634V162.6H86.7196V160.628C86.7196 160.471 86.6965 160.345 86.6503 160.251C86.6041 160.155 86.5366 160.085 86.4478 160.043C86.3591 159.998 86.25 159.976 86.1206 159.976C85.993 159.976 85.8765 160.003 85.7711 160.057C85.6676 160.11 85.5779 160.184 85.5021 160.279C85.4282 160.373 85.3699 160.481 85.3274 160.603C85.2867 160.723 85.2664 160.851 85.2664 160.986ZM89.328 159.599V159.993H87.7055V159.599H89.328ZM88.2547 158.87H88.7677V161.857C88.7677 161.958 88.7834 162.035 88.8149 162.087C88.8463 162.139 88.887 162.173 88.9369 162.189C88.9868 162.206 89.0404 162.214 89.0978 162.214C89.1403 162.214 89.1847 162.211 89.2309 162.203C89.279 162.194 89.315 162.187 89.3391 162.181L89.3418 162.6C89.3011 162.613 89.2475 162.625 89.181 162.636C89.1163 162.649 89.0377 162.655 88.9452 162.655C88.8195 162.655 88.7039 162.63 88.5986 162.581C88.4932 162.531 88.409 162.447 88.3462 162.331C88.2852 162.213 88.2547 162.054 88.2547 161.854V158.87ZM90.544 159.599V162.6H90.0282V159.599H90.544ZM89.9894 158.803C89.9894 158.72 90.0143 158.65 90.0642 158.592C90.116 158.535 90.1918 158.506 90.2917 158.506C90.3897 158.506 90.4645 158.535 90.5163 158.592C90.5699 158.65 90.5967 158.72 90.5967 158.803C90.5967 158.883 90.5699 158.951 90.5163 159.008C90.4645 159.064 90.3897 159.092 90.2917 159.092C90.1918 159.092 90.116 159.064 90.0642 159.008C90.0143 158.951 89.9894 158.883 89.9894 158.803ZM91.9376 160.24V162.6H91.4245V159.599H91.9099L91.9376 160.24ZM91.8156 160.986L91.602 160.978C91.6039 160.772 91.6344 160.583 91.6936 160.409C91.7527 160.233 91.8359 160.081 91.9432 159.951C92.0504 159.822 92.178 159.722 92.3259 159.652C92.4757 159.58 92.6411 159.544 92.8223 159.544C92.9702 159.544 93.1034 159.564 93.2217 159.605C93.34 159.644 93.4408 159.706 93.524 159.793C93.609 159.88 93.6738 159.993 93.7181 160.132C93.7625 160.268 93.7847 160.436 93.7847 160.634V162.6H93.2688V160.628C93.2688 160.471 93.2457 160.345 93.1995 160.251C93.1533 160.155 93.0858 160.085 92.997 160.043C92.9083 159.998 92.7992 159.976 92.6698 159.976C92.5422 159.976 92.4257 160.003 92.3203 160.057C92.2168 160.11 92.1271 160.184 92.0513 160.279C91.9774 160.373 91.9191 160.481 91.8766 160.603C91.8359 160.723 91.8156 160.851 91.8156 160.986ZM96.4568 161.907V159.599H96.9727V162.6H96.4818L96.4568 161.907ZM96.5539 161.274L96.7674 161.269C96.7674 161.468 96.7462 161.653 96.7036 161.823C96.663 161.992 96.5964 162.138 96.504 162.262C96.4115 162.385 96.2904 162.483 96.1406 162.553C95.9909 162.621 95.8088 162.655 95.5943 162.655C95.4482 162.655 95.3142 162.634 95.1921 162.592C95.072 162.549 94.9684 162.483 94.8815 162.395C94.7946 162.306 94.7271 162.19 94.6791 162.048C94.6328 161.906 94.6097 161.735 94.6097 161.535V159.599H95.1228V161.541C95.1228 161.675 95.1376 161.787 95.1672 161.876C95.1986 161.963 95.2402 162.032 95.292 162.084C95.3456 162.134 95.4048 162.169 95.4695 162.189C95.536 162.21 95.6044 162.22 95.6747 162.22C95.8929 162.22 96.0658 162.178 96.1933 162.095C96.3209 162.01 96.4124 161.896 96.4679 161.754C96.5252 161.61 96.5539 161.45 96.5539 161.274ZM99.0568 162.655C98.8479 162.655 98.6584 162.62 98.4883 162.55C98.32 162.478 98.1749 162.377 98.0528 162.248C97.9327 162.118 97.8402 161.965 97.7755 161.787C97.7108 161.61 97.6784 161.416 97.6784 161.205V161.088C97.6784 160.844 97.7145 160.627 97.7866 160.437C97.8587 160.244 97.9567 160.082 98.0806 159.949C98.2045 159.815 98.345 159.715 98.5021 159.646C98.6593 159.578 98.822 159.544 98.9902 159.544C99.2047 159.544 99.3896 159.581 99.5449 159.655C99.7021 159.729 99.8306 159.832 99.9304 159.965C100.03 160.096 100.104 160.252 100.152 160.431C100.2 160.609 100.224 160.803 100.224 161.014V161.244H97.9835V160.825H99.7113V160.786C99.7039 160.653 99.6762 160.524 99.6281 160.398C99.5819 160.272 99.5079 160.169 99.4063 160.087C99.3046 160.006 99.1659 159.965 98.9902 159.965C98.8738 159.965 98.7665 159.99 98.6685 160.04C98.5705 160.088 98.4864 160.16 98.4162 160.256C98.3459 160.353 98.2914 160.47 98.2525 160.609C98.2137 160.747 98.1943 160.907 98.1943 161.088V161.205C98.1943 161.347 98.2137 161.481 98.2525 161.607C98.2932 161.731 98.3514 161.84 98.4272 161.934C98.5049 162.029 98.5983 162.103 98.7074 162.156C98.8183 162.21 98.944 162.237 99.0845 162.237C99.2657 162.237 99.4192 162.2 99.5449 162.126C99.6707 162.052 99.7807 161.953 99.875 161.829L100.186 162.076C100.121 162.174 100.039 162.267 99.9387 162.356C99.8389 162.445 99.716 162.517 99.5699 162.572C99.4257 162.628 99.2546 162.655 99.0568 162.655ZM103.106 162.067L103.877 159.599H104.215L104.149 160.09L103.364 162.6H103.034L103.106 162.067ZM102.587 159.599L103.245 162.095L103.292 162.6H102.945L102.074 159.599H102.587ZM104.953 162.076L105.58 159.599H106.09L105.219 162.6H104.875L104.953 162.076ZM104.29 159.599L105.044 162.026L105.13 162.6H104.803L103.996 160.084L103.93 159.599H104.29ZM107.231 159.599V162.6H106.715V159.599H107.231ZM106.677 158.803C106.677 158.72 106.702 158.65 106.751 158.592C106.803 158.535 106.879 158.506 106.979 158.506C107.077 158.506 107.152 158.535 107.203 158.592C107.257 158.65 107.284 158.72 107.284 158.803C107.284 158.883 107.257 158.951 107.203 159.008C107.152 159.064 107.077 159.092 106.979 159.092C106.879 159.092 106.803 159.064 106.751 159.008C106.702 158.951 106.677 158.883 106.677 158.803ZM109.368 159.599V159.993H107.746V159.599H109.368ZM108.295 158.87H108.808V161.857C108.808 161.958 108.824 162.035 108.855 162.087C108.886 162.139 108.927 162.173 108.977 162.189C109.027 162.206 109.081 162.214 109.138 162.214C109.18 162.214 109.225 162.211 109.271 162.203C109.319 162.194 109.355 162.187 109.379 162.181L109.382 162.6C109.341 162.613 109.288 162.625 109.221 162.636C109.156 162.649 109.078 162.655 108.985 162.655C108.86 162.655 108.744 162.63 108.639 162.581C108.533 162.531 108.449 162.447 108.386 162.331C108.325 162.213 108.295 162.054 108.295 161.854V158.87ZM110.54 158.34V162.6H110.027V158.34H110.54ZM110.418 160.986L110.204 160.978C110.206 160.772 110.237 160.583 110.296 160.409C110.355 160.233 110.438 160.081 110.545 159.951C110.653 159.822 110.78 159.722 110.928 159.652C111.078 159.58 111.243 159.544 111.424 159.544C111.572 159.544 111.706 159.564 111.824 159.605C111.942 159.644 112.043 159.706 112.126 159.793C112.211 159.88 112.276 159.993 112.32 160.132C112.365 160.268 112.387 160.436 112.387 160.634V162.6H111.871V160.628C111.871 160.471 111.848 160.345 111.802 160.251C111.755 160.155 111.688 160.085 111.599 160.043C111.51 159.998 111.401 159.976 111.272 159.976C111.144 159.976 111.028 160.003 110.923 160.057C110.819 160.11 110.729 160.184 110.653 160.279C110.58 160.373 110.521 160.481 110.479 160.603C110.438 160.723 110.418 160.851 110.418 160.986ZM117.739 160.589V162.067C117.689 162.141 117.61 162.225 117.501 162.317C117.392 162.408 117.241 162.487 117.049 162.556C116.858 162.622 116.612 162.655 116.311 162.655C116.065 162.655 115.839 162.613 115.632 162.528C115.426 162.441 115.248 162.315 115.096 162.151C114.947 161.984 114.83 161.783 114.747 161.546C114.666 161.308 114.625 161.038 114.625 160.736V160.423C114.625 160.121 114.66 159.852 114.73 159.616C114.802 159.379 114.908 159.178 115.046 159.014C115.185 158.848 115.355 158.722 115.557 158.637C115.758 158.55 115.989 158.506 116.25 158.506C116.559 158.506 116.817 158.56 117.024 158.667C117.233 158.773 117.396 158.919 117.512 159.105C117.63 159.292 117.706 159.505 117.739 159.743H117.204C117.18 159.597 117.132 159.464 117.06 159.344C116.99 159.224 116.889 159.128 116.758 159.056C116.626 158.982 116.457 158.945 116.25 158.945C116.063 158.945 115.902 158.979 115.765 159.047C115.628 159.116 115.515 159.214 115.426 159.341C115.338 159.469 115.271 159.623 115.227 159.804C115.184 159.986 115.163 160.19 115.163 160.417V160.736C115.163 160.969 115.19 161.177 115.243 161.36C115.299 161.543 115.377 161.7 115.479 161.829C115.581 161.957 115.702 162.054 115.842 162.12C115.985 162.187 116.142 162.22 116.314 162.22C116.504 162.22 116.659 162.204 116.777 162.173C116.895 162.14 116.988 162.101 117.054 162.056C117.121 162.01 117.172 161.967 117.207 161.926V161.022H116.272V160.589H117.739ZM118.47 161.133V161.069C118.47 160.853 118.502 160.652 118.564 160.467C118.627 160.28 118.718 160.119 118.836 159.982C118.955 159.843 119.098 159.736 119.266 159.66C119.434 159.582 119.623 159.544 119.832 159.544C120.043 159.544 120.232 159.582 120.4 159.66C120.571 159.736 120.715 159.843 120.833 159.982C120.953 160.119 121.045 160.28 121.108 160.467C121.171 160.652 121.202 160.853 121.202 161.069V161.133C121.202 161.349 121.171 161.55 121.108 161.735C121.045 161.92 120.953 162.081 120.833 162.22C120.715 162.357 120.571 162.464 120.403 162.542C120.237 162.618 120.048 162.655 119.837 162.655C119.627 162.655 119.437 162.618 119.269 162.542C119.101 162.464 118.956 162.357 118.836 162.22C118.718 162.081 118.627 161.92 118.564 161.735C118.502 161.55 118.47 161.349 118.47 161.133ZM118.983 161.069V161.133C118.983 161.283 119.001 161.424 119.036 161.557C119.071 161.688 119.124 161.805 119.194 161.907C119.266 162.008 119.356 162.089 119.463 162.148C119.57 162.205 119.695 162.234 119.837 162.234C119.978 162.234 120.101 162.205 120.206 162.148C120.314 162.089 120.402 162.008 120.473 161.907C120.543 161.805 120.595 161.688 120.631 161.557C120.668 161.424 120.686 161.283 120.686 161.133V161.069C120.686 160.921 120.668 160.782 120.631 160.65C120.595 160.517 120.542 160.4 120.47 160.298C120.399 160.194 120.311 160.113 120.204 160.054C120.098 159.995 119.974 159.965 119.832 159.965C119.691 159.965 119.567 159.995 119.46 160.054C119.355 160.113 119.266 160.194 119.194 160.298C119.124 160.4 119.071 160.517 119.036 160.65C119.001 160.782 118.983 160.921 118.983 161.069ZM121.766 161.133V161.069C121.766 160.853 121.798 160.652 121.861 160.467C121.923 160.28 122.014 160.119 122.132 159.982C122.251 159.843 122.394 159.736 122.562 159.66C122.73 159.582 122.919 159.544 123.128 159.544C123.339 159.544 123.528 159.582 123.697 159.66C123.867 159.736 124.011 159.843 124.129 159.982C124.249 160.119 124.341 160.28 124.404 160.467C124.467 160.652 124.498 160.853 124.498 161.069V161.133C124.498 161.349 124.467 161.55 124.404 161.735C124.341 161.92 124.249 162.081 124.129 162.22C124.011 162.357 123.868 162.464 123.699 162.542C123.533 162.618 123.344 162.655 123.134 162.655C122.923 162.655 122.733 162.618 122.565 162.542C122.397 162.464 122.253 162.357 122.132 162.22C122.014 162.081 121.923 161.92 121.861 161.735C121.798 161.55 121.766 161.349 121.766 161.133ZM122.279 161.069V161.133C122.279 161.283 122.297 161.424 122.332 161.557C122.367 161.688 122.42 161.805 122.49 161.907C122.562 162.008 122.652 162.089 122.759 162.148C122.866 162.205 122.991 162.234 123.134 162.234C123.274 162.234 123.397 162.205 123.502 162.148C123.61 162.089 123.698 162.008 123.769 161.907C123.839 161.805 123.892 161.688 123.927 161.557C123.964 161.424 123.982 161.283 123.982 161.133V161.069C123.982 160.921 123.964 160.782 123.927 160.65C123.892 160.517 123.838 160.4 123.766 160.298C123.696 160.194 123.607 160.113 123.5 160.054C123.394 159.995 123.27 159.965 123.128 159.965C122.987 159.965 122.864 159.995 122.756 160.054C122.651 160.113 122.562 160.194 122.49 160.298C122.42 160.4 122.367 160.517 122.332 160.65C122.297 160.782 122.279 160.921 122.279 161.069ZM127.142 159.599H127.608V162.536C127.608 162.801 127.555 163.026 127.448 163.213C127.34 163.4 127.191 163.541 126.998 163.637C126.808 163.735 126.588 163.784 126.338 163.784C126.235 163.784 126.113 163.768 125.972 163.734C125.833 163.703 125.697 163.648 125.562 163.571C125.428 163.495 125.317 163.392 125.226 163.263L125.495 162.958C125.621 163.109 125.752 163.215 125.889 163.274C126.028 163.333 126.164 163.363 126.299 163.363C126.462 163.363 126.603 163.332 126.721 163.271C126.839 163.21 126.931 163.119 126.995 162.999C127.062 162.881 127.095 162.735 127.095 162.561V160.259L127.142 159.599ZM125.076 161.133V161.075C125.076 160.845 125.103 160.637 125.157 160.451C125.212 160.262 125.291 160.1 125.392 159.965C125.496 159.83 125.621 159.727 125.767 159.655C125.913 159.581 126.077 159.544 126.26 159.544C126.449 159.544 126.614 159.577 126.754 159.644C126.897 159.708 127.017 159.803 127.115 159.929C127.215 160.053 127.293 160.203 127.35 160.378C127.408 160.554 127.448 160.753 127.47 160.975V161.23C127.449 161.45 127.41 161.648 127.35 161.823C127.293 161.999 127.215 162.149 127.115 162.273C127.017 162.397 126.897 162.492 126.754 162.558C126.612 162.623 126.445 162.655 126.255 162.655C126.076 162.655 125.913 162.618 125.767 162.542C125.623 162.466 125.499 162.36 125.395 162.223C125.292 162.086 125.212 161.925 125.157 161.74C125.103 161.553 125.076 161.351 125.076 161.133ZM125.589 161.075V161.133C125.589 161.283 125.604 161.423 125.634 161.554C125.665 161.686 125.712 161.801 125.775 161.901C125.84 162.001 125.922 162.079 126.022 162.137C126.122 162.192 126.241 162.22 126.38 162.22C126.55 162.22 126.69 162.184 126.801 162.112C126.912 162.04 127 161.944 127.065 161.826C127.131 161.708 127.183 161.579 127.22 161.441V160.772C127.2 160.671 127.168 160.573 127.126 160.478C127.085 160.382 127.032 160.297 126.965 160.223C126.9 160.147 126.82 160.087 126.724 160.043C126.628 159.998 126.515 159.976 126.385 159.976C126.245 159.976 126.124 160.006 126.022 160.065C125.922 160.122 125.84 160.202 125.775 160.304C125.712 160.403 125.665 160.52 125.634 160.653C125.604 160.784 125.589 160.925 125.589 161.075ZM129.002 158.34V162.6H128.486V158.34H129.002ZM131.128 162.655C130.919 162.655 130.729 162.62 130.559 162.55C130.391 162.478 130.246 162.377 130.124 162.248C130.004 162.118 129.911 161.965 129.846 161.787C129.782 161.61 129.749 161.416 129.749 161.205V161.088C129.749 160.844 129.785 160.627 129.857 160.437C129.93 160.244 130.028 160.082 130.151 159.949C130.275 159.815 130.416 159.715 130.573 159.646C130.73 159.578 130.893 159.544 131.061 159.544C131.276 159.544 131.461 159.581 131.616 159.655C131.773 159.729 131.901 159.832 132.001 159.965C132.101 160.096 132.175 160.252 132.223 160.431C132.271 160.609 132.295 160.803 132.295 161.014V161.244H130.054V160.825H131.782V160.786C131.775 160.653 131.747 160.524 131.699 160.398C131.653 160.272 131.579 160.169 131.477 160.087C131.375 160.006 131.237 159.965 131.061 159.965C130.945 159.965 130.837 159.99 130.739 160.04C130.641 160.088 130.557 160.16 130.487 160.256C130.417 160.353 130.362 160.47 130.323 160.609C130.285 160.747 130.265 160.907 130.265 161.088V161.205C130.265 161.347 130.285 161.481 130.323 161.607C130.364 161.731 130.422 161.84 130.498 161.934C130.576 162.029 130.669 162.103 130.778 162.156C130.889 162.21 131.015 162.237 131.155 162.237C131.337 162.237 131.49 162.2 131.616 162.126C131.742 162.052 131.852 161.953 131.946 161.829L132.256 162.076C132.192 162.174 132.109 162.267 132.01 162.356C131.91 162.445 131.787 162.517 131.641 162.572C131.497 162.628 131.326 162.655 131.128 162.655Z" fill="#1D2125"/>
<defs>
<filter id="filter0_d_1_5455" x="0.941423" y="0.456068" width="193.117" height="192.36" filterUnits="userSpaceOnUse" color-interpolation-filters="sRGB">
<feFlood flood-opacity="0" result="BackgroundImageFix"/>
<feColorMatrix in="SourceAlpha" type="matrix" values="0 0 0 0 0 0 0 0 0 0 0 0 0 0 0 0 0 0 127 0" result="hardAlpha"/>
<feOffset dy="1.51464"/>
<feGaussianBlur stdDeviation="3.02929"/>
<feComposite in2="hardAlpha" operator="out"/>
<feColorMatrix type="matrix" values="0 0 0 0 0.2 0 0 0 0 0.2 0 0 0 0 0.2 0 0 0 0.2 0"/>
<feBlend mode="normal" in2="BackgroundImageFix" result="effect1_dropShadow_1_5455"/>
<feBlend mode="normal" in="SourceGraphic" in2="effect1_dropShadow_1_5455" result="shape"/>
</filter>
<clipPath id="clip0_1_5455">
<rect width="6.8159" height="6.8159" fill="white" transform="translate(68.3418 157.6)"/>
</clipPath>
</defs>
</svg>
