<svg width="181" height="141" viewBox="0 0 181 141" fill="none" xmlns="http://www.w3.org/2000/svg">
<rect x="0.277214" y="0.277214" width="180.189" height="20.5139" rx="10.2569" fill="white" stroke="#E3E1E1" stroke-width="0.554429"/>
<path d="M9.46234 7.53106H10.2166V12.4354H13.0363V13.0986H9.46234V7.53106ZM15.3824 8.94854C15.6704 8.94854 15.9496 9.01676 16.22 9.1532C16.4903 9.28712 16.6963 9.46146 16.8378 9.67623C16.9742 9.88089 17.0652 10.1197 17.1106 10.3925C17.1511 10.5795 17.1713 10.8777 17.1713 11.287H14.1961C14.2087 11.6988 14.306 12.0298 14.4879 12.28C14.6699 12.5276 14.9516 12.6514 15.3331 12.6514C15.6894 12.6514 15.9736 12.5339 16.1859 12.2989C16.3072 12.1625 16.3931 12.0046 16.4436 11.8252H17.1144C17.0967 11.9743 17.0374 12.141 16.9363 12.3255C16.8378 12.5074 16.7266 12.6565 16.6028 12.7727C16.3956 12.9748 16.1391 13.1113 15.8334 13.182C15.6692 13.2224 15.4835 13.2427 15.2763 13.2427C14.7709 13.2427 14.3426 13.0595 13.9914 12.6931C13.6402 12.3242 13.4646 11.8088 13.4646 11.1468C13.4646 10.4949 13.6415 9.96553 13.9952 9.55874C14.349 9.15194 14.8114 8.94854 15.3824 8.94854ZM16.4701 10.745C16.4423 10.4494 16.3779 10.2131 16.2768 10.0363C16.0899 9.70781 15.7778 9.54358 15.3407 9.54358C15.0274 9.54358 14.7646 9.65728 14.5524 9.88468C14.3401 10.1096 14.2277 10.3963 14.2151 10.745H16.4701ZM18.1491 7.90628H18.8389V9.0395H19.487V9.59664H18.8389V12.2459C18.8389 12.3874 18.8869 12.4821 18.9829 12.5301C19.036 12.5579 19.1244 12.5718 19.2482 12.5718C19.2811 12.5718 19.3164 12.5718 19.3543 12.5718C19.3922 12.5693 19.4365 12.5655 19.487 12.5604V13.0986C19.4087 13.1214 19.3266 13.1378 19.2406 13.1479C19.1573 13.158 19.0663 13.1631 18.9678 13.1631C18.6494 13.1631 18.4334 13.0822 18.3197 12.9205C18.206 12.7563 18.1491 12.544 18.1491 12.2838V9.59664H17.5996V9.0395H18.1491V7.90628ZM20.3094 7.90628H20.9992V9.0395H21.6473V9.59664H20.9992V12.2459C20.9992 12.3874 21.0472 12.4821 21.1432 12.5301C21.1963 12.5579 21.2847 12.5718 21.4085 12.5718C21.4414 12.5718 21.4768 12.5718 21.5147 12.5718C21.5526 12.5693 21.5968 12.5655 21.6473 12.5604V13.0986C21.569 13.1214 21.4869 13.1378 21.401 13.1479C21.3176 13.158 21.2266 13.1631 21.1281 13.1631C20.8097 13.1631 20.5937 13.0822 20.48 12.9205C20.3663 12.7563 20.3094 12.544 20.3094 12.2838V9.59664H19.7599V9.0395H20.3094V7.90628ZM23.0155 9.0395V11.7342C23.0155 11.9414 23.0484 12.1107 23.1141 12.2421C23.2353 12.4846 23.4615 12.6059 23.7925 12.6059C24.2675 12.6059 24.5909 12.3937 24.7627 11.9692C24.8562 11.7418 24.903 11.4298 24.903 11.0331V9.0395H25.5852V13.0986H24.9409L24.9484 12.4998C24.86 12.6539 24.7501 12.7841 24.6187 12.8902C24.3585 13.1024 24.0426 13.2085 23.6712 13.2085C23.0926 13.2085 22.6984 13.0153 22.4887 12.6287C22.375 12.4215 22.3182 12.1448 22.3182 11.7986V9.0395H23.0155ZM26.6729 9.0395H27.321V9.74066C27.3741 9.60422 27.5042 9.43872 27.7114 9.24416C27.9186 9.04708 28.1573 8.94854 28.4277 8.94854C28.4403 8.94854 28.4618 8.9498 28.4921 8.95233C28.5225 8.95486 28.5742 8.95991 28.6475 8.96749V9.6876C28.6071 9.68002 28.5692 9.67496 28.5338 9.67244C28.501 9.66991 28.4643 9.66865 28.4239 9.66865C28.0803 9.66865 27.8162 9.77982 27.6318 10.0022C27.4473 10.222 27.3551 10.4759 27.3551 10.764V13.0986H26.6729V9.0395ZM29.7618 12.0185C29.7618 12.2156 29.8338 12.3709 29.9778 12.4846C30.1218 12.5983 30.2924 12.6552 30.4895 12.6552C30.7295 12.6552 30.962 12.5996 31.1868 12.4884C31.5659 12.304 31.7554 12.002 31.7554 11.5826V11.0331C31.672 11.0861 31.5646 11.1303 31.4332 11.1657C31.3018 11.2011 31.173 11.2264 31.0466 11.2415L30.6335 11.2946C30.3859 11.3274 30.2002 11.3792 30.0764 11.45C29.8667 11.5687 29.7618 11.7582 29.7618 12.0185ZM31.4143 10.6389C31.5709 10.6187 31.6758 10.553 31.7288 10.4418C31.7591 10.3812 31.7743 10.294 31.7743 10.1803C31.7743 9.94785 31.6909 9.77982 31.5242 9.67623C31.3599 9.57011 31.1237 9.51704 30.8154 9.51704C30.4592 9.51704 30.2065 9.61306 30.0574 9.80509C29.974 9.91121 29.9197 10.0691 29.8944 10.2788H29.2577C29.2704 9.77856 29.4321 9.43114 29.7428 9.23658C30.0562 9.0395 30.4187 8.94096 30.8306 8.94096C31.3081 8.94096 31.696 9.03192 31.9941 9.21384C32.2898 9.39576 32.4376 9.67875 32.4376 10.0628V12.4013C32.4376 12.472 32.4515 12.5289 32.4793 12.5718C32.5096 12.6148 32.5715 12.6362 32.665 12.6362C32.6953 12.6362 32.7294 12.635 32.7673 12.6325C32.8052 12.6274 32.8456 12.6211 32.8886 12.6135V13.1176C32.7825 13.1479 32.7016 13.1669 32.646 13.1744C32.5904 13.182 32.5146 13.1858 32.4186 13.1858C32.1836 13.1858 32.0131 13.1024 31.907 12.9357C31.8514 12.8472 31.8122 12.7222 31.7895 12.5604C31.6505 12.7424 31.4509 12.9003 31.1906 13.0342C30.9304 13.1681 30.6436 13.2351 30.3303 13.2351C29.9538 13.2351 29.6456 13.1214 29.4055 12.894C29.168 12.664 29.0493 12.3773 29.0493 12.0336C29.0493 11.6572 29.1668 11.3653 29.4017 11.1581C29.6367 10.9509 29.945 10.8233 30.3265 10.7753L31.4143 10.6389Z" fill="#9C9C9C"/>
<rect x="0.277214" y="30.2162" width="180.189" height="20.5139" rx="10.2569" fill="white" stroke="#E3E1E1" stroke-width="0.554429"/>
<path d="M11.5999 42.3933C11.8551 42.3933 12.0648 42.3668 12.2291 42.3137C12.5222 42.2152 12.7622 42.0257 12.9492 41.7452C13.0983 41.5203 13.2056 41.2323 13.2713 40.8811C13.3092 40.6713 13.3282 40.4768 13.3282 40.2974C13.3282 39.6076 13.1905 39.072 12.9151 38.6904C12.6422 38.3089 12.2013 38.1181 11.5923 38.1181H10.2545V42.3933H11.5999ZM9.49645 37.47H11.7515C12.5171 37.47 13.1109 37.7416 13.5328 38.2849C13.9093 38.7751 14.0976 39.4029 14.0976 40.1685C14.0976 40.7598 13.9864 41.2942 13.764 41.7717C13.3724 42.6156 12.699 43.0376 11.7439 43.0376H9.49645V37.47ZM15.5037 41.9574C15.5037 42.1545 15.5757 42.3099 15.7197 42.4236C15.8637 42.5373 16.0343 42.5942 16.2314 42.5942C16.4714 42.5942 16.7038 42.5386 16.9287 42.4274C17.3077 42.243 17.4972 41.941 17.4972 41.5216V40.972C17.4138 41.0251 17.3065 41.0693 17.1751 41.1047C17.0437 41.1401 16.9148 41.1653 16.7885 41.1805L16.3754 41.2335C16.1278 41.2664 15.942 41.3182 15.8182 41.3889C15.6085 41.5077 15.5037 41.6972 15.5037 41.9574ZM17.1561 40.5779C17.3128 40.5576 17.4176 40.492 17.4707 40.3808C17.501 40.3201 17.5162 40.233 17.5162 40.1193C17.5162 39.8868 17.4328 39.7188 17.266 39.6152C17.1018 39.5091 16.8656 39.456 16.5573 39.456C16.201 39.456 15.9484 39.552 15.7993 39.7441C15.7159 39.8502 15.6616 40.0081 15.6363 40.2178H14.9996C15.0122 39.7175 15.1739 39.3701 15.4847 39.1755C15.798 38.9785 16.1606 38.8799 16.5725 38.8799C17.05 38.8799 17.4378 38.9709 17.736 39.1528C18.0316 39.3347 18.1794 39.6177 18.1794 40.0018V42.3402C18.1794 42.411 18.1933 42.4678 18.2211 42.5108C18.2514 42.5537 18.3133 42.5752 18.4068 42.5752C18.4372 42.5752 18.4713 42.5739 18.5092 42.5714C18.5471 42.5664 18.5875 42.5601 18.6304 42.5525V43.0565C18.5243 43.0869 18.4435 43.1058 18.3879 43.1134C18.3323 43.121 18.2565 43.1248 18.1605 43.1248C17.9255 43.1248 17.7549 43.0414 17.6488 42.8746C17.5932 42.7862 17.5541 42.6611 17.5313 42.4994C17.3924 42.6813 17.1928 42.8393 16.9325 42.9732C16.6723 43.1071 16.3855 43.174 16.0722 43.174C15.6957 43.174 15.3874 43.0603 15.1474 42.8329C14.9099 42.603 14.7911 42.3162 14.7911 41.9726C14.7911 41.5961 14.9086 41.3043 15.1436 41.0971C15.3786 40.8899 15.6868 40.7623 16.0684 40.7143L17.1561 40.5779ZM19.4377 37.8452H20.1275V38.9785H20.7756V39.5356H20.1275V42.1848C20.1275 42.3263 20.1755 42.4211 20.2715 42.4691C20.3246 42.4969 20.413 42.5108 20.5368 42.5108C20.5697 42.5108 20.6051 42.5108 20.643 42.5108C20.6809 42.5083 20.7251 42.5045 20.7756 42.4994V43.0376C20.6973 43.0603 20.6152 43.0768 20.5293 43.0869C20.4459 43.097 20.3549 43.102 20.2564 43.102C19.938 43.102 19.722 43.0212 19.6083 42.8595C19.4946 42.6952 19.4377 42.483 19.4377 42.2227V39.5356H18.8882V38.9785H19.4377V37.8452ZM21.9846 41.9574C21.9846 42.1545 22.0566 42.3099 22.2007 42.4236C22.3447 42.5373 22.5152 42.5942 22.7123 42.5942C22.9524 42.5942 23.1848 42.5386 23.4097 42.4274C23.7887 42.243 23.9782 41.941 23.9782 41.5216V40.972C23.8948 41.0251 23.7874 41.0693 23.656 41.1047C23.5247 41.1401 23.3958 41.1653 23.2695 41.1805L22.8563 41.2335C22.6087 41.2664 22.423 41.3182 22.2992 41.3889C22.0895 41.5077 21.9846 41.6972 21.9846 41.9574ZM23.6371 40.5779C23.7937 40.5576 23.8986 40.492 23.9517 40.3808C23.982 40.3201 23.9971 40.233 23.9971 40.1193C23.9971 39.8868 23.9138 39.7188 23.747 39.6152C23.5828 39.5091 23.3465 39.456 23.0383 39.456C22.682 39.456 22.4293 39.552 22.2803 39.7441C22.1969 39.8502 22.1426 40.0081 22.1173 40.2178H21.4806C21.4932 39.7175 21.6549 39.3701 21.9657 39.1755C22.279 38.9785 22.6416 38.8799 23.0534 38.8799C23.531 38.8799 23.9188 38.9709 24.217 39.1528C24.5126 39.3347 24.6604 39.6177 24.6604 40.0018V42.3402C24.6604 42.411 24.6743 42.4678 24.7021 42.5108C24.7324 42.5537 24.7943 42.5752 24.8878 42.5752C24.9181 42.5752 24.9522 42.5739 24.9901 42.5714C25.028 42.5664 25.0685 42.5601 25.1114 42.5525V43.0565C25.0053 43.0869 24.9244 43.1058 24.8689 43.1134C24.8133 43.121 24.7375 43.1248 24.6415 43.1248C24.4065 43.1248 24.2359 43.0414 24.1298 42.8746C24.0742 42.7862 24.035 42.6611 24.0123 42.4994C23.8733 42.6813 23.6737 42.8393 23.4135 42.9732C23.1532 43.1071 22.8664 43.174 22.5531 43.174C22.1767 43.174 21.8684 43.0603 21.6284 42.8329C21.3909 42.603 21.2721 42.3162 21.2721 41.9726C21.2721 41.5961 21.3896 41.3043 21.6246 41.0971C21.8596 40.8899 22.1678 40.7623 22.5493 40.7143L23.6371 40.5779Z" fill="#9C9C9C"/>
<g clip-path="url(#clip0_1_5442)">
<path d="M171.102 36.625H170.383V36.25C170.383 36.1119 170.271 36 170.133 36C169.995 36 169.883 36.1119 169.883 36.25V36.625H166.383V36.25C166.383 36.1119 166.271 36 166.133 36C165.995 36 165.883 36.1119 165.883 36.25V36.625H165.164C164.595 36.625 164.133 37.0876 164.133 37.6562V42.9688C164.133 43.5374 164.595 44 165.164 44H171.102C171.67 44 172.133 43.5374 172.133 42.9688V37.6562C172.133 37.0876 171.67 36.625 171.102 36.625ZM165.164 37.125H165.883V37.375C165.883 37.5131 165.995 37.625 166.133 37.625C166.271 37.625 166.383 37.5131 166.383 37.375V37.125H169.883V37.375C169.883 37.5131 169.995 37.625 170.133 37.625C170.271 37.625 170.383 37.5131 170.383 37.375V37.125H171.102C171.394 37.125 171.633 37.3633 171.633 37.6562V38.25H164.633V37.6562C164.633 37.3633 164.871 37.125 165.164 37.125ZM171.102 43.5H165.164C164.871 43.5 164.633 43.2617 164.633 42.9688V38.75H171.633V42.9688C171.633 43.2617 171.394 43.5 171.102 43.5Z" fill="#9C9C9C"/>
</g>
<rect x="0.277214" y="60.2037" width="180.189" height="80.3922" rx="11.7228" fill="white" stroke="#E3E1E1" stroke-width="0.554429"/>
<path d="M9.46234 67.4576H10.353L13.1652 71.9677V67.4576H13.8815V73.0251H13.0363L10.1824 68.5188V73.0251H9.46234V67.4576ZM16.5914 72.5855C17.0437 72.5855 17.3532 72.415 17.52 72.0738C17.6893 71.7302 17.7739 71.3487 17.7739 70.9293C17.7739 70.5503 17.7133 70.242 17.592 70.0045C17.3999 69.6305 17.069 69.4436 16.599 69.4436C16.1821 69.4436 15.8789 69.6027 15.6894 69.9211C15.4999 70.2395 15.4051 70.6235 15.4051 71.0733C15.4051 71.5053 15.4999 71.8654 15.6894 72.1534C15.8789 72.4415 16.1796 72.5855 16.5914 72.5855ZM16.6179 68.8485C17.141 68.8485 17.5831 69.0229 17.9444 69.3715C18.3058 69.7202 18.4864 70.2332 18.4864 70.9103C18.4864 71.5647 18.3272 72.1054 18.0089 72.5324C17.6905 72.9595 17.1965 73.173 16.527 73.173C15.9686 73.173 15.5251 72.9847 15.1967 72.6082C14.8682 72.2292 14.704 71.7214 14.704 71.0846C14.704 70.4024 14.877 69.8592 15.2232 69.4549C15.5694 69.0507 16.0343 68.8485 16.6179 68.8485ZM19.4377 67.8328H20.1275V68.966H20.7756V69.5231H20.1275V72.1724C20.1275 72.3139 20.1755 72.4086 20.2715 72.4566C20.3246 72.4844 20.413 72.4983 20.5368 72.4983C20.5697 72.4983 20.6051 72.4983 20.643 72.4983C20.6809 72.4958 20.7251 72.492 20.7756 72.487V73.0251C20.6973 73.0479 20.6152 73.0643 20.5293 73.0744C20.4459 73.0845 20.3549 73.0896 20.2564 73.0896C19.938 73.0896 19.722 73.0087 19.6083 72.847C19.4946 72.6828 19.4377 72.4705 19.4377 72.2103V69.5231H18.8882V68.966H19.4377V67.8328ZM23.152 68.8751C23.44 68.8751 23.7192 68.9433 23.9896 69.0797C24.2599 69.2136 24.4658 69.388 24.6073 69.6027C24.7438 69.8074 24.8347 70.0462 24.8802 70.3191C24.9207 70.506 24.9409 70.8042 24.9409 71.2135H21.9657C21.9783 71.6254 22.0756 71.9564 22.2575 72.2065C22.4394 72.4541 22.7212 72.5779 23.1027 72.5779C23.459 72.5779 23.7432 72.4604 23.9555 72.2254C24.0767 72.089 24.1626 71.9311 24.2132 71.7517H24.884C24.8663 71.9008 24.8069 72.0675 24.7059 72.252C24.6073 72.4339 24.4962 72.583 24.3724 72.6992C24.1652 72.9013 23.9087 73.0378 23.603 73.1085C23.4387 73.149 23.253 73.1692 23.0458 73.1692C22.5405 73.1692 22.1122 72.986 21.761 72.6196C21.4098 72.2507 21.2342 71.7353 21.2342 71.0733C21.2342 70.4214 21.4111 69.892 21.7648 69.4852C22.1185 69.0785 22.5809 68.8751 23.152 68.8751ZM24.2397 70.6715C24.2119 70.3759 24.1475 70.1397 24.0464 69.9628C23.8594 69.6343 23.5474 69.4701 23.1103 69.4701C22.797 69.4701 22.5342 69.5838 22.3219 69.8112C22.1097 70.0361 21.9973 70.3228 21.9846 70.6715H24.2397ZM26.1878 71.7517C26.208 71.9791 26.2649 72.1534 26.3583 72.2747C26.5302 72.4945 26.8283 72.6045 27.2528 72.6045C27.5055 72.6045 27.7278 72.5501 27.9198 72.4415C28.1119 72.3303 28.2079 72.1598 28.2079 71.9298C28.2079 71.7555 28.1308 71.6228 27.9767 71.5319C27.8781 71.4763 27.6836 71.4119 27.393 71.3386L26.851 71.2021C26.5049 71.1162 26.2497 71.0202 26.0855 70.9141C25.7924 70.7296 25.6458 70.4744 25.6458 70.1485C25.6458 69.7644 25.7835 69.4537 26.0589 69.2162C26.3369 68.9786 26.7095 68.8599 27.177 68.8599C27.7884 68.8599 28.2294 69.0393 28.4997 69.3981C28.669 69.6255 28.7511 69.8706 28.7461 70.1333H28.1018C28.0891 69.9792 28.0348 69.839 27.9388 69.7127C27.7821 69.5333 27.5105 69.4436 27.1239 69.4436C26.8662 69.4436 26.6704 69.4928 26.5365 69.5914C26.4051 69.6899 26.3394 69.82 26.3394 69.9817C26.3394 70.1586 26.4266 70.3001 26.6009 70.4062C26.702 70.4694 26.851 70.525 27.0481 70.573L27.4991 70.6829C27.9893 70.8017 28.3178 70.9166 28.4846 71.0278C28.7499 71.2021 28.8825 71.4763 28.8825 71.8502C28.8825 72.2116 28.7448 72.5236 28.4694 72.7864C28.1965 73.0492 27.7796 73.1805 27.2187 73.1805C26.6148 73.1805 26.1865 73.0441 25.9339 72.7712C25.6837 72.4958 25.5498 72.156 25.5321 71.7517H26.1878Z" fill="#9C9C9C"/>
<defs>
<clipPath id="clip0_1_5442">
<rect width="8" height="8" fill="white" transform="translate(164.133 36)"/>
</clipPath>
</defs>
</svg>
