<svg width="241" height="52" viewBox="0 0 241 52" fill="none" xmlns="http://www.w3.org/2000/svg">
<g clip-path="url(#clip0_1_5512)">
<path d="M27.1378 39.6365C24.0541 44.8924 17.0387 44.8174 13.2612 39.7867L4.93533 27.5478C7.24808 24.9199 13.03 22.7424 15.3427 25.7458C19.2744 31.0017 19.6599 31.1519 20.4308 30.1758C22.8206 26.3465 31.6091 10.6537 31.6862 10.5036H5.62916C2.93094 10.5036 -0.0756397 13.2817 0.00145217 16.5104V41.6638C0.00145217 44.2918 2.62257 47.6706 5.78334 47.6706H33.9219C37.0826 47.6706 39.6266 44.9675 39.5496 42.0392L39.6266 17.036C34.3073 26.2714 27.1378 39.6365 27.1378 39.6365ZM70.3863 37.2338C70.9259 29.9506 52.3468 32.7287 52.7323 21.2407C53.2719 5.84831 74.6263 11.3295 77.0933 12.9063C77.0933 12.9063 74.4722 18.9131 74.3951 18.7629C74.3951 18.7629 61.3665 15.0087 61.2124 20.5649C60.9811 27.7731 79.1748 24.169 78.8664 37.1587C78.4809 54.203 53.2719 45.6433 52.1155 45.0426C52.1155 45.0426 54.8908 38.8857 55.045 38.8106C55.1221 38.8106 69.9237 43.5409 70.3863 37.2338ZM180.242 11.2544L184.097 10.6537V20.8653H193.425V27.4728H184.097V36.4079C184.02 43.3907 193.579 39.6365 193.579 39.5614L195.506 46.0938C194.581 46.4692 188.799 47.5204 187.103 47.6706C176.85 48.8719 176.31 39.9368 176.233 36.4829L176.156 15.6093C176.388 13.4319 178.006 11.6298 180.242 11.2544ZM114.329 6.14865L118.183 5.54797L118.26 47.8958H110.474L110.397 10.5036C110.397 8.32611 112.016 6.52408 114.329 6.14865ZM215.627 28.1485C214.933 27.9983 211.156 26.797 207.301 27.7731L207.378 47.8958H199.978L199.901 22.8926C207.378 19.6639 216.475 21.7663 216.861 21.9165L215.627 28.1485ZM234.283 42.0392V36.558C233.975 36.4829 226.883 35.8823 226.729 39.2611C226.497 43.2406 233.898 42.1143 234.283 42.0392ZM230.275 21.0905C241.761 20.3397 240.99 29.9506 240.99 31.5273V46.6194C239.988 46.8447 232.896 47.8958 230.352 47.8958C228.733 47.8958 220.176 48.2713 220.021 39.4863C220.021 37.9846 220.484 29.1997 234.283 31.9028C234.283 31.9028 234.9 26.9472 229.427 27.1724C227.422 27.2475 223.259 28.0734 221.949 28.2236L221.101 22.4421C221.563 22.2168 227.577 21.2407 230.275 21.0905ZM150.485 34.5307C150.485 25.07 159.427 17.4114 172.61 22.9677L170.991 28.5239C159.659 24.995 158.579 32.4284 158.579 34.5307C158.579 36.7082 159.35 44.2167 171.993 40.5375L173.073 46.244C157.731 51.2747 150.562 43.616 150.485 34.5307ZM139.383 31.9778C138.767 27.2475 135.452 27.0222 134.604 27.0222C130.132 27.0222 129.67 31.3772 129.516 31.9778H139.383ZM121.884 34.756C121.807 32.5034 122.732 20.8653 134.527 21.0155C147.016 21.1656 146.707 34.4556 146.476 36.9334H129.516C129.516 43.1655 141.002 41.2133 144.009 40.5375L145.011 46.4692C141.388 47.3702 122.577 52.2508 121.884 34.756ZM99.6041 31.9778C98.9873 27.2475 95.6724 27.0222 94.8244 27.0222C90.3531 27.0222 89.8905 31.3772 89.7363 31.9778H99.6041ZM82.1042 34.756C82.0271 32.5034 82.9522 20.8653 94.7473 21.0155C107.236 21.1656 106.928 34.4556 106.697 36.9334H89.8134C89.8134 43.1655 101.3 41.2133 104.307 40.5375L105.309 46.4692C101.608 47.3702 82.7981 52.2508 82.1042 34.756Z" fill="#3971B7"/>
</g>
<defs>
<clipPath id="clip0_1_5512">
<rect width="241" height="51.0353" fill="white" transform="translate(0 0.846924)"/>
</clipPath>
</defs>
</svg>
