<svg width="156" height="28" viewBox="0 0 156 28" fill="none" xmlns="http://www.w3.org/2000/svg">
<path d="M18.367 22.3648C16.3827 25.7469 11.8685 25.6986 9.4377 22.4614L4.0801 14.5859C5.56833 12.8948 9.28888 11.4937 10.7771 13.4263C13.3071 16.8084 13.5551 16.9051 14.0512 16.277C15.589 13.8128 21.2443 3.71481 21.2939 3.61817H4.52657C2.79031 3.61817 0.855624 5.40586 0.905231 7.48345V23.6693C0.905231 25.3604 2.59188 27.5346 4.62579 27.5346H22.7325C24.7664 27.5346 26.4034 25.7952 26.3538 23.9109L26.4034 7.82166C22.9805 13.7645 18.367 22.3648 18.367 22.3648ZM46.1968 20.8187C46.544 16.132 34.5887 17.9197 34.8367 10.5274C35.1839 0.622586 48.9252 4.14965 50.5126 5.16428C50.5126 5.16428 48.826 9.02956 48.7764 8.93293C48.7764 8.93293 40.3927 6.51713 40.2935 10.0925C40.1447 14.7308 51.852 12.4117 51.6536 20.7703C51.4056 31.7381 35.1839 26.23 34.4398 25.8435C34.4398 25.8435 36.2257 21.8816 36.3249 21.8333C36.3745 21.8333 45.8991 24.8772 46.1968 20.8187ZM116.887 4.10133L119.368 3.71481V10.2858H125.37V14.5376H119.368V20.2872C119.318 24.7806 125.469 22.3648 125.469 22.3164L126.71 26.5199C126.114 26.7615 122.394 27.4379 121.302 27.5346C114.705 28.3076 114.357 22.558 114.308 20.3355L114.258 6.90366C114.407 5.5025 115.449 4.34291 116.887 4.10133ZM74.473 0.815849L76.9534 0.429321L77.003 27.6795H71.9926L71.943 3.61817C71.943 2.21701 72.9848 1.05743 74.473 0.815849ZM139.657 14.9724C139.211 14.8758 136.78 14.1027 134.3 14.7308L134.349 27.6795H129.587L129.537 11.5903C134.349 9.51272 140.203 10.8656 140.451 10.9622L139.657 14.9724ZM151.662 23.9109V20.3838C151.464 20.3355 146.9 19.949 146.801 22.1232C146.652 24.6839 151.414 23.9592 151.662 23.9109ZM149.083 10.4307C156.474 9.94756 155.978 16.132 155.978 17.1466V26.8581C155.333 27.0031 150.769 27.6795 149.132 27.6795C148.09 27.6795 142.584 27.9211 142.485 22.2681C142.485 21.3018 142.782 15.6488 151.662 17.3882C151.662 17.3882 152.059 14.1994 148.537 14.3443C147.247 14.3926 144.568 14.9241 143.725 15.0207L143.179 11.3004C143.477 11.1555 147.346 10.5274 149.083 10.4307ZM97.7389 19.0793C97.7389 12.9915 103.493 8.06324 111.976 11.6386L110.934 15.214C103.642 12.9432 102.948 17.7264 102.948 19.0793C102.948 20.4804 103.444 25.312 111.579 22.9446L112.274 26.6166C102.402 29.8537 97.7885 24.9255 97.7389 19.0793ZM90.5954 17.4365C90.1985 14.3926 88.0654 14.2477 87.5197 14.2477C84.6425 14.2477 84.3449 17.05 84.2457 17.4365H90.5954ZM79.3345 19.2242C79.2849 17.7747 79.8802 10.2858 87.4701 10.3824C95.5065 10.479 95.3081 19.031 95.1593 20.6254H84.2457C84.2457 24.6356 91.6372 23.3794 93.5718 22.9446L94.2167 26.7615C91.8852 27.3413 79.781 30.4818 79.3345 19.2242ZM64.998 17.4365C64.6011 14.3926 62.468 14.2477 61.9223 14.2477C59.0451 14.2477 58.7475 17.05 58.6482 17.4365H64.998ZM53.7371 19.2242C53.6875 17.7747 54.2828 10.2858 61.8727 10.3824C69.9091 10.479 69.7107 19.031 69.5619 20.6254H58.6978C58.6978 24.6356 66.0893 23.3794 68.024 22.9446L68.6689 26.7615C66.2878 27.3413 54.1836 30.4818 53.7371 19.2242Z" fill="#0E539D"/>
</svg>
